{"glyphs":{"0":{"ha":704,"x_min":42,"x_max":711,"o":"m 711 628 q 707 548 711 593 q 693 452 703 503 q 670 349 684 401 q 637 246 656 296 q 591 152 617 196 q 534 76 566 108 q 433 9 492 35 q 291 -16 374 -16 q 176 3 223 -16 q 99 55 129 21 q 56 139 69 90 q 42 251 42 189 q 46 329 42 284 q 59 425 50 374 q 82 528 68 475 q 116 631 96 581 q 162 725 136 681 q 220 802 187 769 q 265 839 240 822 q 320 868 290 857 q 386 887 351 880 q 462 893 421 893 q 579 874 532 893 q 656 821 627 855 q 698 737 686 786 q 711 628 711 688 m 534 625 q 511 722 534 691 q 437 752 489 752 q 387 742 409 752 q 346 714 364 732 q 307 656 325 692 q 275 575 290 619 q 251 482 261 530 q 234 390 241 434 q 223 309 227 345 q 219 252 219 273 q 242 157 219 187 q 315 126 264 126 q 367 136 344 126 q 407 163 389 146 q 446 221 428 184 q 477 302 463 258 q 502 395 492 347 q 520 487 513 443 q 530 568 527 532 q 534 625 534 604 z "},"1":{"ha":704,"x_min":47,"x_max":595,"o":"m 595 109 q 594 94 595 104 q 591 72 593 84 q 585 47 589 59 q 577 24 582 35 q 565 6 572 13 q 551 0 558 0 l 66 0 q 52 7 57 0 q 47 30 47 15 q 48 44 47 35 q 52 66 50 54 q 58 91 54 78 q 67 114 62 104 q 79 131 72 124 q 94 138 85 138 l 257 138 l 370 701 l 212 623 q 190 615 199 617 q 176 616 181 614 q 170 625 172 618 q 168 641 168 631 q 170 666 168 650 q 176 700 172 682 q 189 732 181 717 q 208 753 197 747 l 423 875 q 433 879 428 878 q 447 882 439 881 q 469 883 456 883 q 504 884 483 884 q 545 883 530 884 q 569 879 561 882 q 578 873 576 877 q 578 863 579 869 l 434 138 l 578 138 q 591 131 587 138 q 595 109 595 123 z "},"2":{"ha":704,"x_min":7,"x_max":684,"o":"m 604 111 q 603 95 604 106 q 600 73 602 85 q 593 47 597 60 q 584 24 589 35 q 573 7 579 14 q 557 0 566 0 l 53 0 q 31 2 39 0 q 16 9 22 4 q 9 20 11 14 q 7 37 7 27 q 9 64 7 47 q 17 101 11 81 q 36 143 23 122 q 68 183 48 165 l 275 364 q 346 433 316 401 q 397 492 376 465 q 432 543 418 519 q 452 586 445 566 q 462 622 460 606 q 465 652 465 639 q 460 679 465 665 q 446 705 456 693 q 418 725 436 717 q 372 732 400 732 q 304 722 336 732 q 245 699 271 711 q 200 676 218 686 q 173 665 181 665 q 160 673 164 665 q 157 696 157 682 q 157 711 157 701 q 160 732 158 720 q 164 756 161 743 q 171 780 168 768 q 179 802 174 792 q 191 819 184 812 q 223 840 199 827 q 281 864 248 852 q 356 885 315 876 q 439 893 397 893 q 558 875 511 893 q 633 829 606 857 q 673 767 661 801 q 684 700 684 732 q 679 640 684 670 q 662 577 674 610 q 627 510 649 545 q 570 435 604 475 q 487 349 536 395 q 373 250 439 303 l 248 144 l 583 144 q 600 134 595 144 q 604 111 604 124 z "},"3":{"ha":704,"x_min":13,"x_max":677,"o":"m 633 287 q 625 220 633 255 q 598 152 617 186 q 550 88 580 119 q 478 35 521 58 q 378 -2 435 12 q 248 -16 321 -16 q 184 -12 214 -16 q 126 -2 154 -8 q 76 14 99 5 q 35 34 53 23 q 18 51 22 41 q 13 75 13 60 q 14 91 13 81 q 17 113 15 101 q 22 137 19 125 q 28 160 24 150 q 38 177 33 171 q 50 184 43 184 q 72 175 57 184 q 110 155 87 166 q 166 136 134 144 q 241 127 199 127 q 325 140 290 127 q 382 175 359 153 q 417 223 406 196 q 428 278 428 250 q 420 319 428 300 q 394 352 412 338 q 345 374 375 366 q 269 382 315 382 l 186 382 q 166 388 172 382 q 161 408 161 394 q 162 423 161 413 q 165 445 163 433 q 172 469 168 456 q 181 491 176 481 q 193 507 186 500 q 209 513 200 513 l 285 513 q 366 526 330 513 q 427 560 402 538 q 465 609 452 581 q 478 669 478 637 q 455 729 478 707 q 378 752 432 752 q 310 741 342 752 q 250 718 277 730 q 203 694 222 705 q 175 683 183 683 q 163 690 167 683 q 159 709 159 697 q 161 730 159 716 q 166 761 163 745 q 177 794 170 778 q 191 818 183 810 q 223 839 200 826 q 279 864 245 852 q 353 885 312 876 q 438 893 394 893 q 544 880 499 893 q 619 843 589 867 q 663 784 648 819 q 677 708 677 750 q 663 624 677 665 q 623 550 649 583 q 559 492 597 517 q 474 456 522 468 l 474 454 q 548 433 518 450 q 597 393 578 416 q 625 342 616 370 q 633 287 633 314 z "},"4":{"ha":704,"x_min":7,"x_max":680,"o":"m 668 293 q 667 276 668 287 q 663 254 665 266 q 656 229 661 241 q 647 205 652 216 q 636 188 642 195 q 622 182 629 182 l 544 182 l 512 23 q 506 11 511 16 q 490 3 500 6 q 463 -2 479 -1 q 420 -4 446 -4 q 379 -2 395 -4 q 354 3 363 -1 q 342 11 345 6 q 340 23 339 16 l 372 182 l 37 182 q 13 189 20 182 q 7 214 7 196 q 8 231 7 220 q 12 257 9 243 q 19 288 15 272 q 28 320 23 304 q 39 351 33 336 q 53 374 45 365 l 423 858 q 438 868 428 864 q 464 876 448 873 q 503 880 479 879 q 558 882 526 882 q 617 880 593 882 q 655 874 641 878 q 674 865 669 871 q 679 852 680 860 l 573 324 l 650 324 q 664 316 659 324 q 668 293 668 308 m 479 722 l 478 722 l 172 324 l 401 324 l 479 722 z "},"5":{"ha":704,"x_min":17,"x_max":690,"o":"m 638 336 q 628 249 638 292 q 596 166 617 205 q 541 94 574 127 q 464 37 508 61 q 362 -2 419 12 q 237 -16 306 -16 q 179 -12 208 -16 q 124 -3 150 -9 q 75 11 98 3 q 35 27 52 18 q 21 39 25 32 q 17 60 17 46 q 18 75 17 64 q 21 99 19 85 q 27 125 24 112 q 34 151 30 139 q 44 170 39 162 q 58 177 50 177 q 78 169 64 177 q 113 152 92 161 q 165 135 134 142 q 236 127 195 127 q 327 141 288 127 q 392 180 366 155 q 432 239 419 205 q 446 311 446 273 q 439 348 446 330 q 415 378 433 365 q 369 400 398 392 q 296 408 340 408 q 217 404 252 408 q 153 399 182 399 q 126 409 133 399 q 125 446 120 419 l 201 827 q 220 866 207 854 q 256 878 233 878 l 671 878 q 686 870 682 878 q 690 848 690 863 q 689 830 690 842 q 685 805 688 819 q 678 777 682 791 q 669 751 674 763 q 656 732 663 740 q 641 725 650 725 l 329 725 l 292 537 q 333 541 315 539 q 372 542 351 542 q 494 526 443 542 q 576 484 545 511 q 623 418 608 456 q 638 336 638 380 z "},"6":{"ha":704,"x_min":56,"x_max":708,"o":"m 663 361 q 655 288 663 328 q 632 205 648 247 q 589 124 616 163 q 521 53 562 84 q 424 3 480 22 q 295 -16 368 -16 q 184 2 229 -16 q 110 52 138 20 q 69 130 81 84 q 56 231 56 175 q 59 296 56 255 q 70 389 62 338 q 93 496 78 439 q 133 610 109 553 q 191 717 157 666 q 274 807 226 768 q 384 869 321 846 q 525 892 446 892 q 613 886 574 892 q 681 868 652 879 q 702 854 696 862 q 708 833 708 846 q 707 820 708 829 q 704 799 706 810 q 699 775 703 787 q 691 752 696 762 q 681 735 687 742 q 668 728 675 728 q 648 733 659 728 q 619 743 636 737 q 578 752 602 748 q 523 756 555 756 q 426 736 468 756 q 353 682 384 716 q 301 603 322 648 q 269 507 281 557 q 349 540 304 527 q 449 553 393 553 q 548 537 507 553 q 614 496 588 522 q 651 434 640 469 q 663 361 663 399 m 485 333 q 479 368 485 352 q 463 394 474 383 q 434 411 452 406 q 391 417 416 417 q 353 414 373 417 q 315 405 334 411 q 279 390 296 399 q 245 372 261 382 q 233 296 236 330 q 229 236 229 262 q 253 148 229 174 q 323 121 277 121 q 375 132 352 121 q 416 159 398 142 q 447 199 434 176 q 468 244 460 221 q 481 291 477 268 q 485 333 485 314 z "},"7":{"ha":704,"x_min":72,"x_max":750,"o":"m 750 847 q 748 820 750 838 q 741 782 746 803 q 727 738 736 761 q 705 693 718 715 l 282 24 q 268 10 276 16 q 247 1 260 5 q 215 -3 234 -2 q 170 -4 197 -4 q 113 -2 134 -4 q 82 6 92 1 q 72 19 72 12 q 80 39 73 27 l 527 723 l 163 723 q 149 731 153 723 q 145 754 145 739 q 146 771 145 760 q 150 796 147 782 q 157 824 153 810 q 166 850 161 838 q 179 870 172 863 q 195 878 186 878 l 717 878 q 743 870 736 878 q 750 847 750 863 z "},"8":{"ha":704,"x_min":18,"x_max":711,"o":"m 648 260 q 642 206 648 236 q 620 145 635 176 q 577 85 604 114 q 511 34 551 56 q 415 -2 471 11 q 287 -16 360 -16 q 169 -1 219 -16 q 85 39 118 13 q 35 100 52 64 q 18 179 18 136 q 34 262 18 223 q 78 334 49 300 q 148 397 106 368 q 243 451 190 426 q 159 530 185 486 q 133 625 133 573 q 141 686 133 654 q 165 747 149 718 q 208 803 182 777 q 271 850 234 830 q 356 882 308 870 q 465 893 404 893 q 586 877 538 893 q 661 835 633 861 q 700 778 689 810 q 711 714 711 746 q 696 630 711 669 q 655 559 682 591 q 592 502 628 528 q 515 455 556 475 q 576 411 551 433 q 617 365 601 389 q 641 315 633 341 q 648 260 648 289 m 538 690 q 533 716 538 703 q 517 740 528 730 q 488 757 507 751 q 444 763 470 763 q 379 751 406 763 q 337 722 353 740 q 313 682 320 705 q 305 640 305 660 q 308 609 305 623 q 321 582 311 595 q 347 555 330 568 q 392 525 364 541 q 455 560 428 542 q 500 598 482 578 q 528 642 519 619 q 538 690 538 664 m 469 250 q 465 281 469 266 q 448 313 460 297 q 415 344 435 328 q 365 378 395 360 q 283 333 315 355 q 231 290 250 312 q 204 245 212 268 q 196 199 196 223 q 202 167 196 182 q 221 140 208 152 q 256 122 234 129 q 311 116 278 116 q 382 127 353 116 q 432 156 412 138 q 460 199 451 175 q 469 250 469 223 z "},"9":{"ha":704,"x_min":26,"x_max":700,"o":"m 94 517 q 100 590 94 549 q 123 672 107 631 q 167 754 140 714 q 235 825 194 793 q 332 874 276 856 q 460 893 387 893 q 572 876 526 893 q 646 826 617 858 q 687 748 674 793 q 700 646 700 703 q 697 582 700 623 q 686 489 694 541 q 662 381 677 438 q 622 267 647 323 q 562 160 597 211 q 476 70 526 109 q 361 7 426 31 q 213 -16 296 -16 q 163 -13 186 -16 q 121 -7 140 -11 q 84 2 101 -3 q 53 13 67 7 q 32 26 37 19 q 26 47 26 34 q 27 60 26 51 q 30 82 28 70 q 35 106 32 94 q 42 129 38 119 q 53 146 47 140 q 66 153 58 153 q 88 148 75 153 q 121 137 102 143 q 166 127 140 132 q 224 122 192 122 q 325 141 281 122 q 400 195 369 161 q 453 274 432 229 q 486 370 473 319 q 407 338 452 351 q 307 325 362 325 q 208 340 248 325 q 142 382 168 355 q 105 443 117 408 q 94 517 94 478 m 271 545 q 276 510 271 526 q 293 483 281 494 q 322 466 304 471 q 364 460 340 460 q 402 463 383 460 q 440 472 422 466 q 477 487 459 478 q 511 505 494 495 q 523 582 519 547 q 527 642 527 616 q 503 730 527 704 q 432 757 478 757 q 380 747 404 757 q 339 719 357 736 q 309 680 321 702 q 288 633 296 657 q 275 587 279 610 q 271 545 271 564 z "},"\u0000":{"ha":0,"x_min":0,"x_max":0,"o":""},"\r":{"ha":0,"x_min":0,"x_max":0,"o":""}," ":{"ha":314,"x_min":0,"x_max":0,"o":""},"A":{"ha":842,"x_min":-43,"x_max":767,"o":"m 764 66 q 767 28 767 42 q 757 6 766 14 q 727 -2 748 -1 q 669 -4 706 -4 q 627 -3 644 -4 q 602 1 611 -2 q 590 9 593 3 q 586 24 587 14 l 562 200 l 233 200 l 142 28 q 131 12 137 18 q 113 2 125 5 q 82 -3 102 -1 q 34 -4 63 -4 q -15 -2 3 -4 q -38 8 -32 0 q -39 30 -43 16 q -22 68 -35 44 l 404 846 q 418 865 411 858 q 437 876 425 872 q 471 881 450 880 q 527 882 492 882 q 590 881 567 882 q 627 876 614 880 q 644 865 640 872 q 649 844 648 857 l 764 66 m 497 710 l 496 710 l 300 337 l 547 337 l 497 710 z "},"À":{"ha":842,"x_min":-43,"x_max":767,"o":"m 764 66 q 767 28 767 42 q 757 6 766 14 q 727 -2 748 -1 q 669 -4 706 -4 q 627 -3 644 -4 q 602 1 611 -2 q 590 9 593 3 q 586 24 587 14 l 562 200 l 233 200 l 142 28 q 131 12 137 18 q 113 2 125 5 q 82 -3 102 -1 q 34 -4 63 -4 q -15 -2 3 -4 q -38 8 -32 0 q -39 30 -43 16 q -22 68 -35 44 l 404 846 q 418 865 411 858 q 437 876 425 872 q 471 881 450 880 q 527 882 492 882 q 590 881 567 882 q 627 876 614 880 q 644 865 640 872 q 649 844 648 857 l 764 66 m 497 710 l 496 710 l 300 337 l 547 337 l 497 710 m 604 976 q 613 960 612 966 q 609 948 615 953 q 588 942 602 944 q 552 940 574 940 q 517 941 531 940 q 493 946 503 943 q 476 953 483 949 q 462 964 469 958 l 317 1099 q 304 1116 307 1108 q 309 1131 302 1124 q 333 1141 315 1137 q 381 1145 351 1145 q 423 1144 406 1145 q 452 1140 439 1143 q 472 1131 464 1137 q 488 1114 480 1124 l 604 976 m 85 878 z "},"Á":{"ha":842,"x_min":-43,"x_max":798,"o":"m 764 66 q 767 28 767 42 q 757 6 766 14 q 727 -2 748 -1 q 669 -4 706 -4 q 627 -3 644 -4 q 602 1 611 -2 q 590 9 593 3 q 586 24 587 14 l 562 200 l 233 200 l 142 28 q 131 12 137 18 q 113 2 125 5 q 82 -3 102 -1 q 34 -4 63 -4 q -15 -2 3 -4 q -38 8 -32 0 q -39 30 -43 16 q -22 68 -35 44 l 404 846 q 418 865 411 858 q 437 876 425 872 q 471 881 450 880 q 527 882 492 882 q 590 881 567 882 q 627 876 614 880 q 644 865 640 872 q 649 844 648 857 l 764 66 m 497 710 l 496 710 l 300 337 l 547 337 l 497 710 m 623 964 q 609 953 616 958 q 592 946 602 949 q 567 942 582 943 q 532 940 553 940 q 475 949 486 940 q 482 976 465 958 l 610 1114 q 628 1130 619 1124 q 649 1139 637 1136 q 678 1144 661 1143 q 720 1145 695 1145 q 768 1141 751 1145 q 791 1131 785 1137 q 794 1116 798 1124 q 780 1099 790 1108 l 623 964 m 260 878 z "},"Â":{"ha":842,"x_min":-43,"x_max":798,"o":"m 764 66 q 767 28 767 42 q 757 6 766 14 q 727 -2 748 -1 q 669 -4 706 -4 q 627 -3 644 -4 q 602 1 611 -2 q 590 9 593 3 q 586 24 587 14 l 562 200 l 233 200 l 142 28 q 131 12 137 18 q 113 2 125 5 q 82 -3 102 -1 q 34 -4 63 -4 q -15 -2 3 -4 q -38 8 -32 0 q -39 30 -43 16 q -22 68 -35 44 l 404 846 q 418 865 411 858 q 437 876 425 872 q 471 881 450 880 q 527 882 492 882 q 590 881 567 882 q 627 876 614 880 q 644 865 640 872 q 649 844 648 857 l 764 66 m 497 710 l 496 710 l 300 337 l 547 337 l 497 710 m 790 972 q 797 957 796 963 q 791 946 798 950 q 770 941 784 943 q 732 940 755 940 q 687 941 704 940 q 661 944 671 942 q 647 951 651 947 q 638 961 642 955 l 577 1054 l 476 963 q 461 951 469 956 q 443 944 454 947 q 413 941 431 942 q 368 940 395 940 q 331 942 345 940 q 312 947 317 943 q 310 957 307 951 q 323 972 313 963 l 485 1118 q 504 1132 494 1126 q 526 1140 513 1137 q 554 1144 538 1143 q 593 1145 570 1145 q 630 1145 615 1145 q 654 1141 644 1144 q 671 1133 664 1139 q 685 1118 678 1127 l 790 972 m 113 878 z "},"Ã":{"ha":842,"x_min":-43,"x_max":815,"o":"m 764 66 q 767 28 767 42 q 757 6 766 14 q 727 -2 748 -1 q 669 -4 706 -4 q 627 -3 644 -4 q 602 1 611 -2 q 590 9 593 3 q 586 24 587 14 l 562 200 l 233 200 l 142 28 q 131 12 137 18 q 113 2 125 5 q 82 -3 102 -1 q 34 -4 63 -4 q -15 -2 3 -4 q -38 8 -32 0 q -39 30 -43 16 q -22 68 -35 44 l 404 846 q 418 865 411 858 q 437 876 425 872 q 471 881 450 880 q 527 882 492 882 q 590 881 567 882 q 627 876 614 880 q 644 865 640 872 q 649 844 648 857 l 764 66 m 497 710 l 496 710 l 300 337 l 547 337 l 497 710 m 711 1109 q 714 1118 711 1115 q 724 1124 718 1122 q 741 1126 730 1126 q 766 1127 751 1127 q 806 1123 796 1127 q 815 1109 815 1118 q 814 1093 815 1106 q 807 1060 812 1079 q 792 1021 802 1042 q 765 983 783 1000 q 720 954 747 965 q 654 942 693 942 q 592 952 618 942 q 545 976 566 963 q 506 999 524 988 q 467 1009 488 1009 q 433 996 444 1009 q 419 960 421 983 q 415 951 418 954 q 405 946 412 947 q 389 943 399 944 q 363 942 378 942 q 323 946 334 942 q 313 961 313 950 q 315 982 313 967 q 323 1015 317 997 q 340 1053 329 1034 q 369 1089 351 1073 q 413 1117 387 1106 q 476 1127 439 1127 q 538 1117 512 1127 q 585 1093 564 1106 q 624 1070 606 1080 q 662 1059 642 1059 q 695 1070 682 1059 q 711 1109 707 1082 m 111 878 z "},"Ä":{"ha":842,"x_min":-43,"x_max":808,"o":"m 764 66 q 767 28 767 42 q 757 6 766 14 q 727 -2 748 -1 q 669 -4 706 -4 q 627 -3 644 -4 q 602 1 611 -2 q 590 9 593 3 q 586 24 587 14 l 562 200 l 233 200 l 142 28 q 131 12 137 18 q 113 2 125 5 q 82 -3 102 -1 q 34 -4 63 -4 q -15 -2 3 -4 q -38 8 -32 0 q -39 30 -43 16 q -22 68 -35 44 l 404 846 q 418 865 411 858 q 437 876 425 872 q 471 881 450 880 q 527 882 492 882 q 590 881 567 882 q 627 876 614 880 q 644 865 640 872 q 649 844 648 857 l 764 66 m 497 710 l 496 710 l 300 337 l 547 337 l 497 710 m 804 1036 q 792 997 800 1013 q 772 972 785 981 q 742 959 760 962 q 700 955 724 955 q 658 959 674 955 q 633 972 642 962 q 623 997 625 981 q 626 1036 622 1013 q 638 1078 631 1061 q 657 1105 645 1095 q 687 1119 669 1115 q 730 1123 705 1123 q 771 1119 755 1123 q 796 1105 787 1115 q 807 1078 805 1095 q 804 1036 808 1061 m 508 1036 q 496 997 504 1013 q 476 972 489 981 q 446 959 464 962 q 404 955 428 955 q 362 959 378 955 q 337 972 346 962 q 327 997 328 981 q 330 1036 326 1013 q 342 1078 334 1061 q 361 1105 349 1095 q 391 1119 373 1115 q 435 1123 409 1123 q 475 1119 459 1123 q 500 1105 491 1115 q 511 1078 509 1095 q 508 1036 513 1061 m 116 878 z "},"Ā":{"ha":842,"x_min":-43,"x_max":804,"o":"m 764 66 q 767 28 767 42 q 757 6 766 14 q 727 -2 748 -1 q 669 -4 706 -4 q 627 -3 644 -4 q 602 1 611 -2 q 590 9 593 3 q 586 24 587 14 l 562 200 l 233 200 l 142 28 q 131 12 137 18 q 113 2 125 5 q 82 -3 102 -1 q 34 -4 63 -4 q -15 -2 3 -4 q -38 8 -32 0 q -39 30 -43 16 q -22 68 -35 44 l 404 846 q 418 865 411 858 q 437 876 425 872 q 471 881 450 880 q 527 882 492 882 q 590 881 567 882 q 627 876 614 880 q 644 865 640 872 q 649 844 648 857 l 764 66 m 497 710 l 496 710 l 300 337 l 547 337 l 497 710 m 804 1070 q 803 1055 804 1065 q 799 1035 802 1046 q 793 1013 797 1024 q 785 991 790 1001 q 773 976 780 982 q 759 970 767 970 l 359 970 q 342 977 347 970 q 337 997 337 983 q 338 1010 337 1001 q 341 1031 339 1020 q 346 1053 342 1042 q 355 1074 350 1065 q 368 1090 361 1084 q 385 1096 375 1096 l 785 1096 q 799 1089 795 1096 q 804 1070 804 1082 m 129 878 z "},"Ă":{"ha":842,"x_min":-43,"x_max":786,"o":"m 764 66 q 767 28 767 42 q 757 6 766 14 q 727 -2 748 -1 q 669 -4 706 -4 q 627 -3 644 -4 q 602 1 611 -2 q 590 9 593 3 q 586 24 587 14 l 562 200 l 233 200 l 142 28 q 131 12 137 18 q 113 2 125 5 q 82 -3 102 -1 q 34 -4 63 -4 q -15 -2 3 -4 q -38 8 -32 0 q -39 30 -43 16 q -22 68 -35 44 l 404 846 q 418 865 411 858 q 437 876 425 872 q 471 881 450 880 q 527 882 492 882 q 590 881 567 882 q 627 876 614 880 q 644 865 640 872 q 649 844 648 857 l 764 66 m 497 710 l 496 710 l 300 337 l 547 337 l 497 710 m 786 1133 q 783 1108 786 1125 q 770 1070 779 1091 q 744 1025 760 1048 q 702 983 728 1002 q 639 952 675 964 q 552 940 602 940 q 466 951 500 940 q 410 980 431 962 q 381 1023 389 999 q 372 1074 372 1048 q 373 1092 372 1082 q 375 1112 374 1102 q 379 1129 376 1121 q 385 1139 382 1137 q 404 1148 391 1145 q 439 1151 416 1151 q 467 1149 456 1151 q 484 1145 477 1148 q 492 1139 490 1143 q 494 1130 494 1135 q 493 1117 494 1124 q 492 1103 492 1110 q 496 1080 492 1090 q 508 1063 500 1069 q 529 1052 516 1056 q 562 1048 543 1048 q 597 1053 581 1048 q 627 1066 614 1057 q 651 1090 641 1076 q 667 1125 661 1104 q 673 1137 669 1132 q 685 1145 677 1141 q 703 1149 692 1148 q 732 1151 715 1151 q 760 1149 749 1151 q 776 1146 770 1148 q 784 1140 782 1144 q 786 1133 786 1137 m 146 878 z "},"Å":{"ha":842,"x_min":-43,"x_max":767,"o":"m 764 66 q 767 28 767 42 q 757 6 766 14 q 727 -2 748 -1 q 669 -4 706 -4 q 627 -3 644 -4 q 602 1 611 -2 q 590 9 593 3 q 586 24 587 14 l 562 200 l 233 200 l 142 28 q 131 12 137 18 q 113 2 125 5 q 82 -3 102 -1 q 34 -4 63 -4 q -15 -2 3 -4 q -38 8 -32 0 q -39 30 -43 16 q -22 68 -35 44 l 404 846 q 418 865 411 858 q 437 876 425 872 q 471 881 450 880 q 527 882 492 882 q 590 881 567 882 q 627 876 614 880 q 644 865 640 872 q 649 844 648 857 l 764 66 m 497 710 l 496 710 l 300 337 l 547 337 l 497 710 m 733 1076 q 723 1018 733 1046 q 691 967 713 989 q 635 932 669 945 q 551 919 600 919 q 485 927 512 919 q 440 951 458 936 q 415 986 423 966 q 408 1030 408 1006 q 412 1068 408 1048 q 425 1104 416 1087 q 448 1137 434 1122 q 482 1164 462 1153 q 529 1182 503 1176 q 589 1189 555 1189 q 656 1180 629 1189 q 701 1156 684 1171 q 725 1119 718 1140 q 733 1076 733 1099 m 629 1063 q 626 1082 629 1073 q 617 1097 623 1090 q 601 1108 611 1104 q 576 1112 591 1112 q 547 1106 559 1112 q 528 1091 535 1101 q 516 1068 520 1081 q 513 1042 513 1055 q 515 1024 513 1033 q 524 1009 518 1016 q 539 999 530 1003 q 564 995 549 995 q 593 1000 581 995 q 613 1015 605 1006 q 625 1037 621 1024 q 629 1063 629 1049 m 192 878 z "},"Ǻ":{"ha":842,"x_min":-43,"x_max":780,"o":"m 764 66 q 767 28 767 42 q 757 6 766 14 q 727 -2 748 -1 q 669 -4 706 -4 q 627 -3 644 -4 q 602 1 611 -2 q 590 9 593 3 q 586 24 587 14 l 562 200 l 233 200 l 142 28 q 131 12 137 18 q 113 2 125 5 q 82 -3 102 -1 q 34 -4 63 -4 q -15 -2 3 -4 q -38 8 -32 0 q -39 30 -43 16 q -22 68 -35 44 l 404 846 q 418 865 411 858 q 437 876 425 872 q 471 881 450 880 q 527 882 492 882 q 590 881 567 882 q 627 876 614 880 q 644 865 640 872 q 649 844 648 857 l 764 66 m 497 710 l 496 710 l 300 337 l 547 337 l 497 710 m 627 1183 q 613 1175 620 1179 q 599 1168 607 1171 q 579 1164 591 1166 q 549 1163 568 1163 q 514 1165 527 1163 q 495 1170 500 1166 q 493 1180 490 1174 q 503 1193 495 1185 l 613 1299 q 627 1310 620 1305 q 645 1318 635 1315 q 669 1321 654 1320 q 703 1322 683 1322 q 750 1319 733 1322 q 773 1312 766 1316 q 779 1301 780 1307 q 770 1291 777 1295 l 627 1183 m 712 1042 q 700 985 712 1010 q 665 943 687 960 q 612 917 643 926 q 544 908 581 908 q 478 916 506 908 q 433 937 451 923 q 408 969 416 950 q 399 1010 399 987 q 412 1068 399 1043 q 447 1109 424 1093 q 500 1134 469 1126 q 570 1143 532 1143 q 634 1136 607 1143 q 678 1115 661 1128 q 704 1083 695 1101 q 712 1042 712 1064 m 612 1030 q 609 1048 612 1040 q 600 1062 606 1056 q 583 1073 593 1069 q 558 1076 573 1076 q 515 1062 531 1076 q 500 1021 500 1048 q 503 1002 500 1010 q 511 987 505 994 q 528 978 517 981 q 553 975 538 975 q 596 989 581 975 q 612 1030 612 1004 m 193 878 z "},"Ą":{"ha":842,"x_min":-43,"x_max":765,"o":"m 743 -149 q 741 -166 743 -155 q 737 -187 740 -176 q 731 -207 734 -198 q 724 -220 728 -216 q 706 -231 718 -226 q 678 -239 694 -235 q 642 -245 661 -243 q 602 -248 622 -248 q 542 -242 569 -248 q 494 -224 514 -236 q 464 -194 475 -212 q 453 -151 453 -176 q 458 -119 453 -134 q 473 -88 463 -104 q 500 -54 483 -72 q 542 -16 517 -37 l 586 20 l 562 200 l 233 200 l 142 28 q 131 12 137 18 q 113 2 125 5 q 82 -3 102 -1 q 34 -4 63 -4 q -15 -2 3 -4 q -38 8 -32 0 q -39 30 -43 16 q -22 68 -35 44 l 404 846 q 418 865 411 858 q 437 876 425 872 q 471 881 450 880 q 527 882 492 882 q 590 881 567 882 q 626 876 614 880 q 643 865 639 872 q 649 844 647 857 l 762 79 q 765 50 764 62 q 762 29 765 38 q 753 12 760 20 q 738 -3 747 5 l 682 -50 q 658 -71 667 -62 q 644 -88 649 -81 q 636 -100 638 -95 q 634 -111 634 -106 q 643 -126 634 -120 q 669 -132 651 -132 l 724 -132 q 739 -136 734 -132 q 743 -149 743 -140 m 498 711 l 496 711 l 300 337 l 547 337 l 498 711 z "},"Æ":{"ha":1077,"x_min":-91,"x_max":1114,"o":"m 969 111 q 968 96 969 106 q 964 74 966 86 q 958 48 962 61 q 950 24 955 35 q 938 7 945 14 q 924 0 932 0 l 490 0 q 469 3 478 0 q 454 13 460 6 q 447 31 449 20 q 448 56 445 41 l 475 191 l 211 191 l 98 28 q 84 12 92 18 q 65 2 77 5 q 33 -3 52 -1 q -17 -4 14 -4 q -64 -2 -47 -4 q -86 8 -81 0 q -84 30 -91 16 q -63 68 -78 44 l 477 841 q 492 860 484 853 q 513 871 500 867 q 548 877 526 876 q 604 878 569 878 l 1096 878 q 1114 851 1114 878 q 1113 836 1114 846 q 1109 813 1112 825 q 1104 787 1107 800 q 1095 763 1100 774 q 1083 745 1090 752 q 1068 738 1076 738 l 760 738 l 718 523 l 977 523 q 990 516 986 523 q 995 495 995 509 q 994 479 995 490 q 990 457 992 469 q 984 432 988 445 q 976 409 981 419 q 964 392 970 398 q 949 385 958 385 l 689 385 l 640 140 l 951 140 q 965 132 960 140 q 969 111 969 125 m 583 738 l 581 738 l 294 327 l 502 327 l 583 738 z "},"Ǽ":{"ha":1077,"x_min":-91,"x_max":1114,"o":"m 969 111 q 968 96 969 106 q 964 74 966 86 q 958 48 962 61 q 950 24 955 35 q 938 7 945 14 q 924 0 932 0 l 490 0 q 469 3 478 0 q 454 13 460 6 q 447 31 449 20 q 448 56 445 41 l 475 191 l 211 191 l 98 28 q 84 12 92 18 q 65 2 77 5 q 33 -3 52 -1 q -17 -4 14 -4 q -64 -2 -47 -4 q -86 8 -81 0 q -84 30 -91 16 q -63 68 -78 44 l 477 841 q 492 860 484 853 q 513 871 500 867 q 548 877 526 876 q 604 878 569 878 l 1096 878 q 1114 851 1114 878 q 1113 836 1114 846 q 1109 813 1112 825 q 1104 787 1107 800 q 1095 763 1100 774 q 1083 745 1090 752 q 1068 738 1076 738 l 760 738 l 718 523 l 977 523 q 990 516 986 523 q 995 495 995 509 q 994 479 995 490 q 990 457 992 469 q 984 432 988 445 q 976 409 981 419 q 964 392 970 398 q 949 385 958 385 l 689 385 l 640 140 l 951 140 q 965 132 960 140 q 969 111 969 125 m 583 738 l 581 738 l 294 327 l 502 327 l 583 738 m 806 964 q 791 953 798 958 q 774 946 784 949 q 750 942 764 943 q 714 940 735 940 q 657 949 668 940 q 665 976 647 958 l 793 1114 q 810 1130 802 1124 q 831 1139 819 1136 q 861 1144 844 1143 q 902 1145 878 1145 q 951 1141 934 1145 q 974 1131 968 1137 q 976 1116 980 1124 q 962 1099 972 1108 l 806 964 m 442 878 z "},"B":{"ha":779,"x_min":37,"x_max":751,"o":"m 751 699 q 740 623 751 659 q 707 558 728 587 q 655 506 686 528 q 588 469 625 483 q 643 450 618 464 q 686 416 668 437 q 714 366 704 395 q 724 301 724 337 q 715 234 724 269 q 687 165 706 199 q 637 102 668 132 q 564 49 607 72 q 465 13 521 26 q 334 0 408 0 l 90 0 q 50 14 62 0 q 43 56 37 27 l 197 821 q 221 864 202 851 q 264 878 239 878 l 475 878 q 595 867 545 878 q 681 834 646 856 q 733 778 715 812 q 751 699 751 745 m 567 665 q 560 699 567 684 q 540 723 553 713 q 506 739 526 733 q 453 744 485 744 l 356 744 l 310 516 l 410 516 q 484 530 454 516 q 531 566 513 544 q 558 614 550 588 q 567 665 567 641 m 537 292 q 505 361 537 336 q 402 386 473 386 l 283 386 l 234 136 l 360 136 q 441 150 408 136 q 495 185 474 163 q 527 235 517 207 q 537 292 537 263 z "},"C":{"ha":720,"x_min":65,"x_max":777,"o":"m 777 793 q 770 742 777 774 q 754 691 764 710 q 732 671 744 671 q 711 683 723 671 q 679 707 699 694 q 629 731 659 720 q 553 742 598 742 q 461 722 503 742 q 387 669 420 702 q 330 593 355 636 q 290 505 306 551 q 266 413 274 458 q 258 328 258 367 q 270 244 258 280 q 304 184 282 208 q 359 149 327 161 q 433 137 392 137 q 515 147 481 137 q 573 170 549 157 q 613 192 597 182 q 642 202 629 202 q 654 196 651 202 q 657 178 657 189 q 656 163 657 173 q 652 142 654 154 q 648 116 650 130 q 642 91 645 102 q 634 69 638 79 q 622 52 629 59 q 593 32 614 44 q 540 10 571 20 q 469 -7 509 0 q 385 -14 430 -14 q 252 5 311 -14 q 151 65 193 25 q 87 165 110 105 q 65 307 65 226 q 78 438 65 370 q 117 571 91 506 q 183 694 143 636 q 278 797 223 753 q 402 866 332 840 q 556 892 471 892 q 646 882 604 892 q 720 856 688 872 q 764 826 751 840 q 777 793 777 813 z "},"Ć":{"ha":720,"x_min":65,"x_max":801,"o":"m 777 793 q 770 742 777 774 q 754 691 764 710 q 732 671 744 671 q 711 683 723 671 q 679 707 699 694 q 629 731 659 720 q 553 742 598 742 q 461 722 503 742 q 387 669 420 702 q 330 593 355 636 q 290 505 306 551 q 266 413 274 458 q 258 328 258 367 q 270 244 258 280 q 304 184 282 208 q 359 149 327 161 q 433 137 392 137 q 515 147 481 137 q 573 170 549 157 q 613 192 597 182 q 642 202 629 202 q 654 196 651 202 q 657 178 657 189 q 656 163 657 173 q 652 142 654 154 q 648 116 650 130 q 642 91 645 102 q 634 69 638 79 q 622 52 629 59 q 593 32 614 44 q 540 10 571 20 q 469 -7 509 0 q 385 -14 430 -14 q 252 5 311 -14 q 151 65 193 25 q 87 165 110 105 q 65 307 65 226 q 78 438 65 370 q 117 571 91 506 q 183 694 143 636 q 278 797 223 753 q 402 866 332 840 q 556 892 471 892 q 646 882 604 892 q 720 856 688 872 q 764 826 751 840 q 777 793 777 813 m 627 964 q 612 953 619 958 q 595 946 605 949 q 571 942 585 943 q 535 940 556 940 q 478 949 489 940 q 486 976 468 958 l 614 1114 q 631 1130 623 1124 q 652 1139 640 1136 q 682 1144 665 1143 q 723 1145 699 1145 q 772 1141 755 1145 q 795 1131 789 1137 q 797 1116 801 1124 q 783 1099 793 1108 l 627 964 m 263 878 z "},"Ĉ":{"ha":720,"x_min":65,"x_max":798,"o":"m 777 793 q 770 742 777 774 q 754 691 764 710 q 732 671 744 671 q 711 683 723 671 q 679 707 699 694 q 629 731 659 720 q 553 742 598 742 q 461 722 503 742 q 387 669 420 702 q 330 593 355 636 q 290 505 306 551 q 266 413 274 458 q 258 328 258 367 q 270 244 258 280 q 304 184 282 208 q 359 149 327 161 q 433 137 392 137 q 515 147 481 137 q 573 170 549 157 q 613 192 597 182 q 642 202 629 202 q 654 196 651 202 q 657 178 657 189 q 656 163 657 173 q 652 142 654 154 q 648 116 650 130 q 642 91 645 102 q 634 69 638 79 q 622 52 629 59 q 593 32 614 44 q 540 10 571 20 q 469 -7 509 0 q 385 -14 430 -14 q 252 5 311 -14 q 151 65 193 25 q 87 165 110 105 q 65 307 65 226 q 78 438 65 370 q 117 571 91 506 q 183 694 143 636 q 278 797 223 753 q 402 866 332 840 q 556 892 471 892 q 646 882 604 892 q 720 856 688 872 q 764 826 751 840 q 777 793 777 813 m 790 972 q 797 957 796 963 q 791 946 798 950 q 770 941 784 943 q 732 940 755 940 q 687 941 704 940 q 661 944 671 942 q 647 951 651 947 q 638 961 642 955 l 577 1054 l 476 963 q 461 951 469 956 q 443 944 454 947 q 413 941 431 942 q 368 940 395 940 q 331 942 345 940 q 312 947 317 943 q 310 957 307 951 q 323 972 313 963 l 485 1118 q 504 1132 494 1126 q 526 1140 513 1137 q 554 1144 538 1143 q 593 1145 570 1145 q 630 1145 615 1145 q 654 1141 644 1144 q 671 1133 664 1139 q 685 1118 678 1127 l 790 972 m 113 878 z "},"Č":{"ha":720,"x_min":65,"x_max":830,"o":"m 777 793 q 770 742 777 774 q 754 691 764 710 q 732 671 744 671 q 711 683 723 671 q 679 707 699 694 q 629 731 659 720 q 553 742 598 742 q 461 722 503 742 q 387 669 420 702 q 330 593 355 636 q 290 505 306 551 q 266 413 274 458 q 258 328 258 367 q 270 244 258 280 q 304 184 282 208 q 359 149 327 161 q 433 137 392 137 q 515 147 481 137 q 573 170 549 157 q 613 192 597 182 q 642 202 629 202 q 654 196 651 202 q 657 178 657 189 q 656 163 657 173 q 652 142 654 154 q 648 116 650 130 q 642 91 645 102 q 634 69 638 79 q 622 52 629 59 q 593 32 614 44 q 540 10 571 20 q 469 -7 509 0 q 385 -14 430 -14 q 252 5 311 -14 q 151 65 193 25 q 87 165 110 105 q 65 307 65 226 q 78 438 65 370 q 117 571 91 506 q 183 694 143 636 q 278 797 223 753 q 402 866 332 840 q 556 892 471 892 q 646 882 604 892 q 720 856 688 872 q 764 826 751 840 q 777 793 777 813 m 654 968 q 635 954 645 959 q 612 945 625 948 q 583 941 600 943 q 544 940 567 940 q 508 941 522 940 q 484 944 494 941 q 467 953 473 947 q 453 968 460 959 l 347 1113 q 340 1129 340 1123 q 346 1139 339 1136 q 367 1144 353 1143 q 405 1145 382 1145 q 450 1144 433 1145 q 476 1141 467 1143 q 489 1135 485 1139 q 498 1124 494 1131 l 559 1031 l 661 1123 q 675 1134 668 1129 q 694 1141 682 1138 q 724 1144 706 1143 q 770 1145 742 1145 q 807 1144 793 1145 q 825 1138 820 1142 q 827 1128 830 1135 q 814 1113 824 1122 l 654 968 m 108 878 z "},"Ċ":{"ha":720,"x_min":65,"x_max":777,"o":"m 777 793 q 770 742 777 774 q 754 691 764 710 q 732 671 744 671 q 711 683 723 671 q 679 707 699 694 q 629 731 659 720 q 553 742 598 742 q 461 722 503 742 q 387 669 420 702 q 330 593 355 636 q 290 505 306 551 q 266 413 274 458 q 258 328 258 367 q 270 244 258 280 q 304 184 282 208 q 359 149 327 161 q 433 137 392 137 q 515 147 481 137 q 573 170 549 157 q 613 192 597 182 q 642 202 629 202 q 654 196 651 202 q 657 178 657 189 q 656 163 657 173 q 652 142 654 154 q 648 116 650 130 q 642 91 645 102 q 634 69 638 79 q 622 52 629 59 q 593 32 614 44 q 540 10 571 20 q 469 -7 509 0 q 385 -14 430 -14 q 252 5 311 -14 q 151 65 193 25 q 87 165 110 105 q 65 307 65 226 q 78 438 65 370 q 117 571 91 506 q 183 694 143 636 q 278 797 223 753 q 402 866 332 840 q 556 892 471 892 q 646 882 604 892 q 720 856 688 872 q 764 826 751 840 q 777 793 777 813 m 489 1038 q 502 1078 494 1062 q 522 1105 509 1095 q 554 1119 535 1115 q 600 1124 573 1124 q 644 1119 627 1124 q 670 1105 661 1115 q 680 1078 679 1095 q 676 1038 681 1062 q 664 999 672 1015 q 644 972 656 983 q 612 958 631 962 q 566 954 593 954 q 522 958 538 954 q 496 972 505 962 q 486 999 487 983 q 489 1038 484 1015 m 275 878 z "},"Ç":{"ha":720,"x_min":66,"x_max":777,"o":"m 296 -5 q 163 55 214 11 q 90 162 113 99 q 66 307 66 225 q 79 438 66 370 q 118 571 92 506 q 184 694 144 636 q 279 797 224 753 q 403 866 334 840 q 557 892 473 892 q 647 882 605 892 q 721 856 690 872 q 765 826 753 840 q 777 793 777 813 q 771 742 777 774 q 755 691 765 710 q 733 671 745 671 q 712 683 724 671 q 680 707 700 694 q 630 731 661 720 q 554 742 600 742 q 463 722 504 742 q 389 669 421 702 q 332 593 356 636 q 291 505 307 551 q 268 413 275 458 q 260 328 260 367 q 272 244 260 280 q 306 184 283 208 q 361 149 328 161 q 434 137 393 137 q 516 147 482 137 q 575 170 551 157 q 615 192 599 182 q 642 202 632 202 q 655 196 652 202 q 659 178 659 189 q 657 163 659 173 q 654 142 656 154 q 649 116 652 130 q 643 91 646 102 q 635 69 640 79 q 623 52 631 59 q 592 31 616 44 q 528 5 569 18 q 432 -12 486 -7 l 441 -45 q 448 -77 445 -62 q 450 -106 450 -92 q 438 -170 450 -143 q 405 -214 427 -197 q 353 -239 383 -231 q 286 -248 323 -248 q 248 -246 267 -248 q 214 -242 230 -245 q 186 -235 198 -239 q 165 -228 174 -231 q 155 -219 158 -224 q 153 -206 153 -215 q 154 -187 153 -199 q 160 -163 156 -175 q 171 -141 164 -151 q 189 -132 178 -132 l 267 -132 q 285 -130 276 -132 q 300 -123 294 -127 q 310 -111 307 -119 q 314 -94 314 -104 q 313 -79 314 -87 q 310 -61 312 -70 l 296 -5 z "},"D":{"ha":876,"x_min":40,"x_max":861,"o":"m 861 560 q 856 474 861 519 q 839 381 851 429 q 807 288 827 334 q 758 199 787 241 q 687 120 728 157 q 592 57 646 83 q 471 15 538 30 q 311 0 404 0 l 88 0 q 67 3 77 0 q 51 12 58 5 q 42 29 45 18 q 43 56 40 40 l 197 821 q 220 864 202 851 q 264 878 239 878 l 475 878 q 650 857 580 878 q 767 797 720 837 q 838 697 814 757 q 861 560 861 638 m 674 539 q 663 618 674 582 q 625 682 651 655 q 559 723 600 708 q 451 738 519 738 l 358 738 l 238 141 l 332 141 q 451 158 403 141 q 537 206 500 176 q 600 276 574 236 q 643 359 626 315 q 667 450 659 404 q 674 539 674 496 z "},"Ď":{"ha":876,"x_min":40,"x_max":861,"o":"m 861 560 q 856 474 861 519 q 839 381 851 429 q 807 288 827 334 q 758 199 787 241 q 687 120 728 157 q 592 57 646 83 q 471 15 538 30 q 311 0 404 0 l 88 0 q 67 3 77 0 q 51 12 58 5 q 42 29 45 18 q 43 56 40 40 l 197 821 q 220 864 202 851 q 264 878 239 878 l 475 878 q 650 857 580 878 q 767 797 720 837 q 838 697 814 757 q 861 560 861 638 m 674 539 q 663 618 674 582 q 625 682 651 655 q 559 723 600 708 q 451 738 519 738 l 358 738 l 238 141 l 332 141 q 451 158 403 141 q 537 206 500 176 q 600 276 574 236 q 643 359 626 315 q 667 450 659 404 q 674 539 674 496 m 618 968 q 600 954 610 959 q 577 945 589 948 q 548 941 564 943 q 509 940 532 940 q 473 941 487 940 q 448 944 458 941 q 431 953 438 947 q 418 968 425 959 l 312 1113 q 304 1129 305 1123 q 311 1139 304 1136 q 332 1144 317 1143 q 370 1145 347 1145 q 415 1144 398 1145 q 440 1141 431 1143 q 454 1135 450 1139 q 463 1124 458 1131 l 524 1031 l 625 1123 q 640 1134 633 1129 q 659 1141 647 1138 q 689 1144 671 1143 q 735 1145 707 1145 q 771 1144 758 1145 q 790 1138 785 1142 q 792 1128 795 1135 q 779 1113 789 1122 l 618 968 m 73 878 z "},"Đ":{"ha":888,"x_min":32,"x_max":874,"o":"m 874 560 q 864 436 874 500 q 828 309 853 371 q 763 191 804 247 q 663 92 723 134 q 522 25 603 50 q 325 0 441 0 l 99 0 q 63 13 75 0 q 56 56 50 26 l 122 385 l 50 385 q 36 392 41 385 q 32 412 32 398 q 33 428 32 418 q 36 451 34 439 q 42 476 39 464 q 51 499 45 489 q 62 516 56 509 q 77 523 68 523 l 149 523 l 210 821 q 233 864 215 851 q 275 878 250 878 l 488 878 q 663 857 592 878 q 780 796 733 836 q 850 696 827 755 q 874 560 874 637 m 687 539 q 675 619 687 583 q 637 682 663 656 q 571 723 612 709 q 463 738 530 738 l 370 738 l 327 523 l 460 523 q 475 515 471 523 q 478 495 478 508 q 477 478 478 489 q 474 456 476 468 q 468 431 471 444 q 459 408 464 418 q 447 391 454 397 q 433 385 441 385 l 300 385 l 251 141 l 344 141 q 464 159 415 141 q 550 206 513 176 q 613 276 587 236 q 655 360 639 316 q 680 450 672 404 q 687 539 687 496 z "},"Ð":{"ha":888,"x_min":32,"x_max":874,"o":"m 874 560 q 864 436 874 500 q 828 309 853 371 q 763 191 804 247 q 663 92 723 134 q 522 25 603 50 q 325 0 441 0 l 99 0 q 63 13 75 0 q 56 56 50 26 l 122 385 l 50 385 q 36 392 41 385 q 32 412 32 398 q 33 428 32 418 q 36 451 34 439 q 42 476 39 464 q 51 499 45 489 q 62 516 56 509 q 77 523 68 523 l 149 523 l 210 821 q 233 864 215 851 q 275 878 250 878 l 488 878 q 663 857 592 878 q 780 796 733 836 q 850 696 827 755 q 874 560 874 637 m 687 539 q 675 619 687 583 q 637 682 663 656 q 571 723 612 709 q 463 738 530 738 l 370 738 l 327 523 l 460 523 q 475 515 471 523 q 478 495 478 508 q 477 478 478 489 q 474 456 476 468 q 468 431 471 444 q 459 408 464 418 q 447 391 454 397 q 433 385 441 385 l 300 385 l 251 141 l 344 141 q 464 159 415 141 q 550 206 513 176 q 613 276 587 236 q 655 360 639 316 q 680 450 672 404 q 687 539 687 496 z "},"E":{"ha":677,"x_min":41,"x_max":716,"o":"m 716 852 q 715 838 716 848 q 712 815 714 827 q 707 789 710 802 q 698 764 703 775 q 686 745 693 753 q 671 738 679 738 l 357 738 l 314 524 l 580 524 q 593 517 589 524 q 597 498 597 510 q 596 483 597 493 q 593 461 595 473 q 588 435 591 448 q 579 412 585 422 q 568 394 574 401 q 553 387 561 387 l 288 387 l 237 140 l 555 140 q 567 133 563 140 q 571 112 571 125 q 570 97 571 107 q 567 74 570 87 q 562 49 565 62 q 553 25 558 36 q 541 7 548 14 q 526 0 534 0 l 85 0 q 65 3 74 0 q 51 13 56 6 q 43 31 45 20 q 43 56 41 41 l 197 821 q 221 864 203 851 q 262 878 239 878 l 699 878 q 716 852 716 878 z "},"È":{"ha":677,"x_min":25,"x_max":716,"o":"m 716 852 q 715 838 716 848 q 712 815 714 827 q 707 789 710 802 q 698 764 703 775 q 686 745 693 753 q 671 738 679 738 l 357 738 l 314 524 l 580 524 q 593 517 589 524 q 597 498 597 510 q 596 483 597 493 q 593 461 595 473 q 588 435 591 448 q 579 412 585 422 q 568 394 574 401 q 553 387 561 387 l 288 387 l 237 140 l 555 140 q 567 133 563 140 q 571 112 571 125 q 570 97 571 107 q 567 74 570 87 q 562 49 565 62 q 553 25 558 36 q 541 7 548 14 q 526 0 534 0 l 85 0 q 65 3 74 0 q 51 13 56 6 q 43 31 45 20 q 43 56 41 41 l 197 821 q 221 864 203 851 q 262 878 239 878 l 699 878 q 716 852 716 878 m 544 976 q 553 960 551 966 q 548 948 555 953 q 528 942 542 944 q 492 940 514 940 q 456 941 471 940 q 432 946 442 943 q 415 953 422 949 q 401 964 408 958 l 256 1099 q 244 1116 247 1108 q 248 1131 241 1124 q 273 1141 255 1137 q 321 1145 290 1145 q 362 1144 346 1145 q 391 1140 379 1143 q 412 1131 404 1137 q 428 1114 420 1124 l 544 976 m 25 878 z "},"É":{"ha":677,"x_min":41,"x_max":728,"o":"m 716 852 q 715 838 716 848 q 712 815 714 827 q 707 789 710 802 q 698 764 703 775 q 686 745 693 753 q 671 738 679 738 l 357 738 l 314 524 l 580 524 q 593 517 589 524 q 597 498 597 510 q 596 483 597 493 q 593 461 595 473 q 588 435 591 448 q 579 412 585 422 q 568 394 574 401 q 553 387 561 387 l 288 387 l 237 140 l 555 140 q 567 133 563 140 q 571 112 571 125 q 570 97 571 107 q 567 74 570 87 q 562 49 565 62 q 553 25 558 36 q 541 7 548 14 q 526 0 534 0 l 85 0 q 65 3 74 0 q 51 13 56 6 q 43 31 45 20 q 43 56 41 41 l 197 821 q 221 864 203 851 q 262 878 239 878 l 699 878 q 716 852 716 878 m 553 964 q 539 953 546 958 q 522 946 532 949 q 497 942 512 943 q 462 940 483 940 q 405 949 416 940 q 412 976 395 958 l 541 1114 q 558 1130 549 1124 q 579 1139 567 1136 q 608 1144 591 1143 q 650 1145 625 1145 q 699 1141 682 1145 q 722 1131 715 1137 q 724 1116 728 1124 q 710 1099 720 1108 l 553 964 m 190 878 z "},"Ê":{"ha":677,"x_min":39,"x_max":724,"o":"m 716 852 q 715 838 716 848 q 712 815 714 827 q 707 789 710 802 q 698 764 703 775 q 686 745 693 753 q 671 738 679 738 l 357 738 l 314 524 l 580 524 q 593 517 589 524 q 597 498 597 510 q 596 483 597 493 q 593 461 595 473 q 588 435 591 448 q 579 412 585 422 q 568 394 574 401 q 553 387 561 387 l 288 387 l 237 140 l 555 140 q 567 133 563 140 q 571 112 571 125 q 570 97 571 107 q 567 74 570 87 q 562 49 565 62 q 553 25 558 36 q 541 7 548 14 q 526 0 534 0 l 85 0 q 65 3 74 0 q 51 13 56 6 q 43 31 45 20 q 43 56 41 41 l 197 821 q 221 864 203 851 q 262 878 239 878 l 699 878 q 716 852 716 878 m 716 972 q 723 957 722 963 q 717 946 724 950 q 696 941 710 943 q 659 940 682 940 q 613 941 630 940 q 587 944 597 942 q 573 951 577 947 q 564 961 568 955 l 503 1054 l 402 963 q 388 951 395 956 q 369 944 380 947 q 339 941 357 942 q 294 940 321 940 q 257 942 271 940 q 238 947 243 943 q 236 957 233 951 q 250 972 239 963 l 411 1118 q 430 1132 420 1126 q 452 1140 439 1137 q 480 1144 464 1143 q 519 1145 496 1145 q 556 1145 541 1145 q 580 1141 570 1144 q 597 1133 590 1139 q 611 1118 604 1127 l 716 972 m 39 878 z "},"Ě":{"ha":677,"x_min":31,"x_max":753,"o":"m 716 852 q 715 838 716 848 q 712 815 714 827 q 707 789 710 802 q 698 764 703 775 q 686 745 693 753 q 671 738 679 738 l 357 738 l 314 524 l 580 524 q 593 517 589 524 q 597 498 597 510 q 596 483 597 493 q 593 461 595 473 q 588 435 591 448 q 579 412 585 422 q 568 394 574 401 q 553 387 561 387 l 288 387 l 237 140 l 555 140 q 567 133 563 140 q 571 112 571 125 q 570 97 571 107 q 567 74 570 87 q 562 49 565 62 q 553 25 558 36 q 541 7 548 14 q 526 0 534 0 l 85 0 q 65 3 74 0 q 51 13 56 6 q 43 31 45 20 q 43 56 41 41 l 197 821 q 221 864 203 851 q 262 878 239 878 l 699 878 q 716 852 716 878 m 576 968 q 557 954 568 959 q 535 945 547 948 q 506 941 522 943 q 467 940 490 940 q 431 941 445 940 q 406 944 416 941 q 389 953 396 947 q 376 968 382 959 l 270 1113 q 262 1129 263 1123 q 269 1139 262 1136 q 290 1144 275 1143 q 328 1145 304 1145 q 373 1144 356 1145 q 398 1141 389 1143 q 412 1135 408 1139 q 420 1124 416 1131 l 482 1031 l 583 1123 q 598 1134 591 1129 q 617 1141 605 1138 q 647 1144 629 1143 q 693 1145 665 1145 q 729 1144 716 1145 q 748 1138 743 1142 q 750 1128 753 1135 q 737 1113 747 1122 l 576 968 m 31 878 z "},"Ë":{"ha":677,"x_min":41,"x_max":735,"o":"m 716 852 q 715 838 716 848 q 712 815 714 827 q 707 789 710 802 q 698 764 703 775 q 686 745 693 753 q 671 738 679 738 l 357 738 l 314 524 l 580 524 q 593 517 589 524 q 597 498 597 510 q 596 483 597 493 q 593 461 595 473 q 588 435 591 448 q 579 412 585 422 q 568 394 574 401 q 553 387 561 387 l 288 387 l 237 140 l 555 140 q 567 133 563 140 q 571 112 571 125 q 570 97 571 107 q 567 74 570 87 q 562 49 565 62 q 553 25 558 36 q 541 7 548 14 q 526 0 534 0 l 85 0 q 65 3 74 0 q 51 13 56 6 q 43 31 45 20 q 43 56 41 41 l 197 821 q 221 864 203 851 q 262 878 239 878 l 699 878 q 716 852 716 878 m 731 1036 q 719 997 727 1013 q 699 972 711 981 q 669 959 686 962 q 627 955 651 955 q 585 959 601 955 q 560 972 569 962 q 550 997 551 981 q 553 1036 549 1013 q 565 1078 557 1061 q 584 1105 572 1095 q 614 1119 596 1115 q 657 1123 631 1123 q 698 1119 682 1123 q 723 1105 714 1115 q 733 1078 732 1095 q 731 1036 735 1061 m 435 1036 q 423 997 431 1013 q 403 972 416 981 q 373 959 391 962 q 331 955 355 955 q 289 959 305 955 q 264 972 273 962 q 254 997 255 981 q 257 1036 252 1013 q 269 1078 261 1061 q 288 1105 276 1095 q 318 1119 300 1115 q 361 1123 336 1123 q 402 1119 386 1123 q 427 1105 418 1115 q 438 1078 436 1095 q 435 1036 439 1061 m 43 878 z "},"Ē":{"ha":677,"x_min":41,"x_max":722,"o":"m 716 852 q 715 838 716 848 q 712 815 714 827 q 707 789 710 802 q 698 764 703 775 q 686 745 693 753 q 671 738 679 738 l 357 738 l 314 524 l 580 524 q 593 517 589 524 q 597 498 597 510 q 596 483 597 493 q 593 461 595 473 q 588 435 591 448 q 579 412 585 422 q 568 394 574 401 q 553 387 561 387 l 288 387 l 237 140 l 555 140 q 567 133 563 140 q 571 112 571 125 q 570 97 571 107 q 567 74 570 87 q 562 49 565 62 q 553 25 558 36 q 541 7 548 14 q 526 0 534 0 l 85 0 q 65 3 74 0 q 51 13 56 6 q 43 31 45 20 q 43 56 41 41 l 197 821 q 221 864 203 851 q 262 878 239 878 l 699 878 q 716 852 716 878 m 722 1070 q 721 1055 722 1065 q 717 1035 720 1046 q 711 1013 715 1024 q 703 991 708 1001 q 691 976 698 982 q 677 970 685 970 l 277 970 q 260 977 264 970 q 255 997 255 983 q 256 1010 255 1001 q 259 1031 257 1020 q 264 1053 260 1042 q 273 1074 268 1065 q 286 1090 279 1084 q 302 1096 293 1096 l 703 1096 q 717 1089 713 1096 q 722 1070 722 1082 m 47 878 z "},"Ĕ":{"ha":677,"x_min":41,"x_max":716,"o":"m 716 852 q 715 838 716 848 q 712 815 714 827 q 707 789 710 802 q 698 764 703 775 q 686 745 693 753 q 671 738 679 738 l 357 738 l 314 524 l 580 524 q 593 517 589 524 q 597 498 597 510 q 596 483 597 493 q 593 461 595 473 q 588 435 591 448 q 579 412 585 422 q 568 394 574 401 q 553 387 561 387 l 288 387 l 237 140 l 555 140 q 567 133 563 140 q 571 112 571 125 q 570 97 571 107 q 567 74 570 87 q 562 49 565 62 q 553 25 558 36 q 541 7 548 14 q 526 0 534 0 l 85 0 q 65 3 74 0 q 51 13 56 6 q 43 31 45 20 q 43 56 41 41 l 197 821 q 221 864 203 851 q 262 878 239 878 l 699 878 q 716 852 716 878 m 711 1133 q 707 1108 711 1125 q 694 1070 704 1091 q 669 1025 685 1048 q 626 983 652 1002 q 564 952 600 964 q 477 940 527 940 q 390 951 425 940 q 335 980 356 962 q 306 1023 314 999 q 297 1074 297 1048 q 298 1092 297 1082 q 300 1112 298 1102 q 304 1129 301 1121 q 310 1139 307 1137 q 328 1148 315 1145 q 363 1151 341 1151 q 391 1149 380 1151 q 408 1145 402 1148 q 417 1139 414 1143 q 419 1130 419 1135 q 418 1117 419 1124 q 417 1103 417 1110 q 421 1080 417 1090 q 433 1063 425 1069 q 454 1052 441 1056 q 486 1048 467 1048 q 522 1053 505 1048 q 552 1066 538 1057 q 576 1090 566 1076 q 592 1125 586 1104 q 598 1137 594 1132 q 609 1145 602 1141 q 628 1149 616 1148 q 656 1151 640 1151 q 684 1149 673 1151 q 701 1146 695 1148 q 709 1140 707 1144 q 711 1133 711 1137 m 71 878 z "},"Ė":{"ha":677,"x_min":41,"x_max":716,"o":"m 716 852 q 715 838 716 848 q 712 815 714 827 q 707 789 710 802 q 698 764 703 775 q 686 745 693 753 q 671 738 679 738 l 357 738 l 314 524 l 580 524 q 593 517 589 524 q 597 498 597 510 q 596 483 597 493 q 593 461 595 473 q 588 435 591 448 q 579 412 585 422 q 568 394 574 401 q 553 387 561 387 l 288 387 l 237 140 l 555 140 q 567 133 563 140 q 571 112 571 125 q 570 97 571 107 q 567 74 570 87 q 562 49 565 62 q 553 25 558 36 q 541 7 548 14 q 526 0 534 0 l 85 0 q 65 3 74 0 q 51 13 56 6 q 43 31 45 20 q 43 56 41 41 l 197 821 q 221 864 203 851 q 262 878 239 878 l 699 878 q 716 852 716 878 m 403 1038 q 415 1078 408 1062 q 436 1105 423 1095 q 468 1119 449 1115 q 514 1124 487 1124 q 558 1119 541 1124 q 584 1105 575 1115 q 594 1078 593 1095 q 590 1038 595 1062 q 578 999 586 1015 q 557 972 570 983 q 526 958 545 962 q 479 954 507 954 q 435 958 452 954 q 410 972 418 962 q 399 999 401 983 q 403 1038 398 1015 m 189 878 z "},"Ę":{"ha":677,"x_min":41,"x_max":716,"o":"m 541 -148 q 539 -166 541 -155 q 534 -188 537 -177 q 527 -208 531 -199 q 520 -220 524 -217 q 501 -231 515 -227 q 470 -240 488 -236 q 433 -245 452 -243 q 396 -248 413 -248 q 333 -241 360 -248 q 287 -222 305 -235 q 258 -192 268 -210 q 249 -151 249 -174 q 252 -123 249 -137 q 264 -95 256 -109 q 284 -67 272 -81 q 315 -37 297 -52 l 359 0 l 85 0 q 65 3 75 0 q 51 13 56 6 q 43 31 45 20 q 43 56 41 41 l 197 821 q 221 864 203 851 q 261 878 239 878 l 699 878 q 712 870 708 878 q 716 850 716 863 q 715 836 716 846 q 712 813 714 826 q 706 788 709 801 q 697 763 703 774 q 686 745 692 752 q 670 738 679 738 l 357 738 l 314 524 l 580 524 q 593 517 589 524 q 597 498 597 510 q 596 483 597 493 q 593 461 595 473 q 588 436 591 449 q 579 412 585 422 q 568 394 574 401 q 552 387 561 387 l 288 387 l 237 140 l 554 140 q 567 133 563 140 q 571 111 571 125 q 570 90 571 104 q 565 59 568 75 q 554 26 561 42 q 536 2 547 11 l 458 -62 q 434 -89 440 -77 q 427 -109 427 -100 q 434 -126 427 -119 q 463 -132 441 -132 l 522 -132 q 536 -135 531 -132 q 541 -148 541 -138 z "},"F":{"ha":637,"x_min":36,"x_max":690,"o":"m 690 849 q 689 834 690 845 q 686 811 688 824 q 680 784 684 798 q 672 759 677 770 q 660 739 667 747 q 644 732 653 732 l 357 732 l 310 496 l 580 496 q 593 488 589 496 q 597 469 597 481 q 596 453 597 464 q 592 430 595 443 q 586 404 590 418 q 577 379 583 390 q 566 360 572 368 q 550 353 559 353 l 282 353 l 217 25 q 210 12 216 18 q 194 3 205 7 q 165 -2 182 0 q 121 -4 147 -4 q 78 -2 95 -4 q 52 3 62 0 q 39 12 43 7 q 38 25 36 18 l 197 821 q 221 864 203 851 q 262 878 239 878 l 673 878 q 687 870 684 878 q 690 849 690 863 z "},"G":{"ha":885,"x_min":63,"x_max":890,"o":"m 890 784 q 889 766 890 777 q 885 743 888 755 q 880 718 883 730 q 871 695 876 705 q 861 679 867 685 q 849 672 855 672 q 821 684 839 672 q 773 709 802 695 q 702 735 744 724 q 602 747 660 747 q 496 730 545 747 q 409 685 448 713 q 339 617 369 656 q 288 533 309 578 q 257 440 267 488 q 247 345 247 392 q 262 254 247 293 q 305 188 277 214 q 373 148 333 161 q 463 134 413 134 q 528 141 496 134 q 589 161 561 148 l 629 364 l 464 364 q 451 371 456 364 q 446 391 446 377 q 448 409 446 398 q 451 432 449 420 q 457 456 454 444 q 466 477 460 468 q 477 493 471 487 q 490 499 483 499 l 787 499 q 819 484 809 499 q 823 442 828 469 l 752 91 q 745 69 749 78 q 734 52 741 60 q 700 33 727 44 q 634 11 673 22 q 547 -7 595 0 q 448 -15 498 -15 q 282 7 354 -15 q 162 72 210 28 q 88 177 113 115 q 63 321 63 239 q 79 465 63 394 q 126 598 95 535 q 204 716 158 662 q 312 809 251 770 q 449 870 374 848 q 614 892 524 892 q 707 885 663 892 q 786 866 751 877 q 845 842 821 854 q 877 822 869 829 q 887 806 884 814 q 890 784 890 797 z "},"Ĝ":{"ha":885,"x_min":63,"x_max":890,"o":"m 890 784 q 889 766 890 777 q 885 743 888 755 q 880 718 883 730 q 871 695 876 705 q 861 679 867 685 q 849 672 855 672 q 821 684 839 672 q 773 709 802 695 q 702 735 744 724 q 602 747 660 747 q 496 730 545 747 q 409 685 448 713 q 339 617 369 656 q 288 533 309 578 q 257 440 267 488 q 247 345 247 392 q 262 254 247 293 q 305 188 277 214 q 373 148 333 161 q 463 134 413 134 q 528 141 496 134 q 589 161 561 148 l 629 364 l 464 364 q 451 371 456 364 q 446 391 446 377 q 448 409 446 398 q 451 432 449 420 q 457 456 454 444 q 466 477 460 468 q 477 493 471 487 q 490 499 483 499 l 787 499 q 819 484 809 499 q 823 442 828 469 l 752 91 q 745 69 749 78 q 734 52 741 60 q 700 33 727 44 q 634 11 673 22 q 547 -7 595 0 q 448 -15 498 -15 q 282 7 354 -15 q 162 72 210 28 q 88 177 113 115 q 63 321 63 239 q 79 465 63 394 q 126 598 95 535 q 204 716 158 662 q 312 809 251 770 q 449 870 374 848 q 614 892 524 892 q 707 885 663 892 q 786 866 751 877 q 845 842 821 854 q 877 822 869 829 q 887 806 884 814 q 890 784 890 797 m 829 972 q 836 957 835 963 q 829 946 836 950 q 808 941 823 943 q 771 940 794 940 q 726 941 743 940 q 700 944 709 942 q 685 951 690 947 q 677 961 681 955 l 616 1054 l 515 963 q 500 951 507 956 q 481 944 493 947 q 452 941 470 942 q 406 940 434 940 q 370 942 383 940 q 351 947 356 943 q 349 957 346 951 q 362 972 352 963 l 524 1118 q 542 1132 532 1126 q 564 1140 552 1137 q 593 1144 576 1143 q 632 1145 609 1145 q 668 1145 654 1145 q 693 1141 683 1144 q 710 1133 703 1139 q 724 1118 717 1127 l 829 972 m 151 878 z "},"Ğ":{"ha":885,"x_min":63,"x_max":890,"o":"m 890 784 q 889 766 890 777 q 885 743 888 755 q 880 718 883 730 q 871 695 876 705 q 861 679 867 685 q 849 672 855 672 q 821 684 839 672 q 773 709 802 695 q 702 735 744 724 q 602 747 660 747 q 496 730 545 747 q 409 685 448 713 q 339 617 369 656 q 288 533 309 578 q 257 440 267 488 q 247 345 247 392 q 262 254 247 293 q 305 188 277 214 q 373 148 333 161 q 463 134 413 134 q 528 141 496 134 q 589 161 561 148 l 629 364 l 464 364 q 451 371 456 364 q 446 391 446 377 q 448 409 446 398 q 451 432 449 420 q 457 456 454 444 q 466 477 460 468 q 477 493 471 487 q 490 499 483 499 l 787 499 q 819 484 809 499 q 823 442 828 469 l 752 91 q 745 69 749 78 q 734 52 741 60 q 700 33 727 44 q 634 11 673 22 q 547 -7 595 0 q 448 -15 498 -15 q 282 7 354 -15 q 162 72 210 28 q 88 177 113 115 q 63 321 63 239 q 79 465 63 394 q 126 598 95 535 q 204 716 158 662 q 312 809 251 770 q 449 870 374 848 q 614 892 524 892 q 707 885 663 892 q 786 866 751 877 q 845 842 821 854 q 877 822 869 829 q 887 806 884 814 q 890 784 890 797 m 831 1133 q 828 1108 831 1125 q 815 1070 825 1091 q 789 1025 806 1048 q 747 983 773 1002 q 684 952 721 964 q 597 940 648 940 q 511 951 545 940 q 456 980 477 962 q 426 1023 435 999 q 418 1074 418 1048 q 418 1092 418 1082 q 420 1112 419 1102 q 425 1129 422 1121 q 431 1139 427 1137 q 449 1148 436 1145 q 484 1151 462 1151 q 512 1149 501 1151 q 529 1145 523 1148 q 537 1139 535 1143 q 540 1130 540 1135 q 539 1117 540 1124 q 538 1103 538 1110 q 542 1080 538 1090 q 553 1063 545 1069 q 575 1052 562 1056 q 607 1048 588 1048 q 643 1053 626 1048 q 673 1066 659 1057 q 696 1090 686 1076 q 713 1125 707 1104 q 719 1137 715 1132 q 730 1145 723 1141 q 749 1149 737 1148 q 777 1151 760 1151 q 805 1149 794 1151 q 822 1146 816 1148 q 829 1140 827 1144 q 831 1133 831 1137 m 192 878 z "},"Ġ":{"ha":885,"x_min":63,"x_max":890,"o":"m 890 784 q 889 766 890 777 q 885 743 888 755 q 880 718 883 730 q 871 695 876 705 q 861 679 867 685 q 849 672 855 672 q 821 684 839 672 q 773 709 802 695 q 702 735 744 724 q 602 747 660 747 q 496 730 545 747 q 409 685 448 713 q 339 617 369 656 q 288 533 309 578 q 257 440 267 488 q 247 345 247 392 q 262 254 247 293 q 305 188 277 214 q 373 148 333 161 q 463 134 413 134 q 528 141 496 134 q 589 161 561 148 l 629 364 l 464 364 q 451 371 456 364 q 446 391 446 377 q 448 409 446 398 q 451 432 449 420 q 457 456 454 444 q 466 477 460 468 q 477 493 471 487 q 490 499 483 499 l 787 499 q 819 484 809 499 q 823 442 828 469 l 752 91 q 745 69 749 78 q 734 52 741 60 q 700 33 727 44 q 634 11 673 22 q 547 -7 595 0 q 448 -15 498 -15 q 282 7 354 -15 q 162 72 210 28 q 88 177 113 115 q 63 321 63 239 q 79 465 63 394 q 126 598 95 535 q 204 716 158 662 q 312 809 251 770 q 449 870 374 848 q 614 892 524 892 q 707 885 663 892 q 786 866 751 877 q 845 842 821 854 q 877 822 869 829 q 887 806 884 814 q 890 784 890 797 m 530 1038 q 543 1078 535 1062 q 564 1105 551 1095 q 595 1119 576 1115 q 642 1124 614 1124 q 686 1119 669 1124 q 711 1105 703 1115 q 721 1078 720 1095 q 718 1038 722 1062 q 706 999 713 1015 q 685 972 698 983 q 653 958 672 962 q 607 954 634 954 q 563 958 580 954 q 537 972 546 962 q 527 999 528 983 q 530 1038 526 1015 m 317 878 z "},"Ģ":{"ha":885,"x_min":63,"x_max":890,"o":"m 890 784 q 889 766 890 777 q 885 743 888 755 q 880 718 883 730 q 871 695 876 705 q 861 679 867 685 q 849 672 855 672 q 821 684 839 672 q 773 709 802 695 q 702 735 744 724 q 602 747 660 747 q 496 730 545 747 q 409 685 448 713 q 339 617 369 656 q 288 533 309 578 q 257 440 267 488 q 247 345 247 392 q 262 254 247 293 q 305 188 277 214 q 373 148 333 161 q 463 134 413 134 q 528 141 496 134 q 589 161 561 148 l 629 364 l 464 364 q 451 371 456 364 q 446 391 446 377 q 448 409 446 398 q 451 432 449 420 q 457 456 454 444 q 466 477 460 468 q 477 493 471 487 q 490 499 483 499 l 787 499 q 819 484 809 499 q 823 442 828 469 l 752 91 q 745 69 749 78 q 734 52 741 60 q 700 33 727 44 q 634 11 673 22 q 547 -7 595 0 q 448 -15 498 -15 q 282 7 354 -15 q 162 72 210 28 q 88 177 113 115 q 63 321 63 239 q 79 465 63 394 q 126 598 95 535 q 204 716 158 662 q 312 809 251 770 q 449 870 374 848 q 614 892 524 892 q 707 885 663 892 q 786 866 751 877 q 845 842 821 854 q 877 822 869 829 q 887 806 884 814 q 890 784 890 797 m 369 -224 q 359 -235 364 -231 q 345 -242 354 -239 q 322 -247 336 -245 q 286 -248 308 -248 q 253 -246 265 -248 q 236 -240 241 -244 q 231 -229 231 -235 q 236 -212 231 -222 l 296 -83 q 305 -70 299 -76 q 322 -61 311 -64 q 351 -56 333 -58 q 396 -55 369 -55 q 438 -58 423 -55 q 460 -65 454 -60 q 465 -78 466 -71 q 456 -95 463 -85 l 369 -224 z "},"H":{"ha":876,"x_min":35,"x_max":889,"o":"m 722 24 q 715 12 720 17 q 699 3 709 6 q 670 -2 688 -1 q 627 -4 652 -4 q 584 -2 601 -4 q 558 3 567 -1 q 545 12 549 6 q 544 24 542 17 l 614 379 l 286 379 l 216 24 q 209 12 214 17 q 192 3 203 6 q 164 -2 181 -1 q 121 -4 146 -4 q 78 -2 94 -4 q 52 3 61 -1 q 39 12 42 6 q 37 24 35 17 l 203 854 q 210 866 204 861 q 226 875 215 871 q 254 880 237 878 q 298 882 272 882 q 340 880 323 882 q 367 875 357 878 q 379 866 376 871 q 381 854 382 861 l 317 531 l 646 531 l 709 854 q 716 866 711 861 q 732 875 722 871 q 761 880 743 878 q 804 882 779 882 q 847 880 830 882 q 873 875 864 878 q 886 866 883 871 q 888 854 889 861 l 722 24 z "},"Ĥ":{"ha":876,"x_min":35,"x_max":889,"o":"m 722 24 q 715 12 720 17 q 699 3 709 6 q 670 -2 688 -1 q 627 -4 652 -4 q 584 -2 601 -4 q 558 3 567 -1 q 545 12 549 6 q 544 24 542 17 l 614 379 l 286 379 l 216 24 q 209 12 214 17 q 192 3 203 6 q 164 -2 181 -1 q 121 -4 146 -4 q 78 -2 94 -4 q 52 3 61 -1 q 39 12 42 6 q 37 24 35 17 l 203 854 q 210 866 204 861 q 226 875 215 871 q 254 880 237 878 q 298 882 272 882 q 340 880 323 882 q 367 875 357 878 q 379 866 376 871 q 381 854 382 861 l 317 531 l 646 531 l 709 854 q 716 866 711 861 q 732 875 722 871 q 761 880 743 878 q 804 882 779 882 q 847 880 830 882 q 873 875 864 878 q 886 866 883 871 q 888 854 889 861 l 722 24 m 790 972 q 797 957 796 963 q 791 946 798 950 q 770 941 784 943 q 732 940 755 940 q 687 941 704 940 q 661 944 671 942 q 647 951 651 947 q 638 961 642 955 l 577 1054 l 476 963 q 461 951 469 956 q 443 944 454 947 q 413 941 431 942 q 368 940 395 940 q 331 942 345 940 q 312 947 317 943 q 310 957 307 951 q 323 972 313 963 l 485 1118 q 504 1132 494 1126 q 526 1140 513 1137 q 554 1144 538 1143 q 593 1145 570 1145 q 630 1145 615 1145 q 654 1141 644 1144 q 671 1133 664 1139 q 685 1118 678 1127 l 790 972 m 113 878 z "},"Ħ":{"ha":913,"x_min":55,"x_max":981,"o":"m 353 615 l 328 495 l 656 495 l 681 615 l 353 615 m 884 741 l 964 741 q 977 735 973 741 q 981 718 981 729 q 980 703 981 712 q 977 682 979 693 q 971 658 975 670 q 963 637 968 646 q 952 621 958 627 q 937 615 945 615 l 859 615 l 741 23 q 734 11 739 16 q 718 3 728 6 q 690 -2 707 -1 q 646 -4 672 -4 q 604 -2 621 -4 q 577 3 587 -1 q 564 11 568 6 q 563 23 561 16 l 629 355 l 300 355 l 235 23 q 228 11 233 16 q 212 3 222 6 q 183 -2 201 -1 q 140 -4 166 -4 q 97 -2 114 -4 q 71 3 80 -1 q 58 11 61 6 q 56 23 55 16 l 175 615 l 97 615 q 83 622 87 615 q 79 644 79 629 q 81 668 79 652 q 89 701 83 685 q 102 729 94 718 q 122 741 110 741 l 199 741 l 222 854 q 229 866 224 861 q 245 875 235 871 q 274 880 256 878 q 317 882 292 882 q 360 880 343 882 q 387 875 377 878 q 399 866 396 871 q 401 854 402 861 l 378 741 l 706 741 l 728 854 q 735 866 730 861 q 751 875 741 871 q 780 880 762 878 q 824 882 798 882 q 866 880 849 882 q 892 875 883 878 q 905 866 902 871 q 907 854 908 861 l 884 741 z "},"I":{"ha":370,"x_min":35,"x_max":383,"o":"m 216 24 q 210 12 215 17 q 193 3 204 6 q 164 -2 182 -1 q 121 -4 146 -4 q 78 -2 94 -4 q 52 3 61 -1 q 39 12 42 6 q 37 24 35 17 l 203 854 q 210 866 204 861 q 227 875 216 871 q 255 880 238 878 q 298 882 273 882 q 341 880 324 882 q 367 875 357 878 q 380 866 377 871 q 382 854 383 861 l 216 24 z "},"Ì":{"ha":370,"x_min":-144,"x_max":385,"o":"m 216 24 q 210 12 215 17 q 193 3 204 6 q 164 -2 182 -1 q 121 -4 146 -4 q 78 -2 94 -4 q 52 3 61 -1 q 39 12 42 6 q 37 24 35 17 l 203 854 q 210 866 204 861 q 227 875 216 871 q 255 880 238 878 q 298 882 273 882 q 341 880 324 882 q 367 875 357 878 q 380 866 377 871 q 382 854 383 861 l 216 24 m 374 976 q 384 960 382 966 q 379 948 385 953 q 358 942 372 944 q 322 940 345 940 q 287 941 301 940 q 263 946 273 943 q 246 953 253 949 q 232 964 239 958 l 87 1099 q 75 1116 77 1108 q 79 1131 72 1124 q 103 1141 85 1137 q 151 1145 121 1145 q 193 1144 176 1145 q 222 1140 210 1143 q 242 1131 234 1137 q 258 1114 250 1124 l 374 976 m -144 878 z "},"Í":{"ha":370,"x_min":19,"x_max":557,"o":"m 216 24 q 210 12 215 17 q 193 3 204 6 q 164 -2 182 -1 q 121 -4 146 -4 q 78 -2 94 -4 q 52 3 61 -1 q 39 12 42 6 q 37 24 35 17 l 203 854 q 210 866 204 861 q 227 875 216 871 q 255 880 238 878 q 298 882 273 882 q 341 880 324 882 q 367 875 357 878 q 380 866 377 871 q 382 854 383 861 l 216 24 m 382 964 q 368 953 375 958 q 351 946 361 949 q 327 942 341 943 q 291 940 312 940 q 234 949 245 940 q 241 976 224 958 l 370 1114 q 387 1130 378 1124 q 408 1139 396 1136 q 437 1144 420 1143 q 479 1145 454 1145 q 528 1141 511 1145 q 551 1131 545 1137 q 553 1116 557 1124 q 539 1099 549 1108 l 382 964 m 19 878 z "},"Î":{"ha":370,"x_min":-127,"x_max":557,"o":"m 216 24 q 210 12 215 17 q 193 3 204 6 q 164 -2 182 -1 q 121 -4 146 -4 q 78 -2 94 -4 q 52 3 61 -1 q 39 12 42 6 q 37 24 35 17 l 203 854 q 210 866 204 861 q 227 875 216 871 q 255 880 238 878 q 298 882 273 882 q 341 880 324 882 q 367 875 357 878 q 380 866 377 871 q 382 854 383 861 l 216 24 m 550 972 q 557 957 556 963 q 551 946 557 950 q 530 941 544 943 q 492 940 515 940 q 447 941 464 940 q 421 944 431 942 q 407 951 411 947 q 398 961 402 955 l 337 1054 l 236 963 q 221 951 229 956 q 203 944 214 947 q 173 941 191 942 q 127 940 155 940 q 91 942 104 940 q 72 947 77 943 q 70 957 67 951 q 83 972 73 963 l 245 1118 q 263 1132 254 1126 q 286 1140 273 1137 q 314 1144 298 1143 q 353 1145 330 1145 q 390 1145 375 1145 q 414 1141 404 1144 q 431 1133 424 1139 q 445 1118 438 1127 l 550 972 m -127 878 z "},"Ĩ":{"ha":370,"x_min":-128,"x_max":576,"o":"m 216 24 q 210 12 215 17 q 193 3 204 6 q 164 -2 182 -1 q 121 -4 146 -4 q 78 -2 94 -4 q 52 3 61 -1 q 39 12 42 6 q 37 24 35 17 l 203 854 q 210 866 204 861 q 227 875 216 871 q 255 880 238 878 q 298 882 273 882 q 341 880 324 882 q 367 875 357 878 q 380 866 377 871 q 382 854 383 861 l 216 24 m 472 1109 q 476 1118 473 1115 q 485 1124 479 1122 q 502 1126 492 1126 q 528 1127 513 1127 q 567 1123 557 1127 q 576 1109 576 1118 q 575 1093 576 1106 q 569 1060 574 1079 q 554 1021 564 1042 q 526 983 544 1000 q 481 954 508 965 q 415 942 454 942 q 353 952 379 942 q 306 976 327 963 q 267 999 285 988 q 229 1009 249 1009 q 194 996 205 1009 q 180 960 182 983 q 176 951 179 954 q 166 946 173 947 q 150 943 160 944 q 125 942 140 942 q 85 946 95 942 q 75 961 75 950 q 76 982 75 967 q 84 1015 78 997 q 101 1053 90 1034 q 130 1089 112 1073 q 174 1117 148 1106 q 237 1127 200 1127 q 299 1117 273 1127 q 346 1093 326 1106 q 385 1070 367 1080 q 423 1059 404 1059 q 456 1070 444 1059 q 472 1109 469 1082 m -128 878 z "},"Ï":{"ha":370,"x_min":-122,"x_max":570,"o":"m 216 24 q 210 12 215 17 q 193 3 204 6 q 164 -2 182 -1 q 121 -4 146 -4 q 78 -2 94 -4 q 52 3 61 -1 q 39 12 42 6 q 37 24 35 17 l 203 854 q 210 866 204 861 q 227 875 216 871 q 255 880 238 878 q 298 882 273 882 q 341 880 324 882 q 367 875 357 878 q 380 866 377 871 q 382 854 383 861 l 216 24 m 566 1036 q 554 997 562 1013 q 534 972 547 981 q 504 959 522 962 q 462 955 486 955 q 420 959 436 955 q 395 972 404 962 q 385 997 387 981 q 388 1036 384 1013 q 400 1078 393 1061 q 419 1105 407 1095 q 449 1119 431 1115 q 492 1123 467 1123 q 533 1119 517 1123 q 558 1105 549 1115 q 569 1078 567 1095 q 566 1036 570 1061 m 270 1036 q 258 997 266 1013 q 238 972 251 981 q 208 959 226 962 q 166 955 190 955 q 124 959 140 955 q 99 972 108 962 q 89 997 90 981 q 92 1036 87 1013 q 104 1078 96 1061 q 123 1105 111 1095 q 153 1119 135 1115 q 197 1123 171 1123 q 237 1119 221 1123 q 262 1105 253 1115 q 273 1078 271 1095 q 270 1036 275 1061 m -122 878 z "},"Ī":{"ha":370,"x_min":-115,"x_max":559,"o":"m 216 24 q 210 12 215 17 q 193 3 204 6 q 164 -2 182 -1 q 121 -4 146 -4 q 78 -2 94 -4 q 52 3 61 -1 q 39 12 42 6 q 37 24 35 17 l 203 854 q 210 866 204 861 q 227 875 216 871 q 255 880 238 878 q 298 882 273 882 q 341 880 324 882 q 367 875 357 878 q 380 866 377 871 q 382 854 383 861 l 216 24 m 559 1070 q 558 1055 559 1065 q 555 1035 557 1046 q 549 1013 553 1024 q 541 991 546 1001 q 529 976 536 982 q 515 970 523 970 l 115 970 q 98 977 102 970 q 93 997 93 983 q 94 1010 93 1001 q 97 1031 95 1020 q 102 1053 98 1042 q 111 1074 106 1065 q 124 1090 117 1084 q 140 1096 131 1096 l 541 1096 q 555 1089 551 1096 q 559 1070 559 1082 m -115 878 z "},"Ĭ":{"ha":370,"x_min":-90,"x_max":550,"o":"m 216 24 q 210 12 215 17 q 193 3 204 6 q 164 -2 182 -1 q 121 -4 146 -4 q 78 -2 94 -4 q 52 3 61 -1 q 39 12 42 6 q 37 24 35 17 l 203 854 q 210 866 204 861 q 227 875 216 871 q 255 880 238 878 q 298 882 273 882 q 341 880 324 882 q 367 875 357 878 q 380 866 377 871 q 382 854 383 861 l 216 24 m 550 1133 q 547 1108 550 1125 q 534 1070 543 1091 q 508 1025 524 1048 q 466 983 492 1002 q 403 952 439 964 q 316 940 366 940 q 230 951 264 940 q 174 980 195 962 q 145 1023 153 999 q 136 1074 136 1048 q 137 1092 136 1082 q 139 1112 138 1102 q 143 1129 140 1121 q 149 1139 146 1137 q 168 1148 155 1145 q 203 1151 180 1151 q 231 1149 220 1151 q 248 1145 241 1148 q 256 1139 254 1143 q 258 1130 258 1135 q 257 1117 258 1124 q 256 1103 256 1110 q 260 1080 256 1090 q 272 1063 264 1069 q 293 1052 280 1056 q 326 1048 307 1048 q 361 1053 345 1048 q 391 1066 378 1057 q 415 1090 405 1076 q 431 1125 425 1104 q 437 1137 433 1132 q 449 1145 441 1141 q 467 1149 456 1148 q 496 1151 479 1151 q 524 1149 513 1151 q 540 1146 534 1148 q 548 1140 546 1144 q 550 1133 550 1137 m -90 878 z "},"İ":{"ha":370,"x_min":20,"x_max":425,"o":"m 216 24 q 210 12 215 17 q 193 3 204 6 q 164 -2 182 -1 q 121 -4 146 -4 q 78 -2 94 -4 q 52 3 61 -1 q 39 12 42 6 q 37 24 35 17 l 203 854 q 210 866 204 861 q 227 875 216 871 q 255 880 238 878 q 298 882 273 882 q 341 880 324 882 q 367 875 357 878 q 380 866 377 871 q 382 854 383 861 l 216 24 m 233 1038 q 246 1078 238 1062 q 267 1105 254 1095 q 298 1119 279 1115 q 345 1124 317 1124 q 389 1119 372 1124 q 414 1105 406 1115 q 424 1078 423 1095 q 420 1038 425 1062 q 409 999 416 1015 q 388 972 401 983 q 356 958 375 962 q 310 954 337 954 q 266 958 283 954 q 240 972 249 962 q 230 999 231 983 q 233 1038 229 1015 m 20 878 z "},"Į":{"ha":370,"x_min":-71,"x_max":384,"o":"m 218 -149 q 217 -167 218 -156 q 212 -188 215 -178 q 206 -208 210 -199 q 198 -220 202 -216 q 181 -230 193 -225 q 153 -239 170 -235 q 117 -245 136 -243 q 76 -248 97 -248 q 11 -241 38 -248 q -35 -222 -17 -235 q -62 -191 -54 -209 q -71 -149 -71 -172 q -68 -119 -71 -134 q -56 -91 -64 -105 q -34 -62 -47 -77 q 0 -31 -20 -47 l 40 3 q 36 10 37 5 q 37 21 35 15 l 203 854 q 210 866 204 861 q 227 875 216 871 q 256 880 238 878 q 299 882 273 882 q 341 880 325 882 q 368 875 358 878 q 380 866 377 871 q 382 854 384 861 l 216 21 q 209 3 214 12 q 195 -13 204 -5 l 140 -60 q 112 -87 119 -76 q 104 -109 104 -99 q 112 -126 104 -119 q 140 -132 121 -132 l 199 -132 q 214 -136 209 -132 q 218 -149 218 -140 z "},"Ĳ":{"ha":831,"x_min":35,"x_max":846,"o":"m 216 24 q 210 12 215 17 q 193 3 204 6 q 164 -2 182 -1 q 121 -4 146 -4 q 78 -2 94 -4 q 52 3 61 -1 q 39 12 42 6 q 37 24 35 17 l 203 854 q 210 866 204 861 q 227 875 216 871 q 255 880 238 878 q 298 882 273 882 q 341 880 324 882 q 367 875 357 878 q 380 866 377 871 q 382 854 383 861 l 216 24 m 720 233 q 689 132 709 178 q 638 54 669 86 q 562 4 606 22 q 457 -14 517 -14 q 396 -9 425 -14 q 349 4 368 -4 q 325 19 330 12 q 320 39 320 26 q 321 56 320 45 q 326 82 323 68 q 332 112 328 96 q 340 139 336 127 q 351 160 345 152 q 361 168 356 168 q 377 163 370 168 q 393 154 384 159 q 415 145 402 149 q 447 140 427 140 q 483 146 467 140 q 510 164 498 152 q 529 197 521 177 q 543 245 537 216 l 665 854 q 672 866 667 861 q 688 875 677 871 q 717 880 699 878 q 760 882 734 882 q 802 880 785 882 q 828 876 819 879 q 842 867 838 872 q 844 854 846 862 l 720 233 z "},"J":{"ha":460,"x_min":-51,"x_max":475,"o":"m 349 233 q 318 132 338 178 q 267 54 298 86 q 191 4 235 22 q 86 -14 146 -14 q 25 -9 54 -14 q -22 4 -3 -4 q -46 19 -41 12 q -51 39 -51 26 q -50 56 -51 45 q -45 82 -48 68 q -39 112 -43 96 q -31 139 -35 127 q -20 160 -26 152 q -9 168 -15 168 q 6 163 -1 168 q 22 154 13 159 q 44 145 31 149 q 76 140 56 140 q 112 146 96 140 q 139 164 127 152 q 158 197 150 177 q 172 245 166 216 l 294 854 q 301 866 296 861 q 317 875 306 871 q 346 880 328 878 q 389 882 363 882 q 431 880 414 882 q 457 876 448 879 q 471 867 467 872 q 473 854 475 862 l 349 233 z "},"Ĵ":{"ha":460,"x_min":-57,"x_max":628,"o":"m 349 233 q 318 132 338 178 q 267 54 298 86 q 191 4 235 22 q 86 -14 146 -14 q 25 -9 54 -14 q -22 4 -3 -4 q -46 19 -41 12 q -51 39 -51 26 q -50 56 -51 45 q -45 82 -48 68 q -39 112 -43 96 q -31 139 -35 127 q -20 160 -26 152 q -9 168 -15 168 q 6 163 -1 168 q 22 154 13 159 q 44 145 31 149 q 76 140 56 140 q 112 146 96 140 q 139 164 127 152 q 158 197 150 177 q 172 245 166 216 l 294 854 q 301 866 296 861 q 317 875 306 871 q 346 880 328 878 q 389 882 363 882 q 431 880 414 882 q 457 876 448 879 q 471 867 467 872 q 473 854 475 862 l 349 233 m 621 972 q 627 957 627 963 q 621 946 628 950 q 600 941 614 943 q 563 940 586 940 q 518 941 534 940 q 491 944 501 942 q 477 951 481 947 q 469 961 473 955 l 408 1054 l 307 963 q 292 951 299 956 q 273 944 285 947 q 244 941 262 942 q 198 940 226 940 q 161 942 175 940 q 143 947 148 943 q 141 957 138 951 q 154 972 144 963 l 315 1118 q 334 1132 324 1126 q 356 1140 344 1137 q 385 1144 368 1143 q 424 1145 401 1145 q 460 1145 446 1145 q 485 1141 475 1144 q 502 1133 494 1139 q 515 1118 509 1127 l 621 972 m -57 878 z "},"K":{"ha":760,"x_min":36,"x_max":829,"o":"m 829 853 q 821 827 829 841 q 792 792 812 814 l 481 463 l 666 72 q 674 48 671 58 q 677 31 677 39 q 672 15 677 21 q 657 4 668 8 q 628 -2 646 0 q 581 -4 609 -4 q 534 -2 552 -4 q 507 3 517 -1 q 492 12 496 6 q 484 26 487 18 l 298 442 l 216 24 q 210 12 215 17 q 193 3 204 7 q 164 -2 182 -1 q 121 -4 147 -4 q 78 -2 95 -4 q 52 3 62 -1 q 39 12 43 7 q 38 24 36 17 l 203 854 q 210 866 204 861 q 226 875 215 871 q 255 880 237 878 q 298 882 272 882 q 341 880 324 882 q 367 875 357 878 q 380 866 376 871 q 382 854 383 861 l 307 479 l 633 851 q 647 865 640 859 q 667 875 655 871 q 697 880 680 878 q 741 882 715 882 q 786 880 768 882 q 812 874 803 878 q 826 866 822 871 q 829 853 829 861 z "},"Ķ":{"ha":760,"x_min":36,"x_max":829,"o":"m 829 853 q 821 827 829 841 q 792 792 812 814 l 481 463 l 666 72 q 674 48 671 58 q 677 31 677 39 q 672 15 677 21 q 657 4 668 8 q 628 -2 646 0 q 581 -4 609 -4 q 534 -2 552 -4 q 507 3 517 -1 q 492 12 496 6 q 484 26 487 18 l 298 442 l 216 24 q 210 12 215 17 q 193 3 204 7 q 164 -2 182 -1 q 121 -4 147 -4 q 78 -2 95 -4 q 52 3 62 -1 q 39 12 43 7 q 38 24 36 17 l 203 854 q 210 866 204 861 q 226 875 215 871 q 255 880 237 878 q 298 882 272 882 q 341 880 324 882 q 367 875 357 878 q 380 866 376 871 q 382 854 383 861 l 307 479 l 633 851 q 647 865 640 859 q 667 875 655 871 q 697 880 680 878 q 741 882 715 882 q 786 880 768 882 q 812 874 803 878 q 826 866 822 871 q 829 853 829 861 m 305 -224 q 295 -235 300 -231 q 281 -242 290 -239 q 258 -247 273 -245 q 222 -248 244 -248 q 189 -246 201 -248 q 172 -240 177 -244 q 167 -229 167 -235 q 172 -212 168 -222 l 232 -83 q 241 -70 235 -76 q 258 -61 248 -64 q 287 -56 269 -58 q 332 -55 305 -55 q 375 -58 359 -55 q 396 -65 390 -60 q 401 -78 402 -71 q 393 -95 399 -85 l 305 -224 z "},"L":{"ha":587,"x_min":41,"x_max":534,"o":"m 534 120 q 533 105 534 115 q 530 81 532 94 q 524 53 528 67 q 515 27 520 39 q 503 7 510 15 q 488 0 496 0 l 85 0 q 65 3 75 0 q 51 13 56 6 q 43 31 45 20 q 43 56 41 41 l 203 854 q 210 866 204 861 q 226 875 215 871 q 255 880 237 878 q 298 882 272 882 q 341 880 324 882 q 368 875 358 878 q 380 866 377 871 q 382 854 383 861 l 241 147 l 517 147 q 531 140 527 147 q 534 120 534 132 z "},"Ĺ":{"ha":587,"x_min":41,"x_max":613,"o":"m 534 120 q 533 105 534 115 q 530 81 532 94 q 524 53 528 67 q 515 27 520 39 q 503 7 510 15 q 488 0 496 0 l 85 0 q 65 3 75 0 q 51 13 56 6 q 43 31 45 20 q 43 56 41 41 l 203 854 q 210 866 204 861 q 226 875 215 871 q 255 880 237 878 q 298 882 272 882 q 341 880 324 882 q 368 875 358 878 q 380 866 377 871 q 382 854 383 861 l 241 147 l 517 147 q 531 140 527 147 q 534 120 534 132 m 439 964 q 424 953 431 958 q 407 946 417 949 q 383 942 397 943 q 347 940 368 940 q 291 949 301 940 q 298 976 280 958 l 426 1114 q 444 1130 435 1124 q 465 1139 452 1136 q 494 1144 477 1143 q 535 1145 511 1145 q 584 1141 567 1145 q 607 1131 601 1137 q 609 1116 613 1124 q 595 1099 606 1108 l 439 964 m 75 878 z "},"Ľ":{"ha":597,"x_min":41,"x_max":670,"o":"m 534 120 q 533 105 534 115 q 530 81 532 94 q 524 53 528 67 q 515 27 520 39 q 503 7 510 15 q 488 0 496 0 l 85 0 q 65 3 75 0 q 51 13 56 6 q 43 31 45 20 q 43 56 41 41 l 203 854 q 210 866 204 861 q 226 875 215 871 q 255 880 237 878 q 298 882 272 882 q 341 880 324 882 q 368 875 358 878 q 380 866 377 871 q 382 854 383 861 l 241 147 l 517 147 q 531 140 527 147 q 534 120 534 132 m 555 685 q 546 673 551 677 q 532 666 541 669 q 510 663 523 664 q 477 662 497 662 q 453 664 462 662 q 440 669 444 665 q 436 678 436 672 q 439 693 436 684 l 517 900 q 526 914 520 908 q 542 924 532 920 q 567 930 551 928 q 605 932 583 932 q 644 929 629 932 q 664 923 658 927 q 670 912 670 919 q 665 898 669 906 l 555 685 m 284 651 z "},"Ļ":{"ha":587,"x_min":41,"x_max":534,"o":"m 534 120 q 533 105 534 115 q 530 81 532 94 q 524 53 528 67 q 515 27 520 39 q 503 7 510 15 q 488 0 496 0 l 85 0 q 65 3 75 0 q 51 13 56 6 q 43 31 45 20 q 43 56 41 41 l 203 854 q 210 866 204 861 q 226 875 215 871 q 255 880 237 878 q 298 882 272 882 q 341 880 324 882 q 368 875 358 878 q 380 866 377 871 q 382 854 383 861 l 241 147 l 517 147 q 531 140 527 147 q 534 120 534 132 m 240 -224 q 230 -235 235 -231 q 216 -242 225 -239 q 193 -247 208 -245 q 157 -248 179 -248 q 124 -246 136 -248 q 107 -240 112 -244 q 102 -229 102 -235 q 107 -212 102 -222 l 167 -83 q 176 -70 170 -76 q 193 -61 182 -64 q 222 -56 204 -58 q 267 -55 240 -55 q 310 -58 294 -55 q 331 -65 325 -60 q 336 -78 337 -71 q 328 -95 334 -85 l 240 -224 z "},"Ł":{"ha":601,"x_min":14,"x_max":548,"o":"m 548 120 q 547 105 548 116 q 544 81 546 95 q 537 54 541 68 q 528 27 534 39 q 516 8 523 16 q 500 0 509 0 l 98 0 q 62 14 74 0 q 56 56 50 28 l 110 323 l 41 283 q 20 279 25 274 q 14 300 14 284 q 15 316 14 306 q 18 339 16 327 q 24 366 20 352 q 33 391 28 379 q 44 413 37 404 q 59 428 50 423 l 140 473 l 216 854 q 222 866 217 861 q 239 875 228 871 q 268 880 250 878 q 312 882 286 882 q 354 880 338 882 q 380 875 371 878 q 393 866 390 871 q 395 854 396 861 l 340 585 l 481 663 q 502 666 496 672 q 508 646 508 661 q 507 631 508 641 q 504 609 506 621 q 499 583 502 596 q 491 557 496 569 q 480 535 486 545 q 467 521 474 525 l 311 435 l 253 147 l 530 147 q 544 139 540 147 q 548 120 548 131 z "},"Ŀ":{"ha":780,"x_min":41,"x_max":740,"o":"m 534 120 q 533 105 534 115 q 530 81 532 94 q 524 53 528 67 q 515 27 520 39 q 503 7 510 15 q 488 0 496 0 l 85 0 q 65 3 75 0 q 51 13 56 6 q 43 31 45 20 q 43 56 41 41 l 203 854 q 210 866 204 861 q 226 875 215 871 q 255 880 237 878 q 298 882 272 882 q 341 880 324 882 q 368 875 358 878 q 380 866 377 871 q 382 854 383 861 l 241 147 l 517 147 q 531 140 527 147 q 534 120 534 132 m 740 495 q 737 463 740 480 q 729 429 734 446 q 717 397 724 412 q 701 373 710 382 q 663 353 686 359 q 614 348 640 348 q 573 352 589 348 q 546 363 556 355 q 532 383 536 372 q 528 409 528 394 q 531 440 528 422 q 539 475 534 457 q 551 507 545 492 q 567 530 558 522 q 600 549 579 542 q 655 557 620 557 q 696 553 680 557 q 723 542 713 549 q 736 522 732 534 q 740 495 740 511 z "},"M":{"ha":1214,"x_min":35,"x_max":1219,"o":"m 1060 24 q 1054 12 1058 17 q 1040 3 1050 6 q 1013 -2 1030 -1 q 971 -4 996 -4 q 928 -2 945 -4 q 903 3 912 -1 q 892 12 895 6 q 891 24 890 17 l 1034 738 l 1032 738 l 634 24 q 603 2 626 7 q 536 -4 579 -4 q 473 4 492 -4 q 453 23 454 12 l 350 739 l 349 739 l 205 24 q 200 12 204 17 q 185 3 195 6 q 159 -2 176 -1 q 117 -4 142 -4 q 75 -2 91 -4 q 50 3 58 -1 q 38 12 41 6 q 37 24 35 17 l 193 806 q 204 836 197 823 q 221 859 211 850 q 245 873 232 868 q 275 878 259 878 l 386 878 q 437 872 416 878 q 471 855 458 867 q 492 823 485 843 q 502 776 499 804 l 587 254 l 590 254 l 891 776 q 918 822 905 802 q 948 853 932 841 q 985 872 965 866 q 1034 878 1006 878 l 1160 878 q 1189 873 1177 878 q 1208 859 1201 868 q 1217 837 1215 850 q 1216 806 1219 823 l 1060 24 z "},"N":{"ha":911,"x_min":35,"x_max":924,"o":"m 764 62 q 754 35 762 47 q 735 14 746 22 q 712 2 725 6 q 686 -1 700 -1 l 610 -1 q 570 3 586 -1 q 544 20 555 8 q 524 54 532 33 q 505 107 515 75 l 376 499 q 348 591 361 545 q 324 682 336 637 l 323 682 q 307 577 316 629 q 288 473 298 525 l 198 24 q 192 12 197 18 q 176 3 186 7 q 150 -2 166 0 q 111 -4 134 -4 q 72 -2 87 -4 q 48 3 56 0 q 38 12 40 7 q 37 24 35 18 l 195 814 q 223 862 201 846 q 272 878 245 878 l 365 878 q 403 872 387 878 q 430 856 419 867 q 450 827 441 845 q 466 784 458 810 l 597 389 q 620 313 610 351 q 642 239 631 276 l 644 239 q 660 339 651 288 q 679 440 669 391 l 762 854 q 768 866 764 861 q 783 874 773 871 q 808 879 793 877 q 848 880 824 880 q 887 879 871 880 q 911 874 903 877 q 922 866 919 871 q 923 854 924 861 l 764 62 z "},"Ń":{"ha":911,"x_min":35,"x_max":924,"o":"m 764 62 q 754 35 762 47 q 735 14 746 22 q 712 2 725 6 q 686 -1 700 -1 l 610 -1 q 570 3 586 -1 q 544 20 555 8 q 524 54 532 33 q 505 107 515 75 l 376 499 q 348 591 361 545 q 324 682 336 637 l 323 682 q 307 577 316 629 q 288 473 298 525 l 198 24 q 192 12 197 18 q 176 3 186 7 q 150 -2 166 0 q 111 -4 134 -4 q 72 -2 87 -4 q 48 3 56 0 q 38 12 40 7 q 37 24 35 18 l 195 814 q 223 862 201 846 q 272 878 245 878 l 365 878 q 403 872 387 878 q 430 856 419 867 q 450 827 441 845 q 466 784 458 810 l 597 389 q 620 313 610 351 q 642 239 631 276 l 644 239 q 660 339 651 288 q 679 440 669 391 l 762 854 q 768 866 764 861 q 783 874 773 871 q 808 879 793 877 q 848 880 824 880 q 887 879 871 880 q 911 874 903 877 q 922 866 919 871 q 923 854 924 861 l 764 62 m 677 964 q 663 953 670 958 q 646 946 656 949 q 622 942 636 943 q 586 940 607 940 q 529 949 540 940 q 536 976 519 958 l 665 1114 q 682 1130 673 1124 q 703 1139 691 1136 q 732 1144 715 1143 q 774 1145 749 1145 q 823 1141 806 1145 q 846 1131 840 1137 q 848 1116 852 1124 q 834 1099 844 1108 l 677 964 m 314 878 z "},"Ň":{"ha":911,"x_min":35,"x_max":924,"o":"m 764 62 q 754 35 762 47 q 735 14 746 22 q 712 2 725 6 q 686 -1 700 -1 l 610 -1 q 570 3 586 -1 q 544 20 555 8 q 524 54 532 33 q 505 107 515 75 l 376 499 q 348 591 361 545 q 324 682 336 637 l 323 682 q 307 577 316 629 q 288 473 298 525 l 198 24 q 192 12 197 18 q 176 3 186 7 q 150 -2 166 0 q 111 -4 134 -4 q 72 -2 87 -4 q 48 3 56 0 q 38 12 40 7 q 37 24 35 18 l 195 814 q 223 862 201 846 q 272 878 245 878 l 365 878 q 403 872 387 878 q 430 856 419 867 q 450 827 441 845 q 466 784 458 810 l 597 389 q 620 313 610 351 q 642 239 631 276 l 644 239 q 660 339 651 288 q 679 440 669 391 l 762 854 q 768 866 764 861 q 783 874 773 871 q 808 879 793 877 q 848 880 824 880 q 887 879 871 880 q 911 874 903 877 q 922 866 919 871 q 923 854 924 861 l 764 62 m 694 968 q 675 954 685 959 q 652 945 665 948 q 623 941 640 943 q 584 940 607 940 q 548 941 562 940 q 524 944 534 941 q 507 953 513 947 q 493 968 500 959 l 387 1113 q 380 1129 380 1123 q 386 1139 379 1136 q 407 1144 393 1143 q 445 1145 422 1145 q 490 1144 473 1145 q 516 1141 507 1143 q 529 1135 525 1139 q 538 1124 534 1131 l 600 1031 l 701 1123 q 715 1134 708 1129 q 734 1141 722 1138 q 764 1144 746 1143 q 810 1145 782 1145 q 847 1144 833 1145 q 865 1138 860 1142 q 867 1128 870 1135 q 854 1113 864 1122 l 694 968 m 148 878 z "},"Ñ":{"ha":911,"x_min":35,"x_max":924,"o":"m 764 62 q 754 35 762 47 q 735 14 746 22 q 712 2 725 6 q 686 -1 700 -1 l 610 -1 q 570 3 586 -1 q 544 20 555 8 q 524 54 532 33 q 505 107 515 75 l 376 499 q 348 591 361 545 q 324 682 336 637 l 323 682 q 307 577 316 629 q 288 473 298 525 l 198 24 q 192 12 197 18 q 176 3 186 7 q 150 -2 166 0 q 111 -4 134 -4 q 72 -2 87 -4 q 48 3 56 0 q 38 12 40 7 q 37 24 35 18 l 195 814 q 223 862 201 846 q 272 878 245 878 l 365 878 q 403 872 387 878 q 430 856 419 867 q 450 827 441 845 q 466 784 458 810 l 597 389 q 620 313 610 351 q 642 239 631 276 l 644 239 q 660 339 651 288 q 679 440 669 391 l 762 854 q 768 866 764 861 q 783 874 773 871 q 808 879 793 877 q 848 880 824 880 q 887 879 871 880 q 911 874 903 877 q 922 866 919 871 q 923 854 924 861 l 764 62 m 741 1109 q 745 1118 742 1115 q 754 1124 748 1122 q 771 1126 761 1126 q 797 1127 782 1127 q 836 1123 827 1127 q 846 1109 846 1118 q 844 1093 846 1106 q 838 1060 843 1079 q 823 1021 833 1042 q 795 983 813 1000 q 750 954 777 965 q 684 942 724 942 q 622 952 648 942 q 575 976 596 963 q 536 999 554 988 q 498 1009 518 1009 q 463 996 475 1009 q 450 960 452 983 q 445 951 448 954 q 436 946 442 947 q 419 943 429 944 q 394 942 409 942 q 354 946 364 942 q 344 961 344 950 q 346 982 344 967 q 353 1015 347 997 q 370 1053 359 1034 q 399 1089 381 1073 q 443 1117 417 1106 q 507 1127 469 1127 q 569 1117 543 1127 q 615 1093 595 1106 q 654 1070 636 1080 q 692 1059 673 1059 q 725 1070 713 1059 q 741 1109 738 1082 m 141 878 z "},"Ņ":{"ha":911,"x_min":35,"x_max":924,"o":"m 764 62 q 754 35 762 47 q 735 14 746 22 q 712 2 725 6 q 686 -1 700 -1 l 610 -1 q 570 3 586 -1 q 544 20 555 8 q 524 54 532 33 q 505 107 515 75 l 376 499 q 348 591 361 545 q 324 682 336 637 l 323 682 q 307 577 316 629 q 288 473 298 525 l 198 24 q 192 12 197 18 q 176 3 186 7 q 150 -2 166 0 q 111 -4 134 -4 q 72 -2 87 -4 q 48 3 56 0 q 38 12 40 7 q 37 24 35 18 l 195 814 q 223 862 201 846 q 272 878 245 878 l 365 878 q 403 872 387 878 q 430 856 419 867 q 450 827 441 845 q 466 784 458 810 l 597 389 q 620 313 610 351 q 642 239 631 276 l 644 239 q 660 339 651 288 q 679 440 669 391 l 762 854 q 768 866 764 861 q 783 874 773 871 q 808 879 793 877 q 848 880 824 880 q 887 879 871 880 q 911 874 903 877 q 922 866 919 871 q 923 854 924 861 l 764 62 m 351 -224 q 341 -235 346 -231 q 327 -242 336 -239 q 304 -247 318 -245 q 268 -248 290 -248 q 235 -246 247 -248 q 217 -240 222 -244 q 213 -229 212 -235 q 218 -212 213 -222 l 277 -83 q 287 -70 281 -76 q 304 -61 293 -64 q 333 -56 315 -58 q 378 -55 351 -55 q 420 -58 405 -55 q 441 -65 435 -60 q 446 -78 448 -71 q 438 -95 445 -85 l 351 -224 z "},"Ŋ":{"ha":885,"x_min":35,"x_max":897,"o":"m 725 0 q 693 -106 713 -60 q 644 -184 674 -153 q 573 -232 614 -216 q 474 -248 531 -248 q 404 -241 433 -248 q 365 -227 374 -235 q 360 -218 361 -223 q 359 -207 359 -214 q 360 -191 359 -201 q 363 -169 361 -180 q 368 -144 365 -157 q 375 -122 371 -132 q 384 -106 379 -113 q 395 -100 389 -100 q 406 -102 401 -100 q 417 -106 410 -104 q 434 -111 424 -109 q 460 -113 444 -113 q 492 -108 478 -113 q 517 -93 507 -103 q 535 -65 528 -82 q 549 -24 543 -48 l 555 0 l 375 477 q 346 561 360 517 q 321 646 332 604 l 319 646 q 299 529 311 589 q 276 405 288 468 l 200 23 q 194 11 199 16 q 179 3 189 6 q 153 -2 169 -1 q 114 -4 138 -4 q 74 -2 90 -4 q 50 3 58 -1 q 38 11 41 6 q 37 23 35 16 l 195 814 q 221 862 202 846 q 268 878 241 878 l 354 878 q 380 874 369 878 q 401 864 392 871 q 418 846 410 857 q 432 817 425 834 l 555 491 q 591 389 574 441 q 625 286 609 337 l 626 286 q 635 344 630 314 q 645 403 640 374 q 655 460 650 432 q 665 513 661 488 l 732 852 q 739 865 734 859 q 753 873 743 870 q 779 879 763 877 q 819 880 794 880 q 858 879 842 880 q 882 873 873 877 q 893 865 890 870 q 895 852 897 859 l 725 0 z "},"O":{"ha":928,"x_min":64,"x_max":912,"o":"m 912 584 q 901 456 912 524 q 866 322 890 389 q 803 194 842 255 q 707 86 764 133 q 575 12 651 40 q 402 -16 499 -16 q 257 3 320 -16 q 152 59 195 21 q 86 155 109 97 q 64 290 64 212 q 76 424 64 354 q 112 560 87 493 q 176 687 136 627 q 273 793 216 747 q 404 866 329 840 q 575 893 479 893 q 720 874 657 893 q 825 818 783 856 q 890 721 868 779 q 912 584 912 663 m 724 567 q 714 642 724 608 q 685 699 705 675 q 632 734 665 722 q 551 747 599 747 q 448 724 492 747 q 370 665 403 701 q 314 581 336 628 q 278 485 292 534 q 259 391 264 437 q 253 310 253 345 q 262 235 253 268 q 292 179 271 201 q 346 144 313 156 q 427 132 378 132 q 530 154 485 132 q 607 213 574 176 q 663 296 640 249 q 699 391 685 342 q 718 485 712 439 q 724 567 724 531 z "},"Ò":{"ha":928,"x_min":64,"x_max":912,"o":"m 912 584 q 901 456 912 524 q 866 322 890 389 q 803 194 842 255 q 707 86 764 133 q 575 12 651 40 q 402 -16 499 -16 q 257 3 320 -16 q 152 59 195 21 q 86 155 109 97 q 64 290 64 212 q 76 424 64 354 q 112 560 87 493 q 176 687 136 627 q 273 793 216 747 q 404 866 329 840 q 575 893 479 893 q 720 874 657 893 q 825 818 783 856 q 890 721 868 779 q 912 584 912 663 m 724 567 q 714 642 724 608 q 685 699 705 675 q 632 734 665 722 q 551 747 599 747 q 448 724 492 747 q 370 665 403 701 q 314 581 336 628 q 278 485 292 534 q 259 391 264 437 q 253 310 253 345 q 262 235 253 268 q 292 179 271 201 q 346 144 313 156 q 427 132 378 132 q 530 154 485 132 q 607 213 574 176 q 663 296 640 249 q 699 391 685 342 q 718 485 712 439 q 724 567 724 531 m 650 976 q 660 960 658 966 q 655 948 661 953 q 634 942 648 944 q 598 940 621 940 q 563 941 577 940 q 539 946 549 943 q 522 953 529 949 q 508 964 515 958 l 363 1099 q 351 1116 353 1108 q 355 1131 348 1124 q 379 1141 361 1137 q 427 1145 397 1145 q 469 1144 452 1145 q 498 1140 486 1143 q 518 1131 510 1137 q 534 1114 526 1124 l 650 976 m 132 878 z "},"Ó":{"ha":928,"x_min":64,"x_max":912,"o":"m 912 584 q 901 456 912 524 q 866 322 890 389 q 803 194 842 255 q 707 86 764 133 q 575 12 651 40 q 402 -16 499 -16 q 257 3 320 -16 q 152 59 195 21 q 86 155 109 97 q 64 290 64 212 q 76 424 64 354 q 112 560 87 493 q 176 687 136 627 q 273 793 216 747 q 404 866 329 840 q 575 893 479 893 q 720 874 657 893 q 825 818 783 856 q 890 721 868 779 q 912 584 912 663 m 724 567 q 714 642 724 608 q 685 699 705 675 q 632 734 665 722 q 551 747 599 747 q 448 724 492 747 q 370 665 403 701 q 314 581 336 628 q 278 485 292 534 q 259 391 264 437 q 253 310 253 345 q 262 235 253 268 q 292 179 271 201 q 346 144 313 156 q 427 132 378 132 q 530 154 485 132 q 607 213 574 176 q 663 296 640 249 q 699 391 685 342 q 718 485 712 439 q 724 567 724 531 m 647 964 q 632 953 640 958 q 615 946 625 949 q 591 942 606 943 q 555 940 576 940 q 499 949 509 940 q 506 976 488 958 l 634 1114 q 652 1130 643 1124 q 673 1139 661 1136 q 702 1144 685 1143 q 743 1145 719 1145 q 792 1141 775 1145 q 815 1131 809 1137 q 818 1116 821 1124 q 804 1099 814 1108 l 647 964 m 283 878 z "},"Ô":{"ha":928,"x_min":64,"x_max":912,"o":"m 912 584 q 901 456 912 524 q 866 322 890 389 q 803 194 842 255 q 707 86 764 133 q 575 12 651 40 q 402 -16 499 -16 q 257 3 320 -16 q 152 59 195 21 q 86 155 109 97 q 64 290 64 212 q 76 424 64 354 q 112 560 87 493 q 176 687 136 627 q 273 793 216 747 q 404 866 329 840 q 575 893 479 893 q 720 874 657 893 q 825 818 783 856 q 890 721 868 779 q 912 584 912 663 m 724 567 q 714 642 724 608 q 685 699 705 675 q 632 734 665 722 q 551 747 599 747 q 448 724 492 747 q 370 665 403 701 q 314 581 336 628 q 278 485 292 534 q 259 391 264 437 q 253 310 253 345 q 262 235 253 268 q 292 179 271 201 q 346 144 313 156 q 427 132 378 132 q 530 154 485 132 q 607 213 574 176 q 663 296 640 249 q 699 391 685 342 q 718 485 712 439 q 724 567 724 531 m 825 972 q 832 957 831 963 q 826 946 833 950 q 805 941 819 943 q 768 940 791 940 q 723 941 739 940 q 696 944 706 942 q 682 951 686 947 q 673 961 677 955 l 612 1054 l 511 963 q 497 951 504 956 q 478 944 490 947 q 449 941 467 942 q 403 940 431 940 q 366 942 380 940 q 348 947 353 943 q 346 957 342 951 q 359 972 349 963 l 520 1118 q 539 1132 529 1126 q 561 1140 549 1137 q 589 1144 573 1143 q 629 1145 606 1145 q 665 1145 650 1145 q 689 1141 680 1144 q 706 1133 699 1139 q 720 1118 713 1127 l 825 972 m 148 878 z "},"Õ":{"ha":928,"x_min":64,"x_max":912,"o":"m 912 584 q 901 456 912 524 q 866 322 890 389 q 803 194 842 255 q 707 86 764 133 q 575 12 651 40 q 402 -16 499 -16 q 257 3 320 -16 q 152 59 195 21 q 86 155 109 97 q 64 290 64 212 q 76 424 64 354 q 112 560 87 493 q 176 687 136 627 q 273 793 216 747 q 404 866 329 840 q 575 893 479 893 q 720 874 657 893 q 825 818 783 856 q 890 721 868 779 q 912 584 912 663 m 724 567 q 714 642 724 608 q 685 699 705 675 q 632 734 665 722 q 551 747 599 747 q 448 724 492 747 q 370 665 403 701 q 314 581 336 628 q 278 485 292 534 q 259 391 264 437 q 253 310 253 345 q 262 235 253 268 q 292 179 271 201 q 346 144 313 156 q 427 132 378 132 q 530 154 485 132 q 607 213 574 176 q 663 296 640 249 q 699 391 685 342 q 718 485 712 439 q 724 567 724 531 m 752 1109 q 756 1118 753 1115 q 765 1124 759 1122 q 782 1126 772 1126 q 808 1127 793 1127 q 847 1123 838 1127 q 857 1109 857 1118 q 855 1093 857 1106 q 849 1060 854 1079 q 834 1021 844 1042 q 806 983 824 1000 q 761 954 788 965 q 695 942 734 942 q 633 952 659 942 q 586 976 607 963 q 547 999 565 988 q 509 1009 529 1009 q 474 996 486 1009 q 460 960 463 983 q 456 951 459 954 q 447 946 453 947 q 430 943 440 944 q 405 942 420 942 q 365 946 375 942 q 355 961 355 950 q 356 982 355 967 q 364 1015 358 997 q 381 1053 370 1034 q 410 1089 392 1073 q 454 1117 428 1106 q 517 1127 480 1127 q 579 1117 553 1127 q 626 1093 606 1106 q 665 1070 647 1080 q 703 1059 684 1059 q 736 1070 724 1059 q 752 1109 749 1082 m 152 878 z "},"Ö":{"ha":928,"x_min":64,"x_max":912,"o":"m 912 584 q 901 456 912 524 q 866 322 890 389 q 803 194 842 255 q 707 86 764 133 q 575 12 651 40 q 402 -16 499 -16 q 257 3 320 -16 q 152 59 195 21 q 86 155 109 97 q 64 290 64 212 q 76 424 64 354 q 112 560 87 493 q 176 687 136 627 q 273 793 216 747 q 404 866 329 840 q 575 893 479 893 q 720 874 657 893 q 825 818 783 856 q 890 721 868 779 q 912 584 912 663 m 724 567 q 714 642 724 608 q 685 699 705 675 q 632 734 665 722 q 551 747 599 747 q 448 724 492 747 q 370 665 403 701 q 314 581 336 628 q 278 485 292 534 q 259 391 264 437 q 253 310 253 345 q 262 235 253 268 q 292 179 271 201 q 346 144 313 156 q 427 132 378 132 q 530 154 485 132 q 607 213 574 176 q 663 296 640 249 q 699 391 685 342 q 718 485 712 439 q 724 567 724 531 m 849 1036 q 837 997 845 1013 q 817 972 829 981 q 787 959 804 962 q 745 955 769 955 q 703 959 719 955 q 678 972 687 962 q 668 997 669 981 q 671 1036 667 1013 q 683 1078 675 1061 q 702 1105 690 1095 q 732 1119 714 1115 q 775 1123 749 1123 q 816 1119 800 1123 q 841 1105 832 1115 q 851 1078 850 1095 q 849 1036 853 1061 m 553 1036 q 541 997 549 1013 q 521 972 534 981 q 491 959 509 962 q 449 955 473 955 q 407 959 423 955 q 382 972 391 962 q 372 997 373 981 q 375 1036 370 1013 q 387 1078 379 1061 q 406 1105 394 1095 q 436 1119 418 1115 q 479 1123 454 1123 q 520 1119 504 1123 q 545 1105 536 1115 q 556 1078 554 1095 q 553 1036 557 1061 m 161 878 z "},"Ō":{"ha":928,"x_min":64,"x_max":912,"o":"m 912 584 q 901 456 912 524 q 866 322 890 389 q 803 194 842 255 q 707 86 764 133 q 575 12 651 40 q 402 -16 499 -16 q 257 3 320 -16 q 152 59 195 21 q 86 155 109 97 q 64 290 64 212 q 76 424 64 354 q 112 560 87 493 q 176 687 136 627 q 273 793 216 747 q 404 866 329 840 q 575 893 479 893 q 720 874 657 893 q 825 818 783 856 q 890 721 868 779 q 912 584 912 663 m 724 567 q 714 642 724 608 q 685 699 705 675 q 632 734 665 722 q 551 747 599 747 q 448 724 492 747 q 370 665 403 701 q 314 581 336 628 q 278 485 292 534 q 259 391 264 437 q 253 310 253 345 q 262 235 253 268 q 292 179 271 201 q 346 144 313 156 q 427 132 378 132 q 530 154 485 132 q 607 213 574 176 q 663 296 640 249 q 699 391 685 342 q 718 485 712 439 q 724 567 724 531 m 844 1070 q 843 1055 844 1065 q 839 1035 842 1046 q 833 1013 837 1024 q 825 991 830 1001 q 813 976 820 982 q 799 970 807 970 l 399 970 q 382 977 387 970 q 377 997 377 983 q 378 1010 377 1001 q 381 1031 379 1020 q 386 1053 382 1042 q 395 1074 390 1065 q 408 1090 401 1084 q 425 1096 415 1096 l 825 1096 q 839 1089 835 1096 q 844 1070 844 1082 m 169 878 z "},"Ŏ":{"ha":928,"x_min":64,"x_max":912,"o":"m 912 584 q 901 456 912 524 q 866 322 890 389 q 803 194 842 255 q 707 86 764 133 q 575 12 651 40 q 402 -16 499 -16 q 257 3 320 -16 q 152 59 195 21 q 86 155 109 97 q 64 290 64 212 q 76 424 64 354 q 112 560 87 493 q 176 687 136 627 q 273 793 216 747 q 404 866 329 840 q 575 893 479 893 q 720 874 657 893 q 825 818 783 856 q 890 721 868 779 q 912 584 912 663 m 724 567 q 714 642 724 608 q 685 699 705 675 q 632 734 665 722 q 551 747 599 747 q 448 724 492 747 q 370 665 403 701 q 314 581 336 628 q 278 485 292 534 q 259 391 264 437 q 253 310 253 345 q 262 235 253 268 q 292 179 271 201 q 346 144 313 156 q 427 132 378 132 q 530 154 485 132 q 607 213 574 176 q 663 296 640 249 q 699 391 685 342 q 718 485 712 439 q 724 567 724 531 m 833 1133 q 829 1108 833 1125 q 817 1070 826 1091 q 791 1025 807 1048 q 748 983 774 1002 q 686 952 722 964 q 599 940 649 940 q 512 951 547 940 q 457 980 478 962 q 428 1023 436 999 q 419 1074 419 1048 q 420 1092 419 1082 q 422 1112 420 1102 q 426 1129 423 1121 q 432 1139 429 1137 q 450 1148 437 1145 q 486 1151 463 1151 q 513 1149 503 1151 q 530 1145 524 1148 q 539 1139 536 1143 q 541 1130 541 1135 q 540 1117 541 1124 q 539 1103 539 1110 q 543 1080 539 1090 q 555 1063 547 1069 q 576 1052 563 1056 q 608 1048 589 1048 q 644 1053 627 1048 q 674 1066 661 1057 q 698 1090 688 1076 q 714 1125 708 1104 q 720 1137 716 1132 q 731 1145 724 1141 q 750 1149 739 1148 q 779 1151 762 1151 q 806 1149 795 1151 q 823 1146 817 1148 q 831 1140 829 1144 q 833 1133 833 1137 m 193 878 z "},"Ő":{"ha":928,"x_min":64,"x_max":1000,"o":"m 912 584 q 901 456 912 524 q 866 322 890 389 q 803 194 842 255 q 707 86 764 133 q 575 12 651 40 q 402 -16 499 -16 q 257 3 320 -16 q 152 59 195 21 q 86 155 109 97 q 64 290 64 212 q 76 424 64 354 q 112 560 87 493 q 176 687 136 627 q 273 793 216 747 q 404 866 329 840 q 575 893 479 893 q 720 874 657 893 q 825 818 783 856 q 890 721 868 779 q 912 584 912 663 m 724 567 q 714 642 724 608 q 685 699 705 675 q 632 734 665 722 q 551 747 599 747 q 448 724 492 747 q 370 665 403 701 q 314 581 336 628 q 278 485 292 534 q 259 391 264 437 q 253 310 253 345 q 262 235 253 268 q 292 179 271 201 q 346 144 313 156 q 427 132 378 132 q 530 154 485 132 q 607 213 574 176 q 663 296 640 249 q 699 391 685 342 q 718 485 712 439 q 724 567 724 531 m 816 957 q 802 947 809 951 q 786 942 795 944 q 763 940 777 941 q 730 940 750 940 q 695 942 709 940 q 675 947 682 943 q 668 955 668 950 q 673 966 667 960 l 804 1126 q 815 1137 808 1133 q 834 1145 822 1141 q 865 1149 846 1148 q 911 1151 883 1151 q 964 1148 945 1151 q 992 1141 984 1146 q 998 1130 1000 1137 q 986 1115 996 1123 l 816 957 m 522 956 q 510 947 517 950 q 495 942 504 944 q 472 940 486 941 q 441 940 459 940 q 394 947 404 940 q 393 969 383 955 l 512 1126 q 525 1138 517 1133 q 544 1145 532 1142 q 572 1149 555 1148 q 611 1151 589 1151 q 668 1149 648 1151 q 696 1142 688 1147 q 702 1131 705 1137 q 690 1116 699 1124 l 522 956 m 176 878 z "},"Ø":{"ha":941,"x_min":29,"x_max":957,"o":"m 154 58 q 88 152 111 95 q 64 290 64 210 q 74 411 64 345 q 105 543 83 476 q 165 673 127 610 q 261 785 203 736 q 398 864 319 834 q 585 893 478 893 q 654 888 620 893 q 714 873 688 883 l 803 1003 q 830 1019 811 1015 q 888 1024 850 1024 q 929 1021 914 1024 q 950 1013 944 1018 q 956 1001 957 1008 q 949 985 955 994 l 834 819 q 901 724 878 782 q 924 587 924 667 q 915 467 924 533 q 883 334 906 401 q 823 204 861 267 q 727 92 785 141 q 590 14 669 43 q 405 -16 510 -16 q 331 -11 363 -16 q 275 3 299 -7 l 183 -130 q 156 -146 176 -142 q 100 -151 136 -151 q 58 -148 73 -151 q 36 -140 43 -145 q 30 -128 29 -135 q 37 -112 31 -121 l 154 58 m 361 138 q 393 129 375 132 q 431 125 411 125 q 546 151 497 125 q 629 216 594 176 q 686 306 663 256 q 721 406 708 356 q 738 501 733 456 q 743 575 743 545 q 738 622 743 600 q 721 661 733 644 l 361 138 m 628 739 q 595 749 613 746 q 557 752 577 752 q 468 738 508 752 q 397 699 429 724 q 343 641 366 674 q 303 572 320 608 q 275 497 286 535 q 257 423 264 458 q 248 356 251 387 q 245 303 245 325 q 251 256 245 278 q 267 216 256 233 l 628 739 z "},"Ǿ":{"ha":941,"x_min":29,"x_max":957,"o":"m 154 58 q 88 152 111 95 q 64 290 64 210 q 74 411 64 345 q 105 543 83 476 q 165 673 127 610 q 261 785 203 736 q 398 864 319 834 q 585 893 478 893 q 654 888 620 893 q 714 873 688 883 l 803 1003 q 830 1019 811 1015 q 888 1024 850 1024 q 929 1021 914 1024 q 950 1013 944 1018 q 956 1001 957 1008 q 949 985 955 994 l 834 819 q 901 724 878 782 q 924 587 924 667 q 915 467 924 533 q 883 334 906 401 q 823 204 861 267 q 727 92 785 141 q 590 14 669 43 q 405 -16 510 -16 q 331 -11 363 -16 q 275 3 299 -7 l 183 -130 q 156 -146 176 -142 q 100 -151 136 -151 q 58 -148 73 -151 q 36 -140 43 -145 q 30 -128 29 -135 q 37 -112 31 -121 l 154 58 m 361 138 q 393 129 375 132 q 431 125 411 125 q 546 151 497 125 q 629 216 594 176 q 686 306 663 256 q 721 406 708 356 q 738 501 733 456 q 743 575 743 545 q 738 622 743 600 q 721 661 733 644 l 361 138 m 628 739 q 595 749 613 746 q 557 752 577 752 q 468 738 508 752 q 397 699 429 724 q 343 641 366 674 q 303 572 320 608 q 275 497 286 535 q 257 423 264 458 q 248 356 251 387 q 245 303 245 325 q 251 256 245 278 q 267 216 256 233 l 628 739 m 596 964 q 582 953 589 958 q 565 946 574 949 q 540 942 555 943 q 505 940 526 940 q 448 949 458 940 q 455 976 437 958 l 583 1114 q 601 1130 592 1124 q 622 1139 610 1136 q 651 1144 634 1143 q 692 1145 668 1145 q 741 1141 724 1145 q 764 1131 758 1137 q 767 1116 770 1124 q 753 1099 763 1108 l 596 964 m 233 878 z "},"Œ":{"ha":1214,"x_min":64,"x_max":1251,"o":"m 1106 112 q 1105 98 1106 108 q 1102 76 1105 88 q 1097 50 1100 63 q 1088 25 1093 37 q 1077 7 1083 14 q 1062 0 1070 0 l 632 0 q 619 1 625 0 q 608 6 612 3 q 600 14 603 9 q 595 26 596 19 q 505 -5 553 5 q 405 -16 457 -16 q 284 -4 336 -16 q 195 28 233 7 q 132 78 157 50 q 92 140 107 106 q 71 211 77 174 q 64 287 64 249 q 76 425 64 354 q 113 563 87 496 q 178 691 138 631 q 275 795 218 751 q 408 867 332 840 q 581 893 484 893 q 633 890 607 893 q 683 883 659 888 q 727 872 706 878 q 762 857 747 865 q 781 873 770 869 q 805 878 792 878 l 1234 878 q 1248 870 1244 878 q 1251 849 1251 862 q 1250 834 1251 844 q 1247 812 1249 824 q 1241 787 1244 800 q 1233 763 1238 774 q 1221 745 1227 752 q 1206 738 1214 738 l 892 738 l 850 523 l 1114 523 q 1128 516 1124 523 q 1133 495 1133 509 q 1132 480 1133 490 q 1128 458 1131 471 q 1122 433 1126 446 q 1114 409 1118 420 q 1102 392 1109 399 q 1087 385 1096 385 l 822 385 l 773 140 l 1089 140 q 1103 132 1099 140 q 1106 112 1106 124 m 708 699 q 638 734 676 722 q 555 747 601 747 q 447 723 493 747 q 367 661 400 699 q 311 575 333 623 q 276 478 289 527 q 258 386 263 430 q 253 311 253 341 q 263 231 253 264 q 295 175 273 197 q 350 142 317 153 q 428 132 382 132 q 472 135 450 132 q 516 144 494 138 q 561 162 538 151 q 606 187 583 172 l 708 699 z "},"P":{"ha":739,"x_min":35,"x_max":760,"o":"m 760 663 q 751 583 760 625 q 724 502 743 542 q 674 427 705 463 q 601 364 644 391 q 499 320 557 336 q 363 304 441 304 l 272 304 l 216 24 q 209 12 214 17 q 192 3 203 6 q 163 -2 180 -1 q 119 -4 145 -4 q 78 -2 94 -4 q 52 3 61 -1 q 39 11 42 6 q 37 24 35 16 l 195 814 q 222 862 201 846 q 272 878 242 878 l 464 878 q 527 875 499 878 q 582 867 555 873 q 656 842 623 859 q 712 800 689 825 q 747 740 735 774 q 760 663 760 706 m 572 642 q 556 699 572 675 q 508 732 541 722 q 476 738 494 736 q 437 740 458 740 l 358 740 l 300 442 l 381 442 q 447 451 420 442 q 495 475 475 460 q 531 511 516 490 q 554 553 545 531 q 568 598 564 576 q 572 642 572 621 z "},"Þ":{"ha":739,"x_min":35,"x_max":732,"o":"m 732 528 q 723 445 732 488 q 696 362 715 403 q 646 286 677 322 q 572 223 616 250 q 470 180 528 196 q 332 164 412 164 l 243 164 l 214 20 q 208 8 213 14 q 191 0 202 3 q 162 -5 180 -3 q 119 -6 145 -6 q 76 -5 93 -6 q 50 0 60 -3 q 38 8 41 3 q 36 20 35 14 l 203 856 q 210 868 204 863 q 226 876 215 873 q 254 881 237 880 q 298 883 271 883 q 340 881 323 883 q 367 876 357 880 q 380 868 376 873 q 382 856 383 863 l 359 737 l 437 737 q 501 735 473 737 q 555 727 529 732 q 635 699 602 718 q 690 652 669 679 q 722 593 711 625 q 732 528 732 562 m 543 498 q 539 530 543 515 q 528 557 536 545 q 508 578 520 569 q 479 592 496 587 q 445 598 464 597 q 403 600 427 600 l 331 600 l 271 302 l 355 302 q 448 323 412 302 q 504 374 483 344 q 534 437 525 404 q 543 498 543 471 z "},"Q":{"ha":941,"x_min":64,"x_max":912,"o":"m 884 -36 q 883 -54 884 -42 q 879 -79 882 -65 q 872 -106 876 -92 q 863 -131 868 -120 q 851 -150 857 -142 q 836 -157 844 -157 q 814 -153 829 -157 q 778 -141 799 -149 q 731 -119 757 -132 q 680 -85 706 -105 q 627 -40 653 -66 q 577 18 600 -15 q 498 -7 541 1 q 402 -16 455 -16 q 257 3 320 -16 q 151 59 194 21 q 86 155 109 97 q 64 290 64 212 q 76 424 64 354 q 112 560 87 493 q 176 687 136 627 q 272 793 216 747 q 404 866 329 840 q 575 893 479 893 q 720 874 656 893 q 825 818 783 856 q 890 721 868 779 q 912 584 912 663 q 908 503 912 545 q 894 416 903 460 q 869 329 884 373 q 832 244 854 286 q 782 164 811 202 q 717 94 753 127 q 776 42 749 60 q 824 13 803 24 q 858 -2 844 3 q 877 -12 872 -7 q 883 -21 882 -16 q 884 -36 884 -26 m 724 567 q 714 642 724 608 q 685 699 705 675 q 631 734 665 722 q 551 747 598 747 q 447 724 492 747 q 369 665 402 701 q 314 581 336 628 q 278 485 292 534 q 259 391 264 437 q 253 310 253 345 q 262 235 253 268 q 292 179 271 201 q 346 144 313 156 q 426 132 378 132 q 529 154 484 132 q 607 213 574 176 q 662 296 640 249 q 699 391 685 342 q 718 485 712 439 q 724 567 724 531 z "},"R":{"ha":782,"x_min":35,"x_max":770,"o":"m 770 686 q 758 600 770 643 q 720 519 746 557 q 653 451 694 481 q 553 402 612 420 q 608 351 586 389 q 644 246 630 313 l 680 68 q 685 41 683 53 q 686 21 686 29 q 682 9 686 14 q 666 2 677 5 q 634 -3 654 -1 q 584 -4 614 -4 q 538 -2 555 -4 q 511 3 521 -1 q 499 13 502 7 q 494 27 496 19 l 460 222 q 446 281 455 256 q 422 325 437 307 q 388 350 408 342 q 338 359 367 359 l 283 359 l 216 24 q 209 12 214 17 q 192 3 203 6 q 163 -2 181 -1 q 120 -4 146 -4 q 78 -2 94 -4 q 52 3 61 -1 q 39 11 42 6 q 37 24 35 16 l 197 821 q 221 864 203 851 q 264 878 240 878 l 500 878 q 611 866 562 878 q 696 831 661 854 q 751 771 732 807 q 770 686 770 735 m 578 653 q 572 688 578 672 q 551 716 566 705 q 514 735 537 728 q 460 741 492 741 l 359 741 l 309 492 l 394 492 q 480 507 445 492 q 537 545 515 522 q 569 596 559 568 q 578 653 578 624 z "},"Ŕ":{"ha":782,"x_min":35,"x_max":770,"o":"m 770 686 q 758 600 770 643 q 720 519 746 557 q 653 451 694 481 q 553 402 612 420 q 608 351 586 389 q 644 246 630 313 l 680 68 q 685 41 683 53 q 686 21 686 29 q 682 9 686 14 q 666 2 677 5 q 634 -3 654 -1 q 584 -4 614 -4 q 538 -2 555 -4 q 511 3 521 -1 q 499 13 502 7 q 494 27 496 19 l 460 222 q 446 281 455 256 q 422 325 437 307 q 388 350 408 342 q 338 359 367 359 l 283 359 l 216 24 q 209 12 214 17 q 192 3 203 6 q 163 -2 181 -1 q 120 -4 146 -4 q 78 -2 94 -4 q 52 3 61 -1 q 39 11 42 6 q 37 24 35 16 l 197 821 q 221 864 203 851 q 264 878 240 878 l 500 878 q 611 866 562 878 q 696 831 661 854 q 751 771 732 807 q 770 686 770 735 m 578 653 q 572 688 578 672 q 551 716 566 705 q 514 735 537 728 q 460 741 492 741 l 359 741 l 309 492 l 394 492 q 480 507 445 492 q 537 545 515 522 q 569 596 559 568 q 578 653 578 624 m 562 964 q 548 953 555 958 q 531 946 541 949 q 506 942 521 943 q 471 940 492 940 q 414 949 425 940 q 421 976 404 958 l 549 1114 q 567 1130 558 1124 q 588 1139 576 1136 q 617 1144 600 1143 q 659 1145 634 1145 q 707 1141 690 1145 q 730 1131 724 1137 q 733 1116 736 1124 q 719 1099 729 1108 l 562 964 m 199 878 z "},"Ř":{"ha":782,"x_min":35,"x_max":776,"o":"m 770 686 q 758 600 770 643 q 720 519 746 557 q 653 451 694 481 q 553 402 612 420 q 608 351 586 389 q 644 246 630 313 l 680 68 q 685 41 683 53 q 686 21 686 29 q 682 9 686 14 q 666 2 677 5 q 634 -3 654 -1 q 584 -4 614 -4 q 538 -2 555 -4 q 511 3 521 -1 q 499 13 502 7 q 494 27 496 19 l 460 222 q 446 281 455 256 q 422 325 437 307 q 388 350 408 342 q 338 359 367 359 l 283 359 l 216 24 q 209 12 214 17 q 192 3 203 6 q 163 -2 181 -1 q 120 -4 146 -4 q 78 -2 94 -4 q 52 3 61 -1 q 39 11 42 6 q 37 24 35 16 l 197 821 q 221 864 203 851 q 264 878 240 878 l 500 878 q 611 866 562 878 q 696 831 661 854 q 751 771 732 807 q 770 686 770 735 m 578 653 q 572 688 578 672 q 551 716 566 705 q 514 735 537 728 q 460 741 492 741 l 359 741 l 309 492 l 394 492 q 480 507 445 492 q 537 545 515 522 q 569 596 559 568 q 578 653 578 624 m 600 968 q 581 954 591 959 q 558 945 570 948 q 529 941 545 943 q 490 940 513 940 q 454 941 468 940 q 429 944 439 941 q 412 953 419 947 q 399 968 406 959 l 293 1113 q 286 1129 286 1123 q 292 1139 285 1136 q 313 1144 298 1143 q 351 1145 328 1145 q 396 1144 379 1145 q 421 1141 412 1143 q 435 1135 431 1139 q 444 1124 439 1131 l 505 1031 l 606 1123 q 621 1134 614 1129 q 640 1141 628 1138 q 670 1144 652 1143 q 716 1145 688 1145 q 752 1144 739 1145 q 771 1138 766 1142 q 773 1128 776 1135 q 760 1113 770 1122 l 600 968 m 54 878 z "},"Ŗ":{"ha":782,"x_min":35,"x_max":770,"o":"m 770 686 q 758 600 770 643 q 720 519 746 557 q 653 451 694 481 q 553 402 612 420 q 608 351 586 389 q 644 246 630 313 l 680 68 q 685 41 683 53 q 686 21 686 29 q 682 9 686 14 q 666 2 677 5 q 634 -3 654 -1 q 584 -4 614 -4 q 538 -2 555 -4 q 511 3 521 -1 q 499 13 502 7 q 494 27 496 19 l 460 222 q 446 281 455 256 q 422 325 437 307 q 388 350 408 342 q 338 359 367 359 l 283 359 l 216 24 q 209 12 214 17 q 192 3 203 6 q 163 -2 181 -1 q 120 -4 146 -4 q 78 -2 94 -4 q 52 3 61 -1 q 39 11 42 6 q 37 24 35 16 l 197 821 q 221 864 203 851 q 264 878 240 878 l 500 878 q 611 866 562 878 q 696 831 661 854 q 751 771 732 807 q 770 686 770 735 m 578 653 q 572 688 578 672 q 551 716 566 705 q 514 735 537 728 q 460 741 492 741 l 359 741 l 309 492 l 394 492 q 480 507 445 492 q 537 545 515 522 q 569 596 559 568 q 578 653 578 624 m 313 -224 q 303 -235 308 -231 q 289 -242 298 -239 q 266 -247 280 -245 q 230 -248 252 -248 q 197 -246 209 -248 q 179 -240 184 -244 q 175 -229 174 -235 q 180 -212 175 -222 l 239 -83 q 249 -70 243 -76 q 266 -61 255 -64 q 295 -56 277 -58 q 340 -55 313 -55 q 382 -58 367 -55 q 404 -65 397 -60 q 408 -78 410 -71 q 400 -95 407 -85 l 313 -224 z "},"S":{"ha":646,"x_min":-1,"x_max":650,"o":"m 650 810 q 649 795 650 805 q 646 772 648 785 q 641 748 644 760 q 634 725 638 735 q 624 707 629 714 q 612 701 618 701 q 589 709 603 701 q 554 727 574 718 q 505 746 533 737 q 442 754 477 754 q 380 744 406 754 q 338 717 355 734 q 314 680 322 701 q 307 638 307 659 q 319 595 307 614 q 351 561 331 576 q 398 530 372 545 q 451 498 424 515 q 504 463 477 482 q 550 418 530 444 q 583 360 570 393 q 595 284 595 327 q 569 166 595 220 q 496 71 543 111 q 382 7 449 31 q 234 -16 315 -16 q 153 -8 190 -16 q 86 9 115 -1 q 38 30 58 19 q 9 52 18 41 q -1 82 -1 62 q 1 98 -1 87 q 4 122 2 109 q 10 148 7 134 q 18 172 14 161 q 29 189 23 182 q 41 196 35 196 q 69 185 53 196 q 109 162 85 175 q 165 139 132 150 q 243 128 197 128 q 313 138 283 128 q 363 166 343 149 q 394 207 384 184 q 405 258 405 231 q 393 302 405 283 q 360 337 380 321 q 315 368 340 353 q 263 398 290 382 q 211 433 237 414 q 166 478 186 452 q 134 536 146 503 q 121 614 121 570 q 146 726 121 675 q 214 815 170 778 q 317 872 257 852 q 450 893 378 893 q 515 888 484 893 q 570 875 545 883 q 613 858 595 867 q 637 842 631 848 q 647 828 644 836 q 650 810 650 821 z "},"Ś":{"ha":646,"x_min":-1,"x_max":688,"o":"m 650 810 q 649 795 650 805 q 646 772 648 785 q 641 748 644 760 q 634 725 638 735 q 624 707 629 714 q 612 701 618 701 q 589 709 603 701 q 554 727 574 718 q 505 746 533 737 q 442 754 477 754 q 380 744 406 754 q 338 717 355 734 q 314 680 322 701 q 307 638 307 659 q 319 595 307 614 q 351 561 331 576 q 398 530 372 545 q 451 498 424 515 q 504 463 477 482 q 550 418 530 444 q 583 360 570 393 q 595 284 595 327 q 569 166 595 220 q 496 71 543 111 q 382 7 449 31 q 234 -16 315 -16 q 153 -8 190 -16 q 86 9 115 -1 q 38 30 58 19 q 9 52 18 41 q -1 82 -1 62 q 1 98 -1 87 q 4 122 2 109 q 10 148 7 134 q 18 172 14 161 q 29 189 23 182 q 41 196 35 196 q 69 185 53 196 q 109 162 85 175 q 165 139 132 150 q 243 128 197 128 q 313 138 283 128 q 363 166 343 149 q 394 207 384 184 q 405 258 405 231 q 393 302 405 283 q 360 337 380 321 q 315 368 340 353 q 263 398 290 382 q 211 433 237 414 q 166 478 186 452 q 134 536 146 503 q 121 614 121 570 q 146 726 121 675 q 214 815 170 778 q 317 872 257 852 q 450 893 378 893 q 515 888 484 893 q 570 875 545 883 q 613 858 595 867 q 637 842 631 848 q 647 828 644 836 q 650 810 650 821 m 513 964 q 499 953 506 958 q 482 946 492 949 q 457 942 472 943 q 422 940 443 940 q 365 949 376 940 q 372 976 355 958 l 500 1114 q 518 1130 509 1124 q 539 1139 527 1136 q 568 1144 551 1143 q 610 1145 585 1145 q 659 1141 642 1145 q 682 1131 675 1137 q 684 1116 688 1124 q 670 1099 680 1108 l 513 964 m 150 878 z "},"Ŝ":{"ha":646,"x_min":-1,"x_max":693,"o":"m 650 810 q 649 795 650 805 q 646 772 648 785 q 641 748 644 760 q 634 725 638 735 q 624 707 629 714 q 612 701 618 701 q 589 709 603 701 q 554 727 574 718 q 505 746 533 737 q 442 754 477 754 q 380 744 406 754 q 338 717 355 734 q 314 680 322 701 q 307 638 307 659 q 319 595 307 614 q 351 561 331 576 q 398 530 372 545 q 451 498 424 515 q 504 463 477 482 q 550 418 530 444 q 583 360 570 393 q 595 284 595 327 q 569 166 595 220 q 496 71 543 111 q 382 7 449 31 q 234 -16 315 -16 q 153 -8 190 -16 q 86 9 115 -1 q 38 30 58 19 q 9 52 18 41 q -1 82 -1 62 q 1 98 -1 87 q 4 122 2 109 q 10 148 7 134 q 18 172 14 161 q 29 189 23 182 q 41 196 35 196 q 69 185 53 196 q 109 162 85 175 q 165 139 132 150 q 243 128 197 128 q 313 138 283 128 q 363 166 343 149 q 394 207 384 184 q 405 258 405 231 q 393 302 405 283 q 360 337 380 321 q 315 368 340 353 q 263 398 290 382 q 211 433 237 414 q 166 478 186 452 q 134 536 146 503 q 121 614 121 570 q 146 726 121 675 q 214 815 170 778 q 317 872 257 852 q 450 893 378 893 q 515 888 484 893 q 570 875 545 883 q 613 858 595 867 q 637 842 631 848 q 647 828 644 836 q 650 810 650 821 m 686 972 q 692 957 692 963 q 686 946 693 950 q 665 941 680 943 q 628 940 651 940 q 583 941 600 940 q 556 944 566 942 q 542 951 547 947 q 534 961 538 955 l 473 1054 l 372 963 q 357 951 364 956 q 338 944 350 947 q 309 941 327 942 q 263 940 291 940 q 227 942 240 940 q 208 947 213 943 q 206 957 203 951 q 219 972 209 963 l 380 1118 q 399 1132 389 1126 q 421 1140 409 1137 q 450 1144 433 1143 q 489 1145 466 1145 q 525 1145 511 1145 q 550 1141 540 1144 q 567 1133 559 1139 q 581 1118 574 1127 l 686 972 m 8 878 z "},"Š":{"ha":646,"x_min":-1,"x_max":733,"o":"m 650 810 q 649 795 650 805 q 646 772 648 785 q 641 748 644 760 q 634 725 638 735 q 624 707 629 714 q 612 701 618 701 q 589 709 603 701 q 554 727 574 718 q 505 746 533 737 q 442 754 477 754 q 380 744 406 754 q 338 717 355 734 q 314 680 322 701 q 307 638 307 659 q 319 595 307 614 q 351 561 331 576 q 398 530 372 545 q 451 498 424 515 q 504 463 477 482 q 550 418 530 444 q 583 360 570 393 q 595 284 595 327 q 569 166 595 220 q 496 71 543 111 q 382 7 449 31 q 234 -16 315 -16 q 153 -8 190 -16 q 86 9 115 -1 q 38 30 58 19 q 9 52 18 41 q -1 82 -1 62 q 1 98 -1 87 q 4 122 2 109 q 10 148 7 134 q 18 172 14 161 q 29 189 23 182 q 41 196 35 196 q 69 185 53 196 q 109 162 85 175 q 165 139 132 150 q 243 128 197 128 q 313 138 283 128 q 363 166 343 149 q 394 207 384 184 q 405 258 405 231 q 393 302 405 283 q 360 337 380 321 q 315 368 340 353 q 263 398 290 382 q 211 433 237 414 q 166 478 186 452 q 134 536 146 503 q 121 614 121 570 q 146 726 121 675 q 214 815 170 778 q 317 872 257 852 q 450 893 378 893 q 515 888 484 893 q 570 875 545 883 q 613 858 595 867 q 637 842 631 848 q 647 828 644 836 q 650 810 650 821 m 557 968 q 538 954 548 959 q 515 945 528 948 q 486 941 503 943 q 447 940 470 940 q 411 941 425 940 q 387 944 397 941 q 370 953 376 947 q 356 968 363 959 l 250 1113 q 243 1129 243 1123 q 249 1139 242 1136 q 270 1144 256 1143 q 308 1145 285 1145 q 353 1144 336 1145 q 379 1141 370 1143 q 392 1135 388 1139 q 401 1124 397 1131 l 463 1031 l 564 1123 q 578 1134 571 1129 q 597 1141 585 1138 q 627 1144 609 1143 q 673 1145 645 1145 q 710 1144 696 1145 q 728 1138 723 1142 q 730 1128 733 1135 q 718 1113 727 1122 l 557 968 m 11 878 z "},"Ş":{"ha":646,"x_min":-1,"x_max":650,"o":"m 184 -13 q 93 6 128 -6 q 38 30 58 19 q 9 52 18 41 q -1 82 -1 62 q 1 98 -1 87 q 4 122 2 109 q 10 148 7 134 q 18 172 14 161 q 29 189 23 182 q 41 196 35 196 q 69 185 53 196 q 109 162 85 175 q 165 139 132 150 q 243 128 197 128 q 313 138 283 128 q 363 166 343 149 q 394 207 384 184 q 405 258 405 231 q 393 302 405 283 q 360 337 380 321 q 315 368 340 353 q 263 398 290 382 q 211 433 237 414 q 166 478 186 452 q 134 536 146 503 q 121 614 121 570 q 146 726 121 675 q 214 815 170 778 q 317 872 257 852 q 450 893 378 893 q 515 888 484 893 q 570 875 545 883 q 613 858 595 867 q 637 842 631 848 q 647 828 644 836 q 650 810 650 821 q 649 795 650 805 q 646 772 648 785 q 641 748 644 760 q 634 725 638 735 q 624 707 629 714 q 612 701 618 701 q 589 709 603 701 q 554 727 574 718 q 505 746 533 737 q 442 754 477 754 q 380 744 406 754 q 338 717 355 734 q 314 680 322 701 q 307 638 307 659 q 319 595 307 614 q 351 561 331 576 q 398 530 372 545 q 451 498 424 515 q 504 463 477 482 q 550 418 530 444 q 583 360 570 393 q 595 284 595 327 q 569 166 595 220 q 500 75 544 113 q 405 16 457 37 q 317 -8 353 -4 l 326 -45 q 334 -77 331 -62 q 336 -106 336 -92 q 324 -170 336 -143 q 291 -214 312 -197 q 239 -239 269 -231 q 172 -248 209 -248 q 134 -246 153 -248 q 100 -242 115 -245 q 72 -235 84 -239 q 52 -228 59 -231 q 41 -219 44 -224 q 39 -206 39 -215 q 40 -187 39 -199 q 46 -163 42 -175 q 57 -141 50 -151 q 75 -132 64 -132 l 153 -132 q 171 -130 162 -132 q 186 -123 180 -127 q 196 -111 193 -119 q 200 -94 200 -104 q 199 -79 200 -87 q 196 -61 198 -70 l 184 -13 z "},"Ș":{"ha":646,"x_min":-1,"x_max":650,"o":"m 650 810 q 649 795 650 805 q 646 772 648 785 q 641 748 644 760 q 634 725 638 735 q 624 707 629 714 q 612 701 618 701 q 589 709 603 701 q 554 727 574 718 q 505 746 533 737 q 442 754 477 754 q 380 744 406 754 q 338 717 355 734 q 314 680 322 701 q 307 638 307 659 q 319 595 307 614 q 351 561 331 576 q 398 530 372 545 q 451 498 424 515 q 504 463 477 482 q 550 418 530 444 q 583 360 570 393 q 595 284 595 327 q 569 166 595 220 q 496 71 543 111 q 382 7 449 31 q 234 -16 315 -16 q 153 -8 190 -16 q 86 9 115 -1 q 38 30 58 19 q 9 52 18 41 q -1 82 -1 62 q 1 98 -1 87 q 4 122 2 109 q 10 148 7 134 q 18 172 14 161 q 29 189 23 182 q 41 196 35 196 q 69 185 53 196 q 109 162 85 175 q 165 139 132 150 q 243 128 197 128 q 313 138 283 128 q 363 166 343 149 q 394 207 384 184 q 405 258 405 231 q 393 302 405 283 q 360 337 380 321 q 315 368 340 353 q 263 398 290 382 q 211 433 237 414 q 166 478 186 452 q 134 536 146 503 q 121 614 121 570 q 146 726 121 675 q 214 815 170 778 q 317 872 257 852 q 450 893 378 893 q 515 888 484 893 q 570 875 545 883 q 613 858 595 867 q 637 842 631 848 q 647 828 644 836 q 650 810 650 821 m 219 -224 q 209 -235 214 -231 q 195 -242 204 -239 q 172 -247 186 -245 q 136 -248 158 -248 q 103 -246 115 -248 q 86 -240 91 -244 q 81 -229 81 -235 q 86 -212 81 -222 l 146 -83 q 155 -70 149 -76 q 172 -61 161 -64 q 201 -56 183 -58 q 246 -55 219 -55 q 289 -58 273 -55 q 310 -65 304 -60 q 315 -78 316 -71 q 307 -95 313 -85 l 219 -224 z "},"T":{"ha":688,"x_min":101,"x_max":783,"o":"m 783 849 q 782 834 783 844 q 779 810 781 823 q 773 784 777 798 q 764 758 769 770 q 752 739 759 747 q 736 732 745 732 l 516 732 l 375 24 q 368 12 373 18 q 351 3 362 7 q 322 -2 340 0 q 279 -4 305 -4 q 236 -2 253 -4 q 210 3 219 0 q 198 12 201 7 q 196 24 195 18 l 337 732 l 119 732 q 105 739 109 732 q 101 760 101 747 q 102 775 101 765 q 105 799 103 786 q 112 826 108 812 q 121 852 115 840 q 133 870 126 863 q 148 878 140 878 l 766 878 q 779 870 774 878 q 783 849 783 863 z "},"Ť":{"ha":688,"x_min":14,"x_max":783,"o":"m 783 849 q 782 834 783 844 q 779 810 781 823 q 773 784 777 798 q 764 758 769 770 q 752 739 759 747 q 736 732 745 732 l 516 732 l 375 24 q 368 12 373 18 q 351 3 362 7 q 322 -2 340 0 q 279 -4 305 -4 q 236 -2 253 -4 q 210 3 219 0 q 198 12 201 7 q 196 24 195 18 l 337 732 l 119 732 q 105 739 109 732 q 101 760 101 747 q 102 775 101 765 q 105 799 103 786 q 112 826 108 812 q 121 852 115 840 q 133 870 126 863 q 148 878 140 878 l 766 878 q 779 870 774 878 q 783 849 783 863 m 560 968 q 541 954 551 959 q 518 945 531 948 q 490 941 506 943 q 450 940 473 940 q 414 941 429 940 q 390 944 400 941 q 373 953 380 947 q 359 968 366 959 l 254 1113 q 246 1129 247 1123 q 252 1139 245 1136 q 274 1144 259 1143 q 311 1145 288 1145 q 356 1144 340 1145 q 382 1141 373 1143 q 396 1135 391 1139 q 404 1124 400 1131 l 466 1031 l 567 1123 q 582 1134 574 1129 q 601 1141 589 1138 q 630 1144 612 1143 q 677 1145 648 1145 q 713 1144 700 1145 q 731 1138 726 1142 q 733 1128 736 1135 q 721 1113 730 1122 l 560 968 m 14 878 z "},"Ț":{"ha":688,"x_min":101,"x_max":783,"o":"m 783 849 q 782 834 783 844 q 779 810 781 823 q 773 784 777 798 q 764 758 769 770 q 752 739 759 747 q 736 732 745 732 l 516 732 l 375 24 q 368 12 373 18 q 351 3 362 7 q 322 -2 340 0 q 279 -4 305 -4 q 236 -2 253 -4 q 210 3 219 0 q 198 12 201 7 q 196 24 195 18 l 337 732 l 119 732 q 105 739 109 732 q 101 760 101 747 q 102 775 101 765 q 105 799 103 786 q 112 826 108 812 q 121 852 115 840 q 133 870 126 863 q 148 878 140 878 l 766 878 q 779 870 774 878 q 783 849 783 863 m 252 -224 q 242 -235 247 -231 q 228 -242 237 -239 q 205 -247 219 -245 q 169 -248 191 -248 q 136 -246 148 -248 q 118 -240 123 -244 q 114 -229 113 -235 q 119 -212 114 -222 l 178 -83 q 188 -70 182 -76 q 205 -61 194 -64 q 234 -56 216 -58 q 279 -55 252 -55 q 321 -58 306 -55 q 342 -65 336 -60 q 347 -78 349 -71 q 339 -95 346 -85 l 252 -224 z "},"Ŧ":{"ha":688,"x_min":96,"x_max":783,"o":"m 471 505 l 621 505 q 635 497 631 505 q 640 476 640 490 q 638 461 640 471 q 635 439 637 452 q 629 415 633 427 q 620 392 625 402 q 609 374 615 381 q 594 368 602 368 l 444 368 l 375 23 q 368 11 373 16 q 351 3 362 6 q 323 -2 340 -1 q 279 -4 306 -4 q 237 -2 254 -4 q 210 3 220 -1 q 198 11 201 6 q 196 23 195 16 l 264 368 l 114 368 q 100 375 104 368 q 96 396 96 382 q 97 410 96 400 q 100 432 98 420 q 106 457 102 444 q 114 480 109 470 q 125 498 119 491 q 142 505 132 505 l 292 505 l 337 732 l 117 732 q 104 740 107 732 q 100 760 100 748 q 101 775 100 765 q 105 799 102 785 q 111 826 107 812 q 119 851 114 840 q 131 870 124 863 q 146 878 138 878 l 765 878 q 779 870 774 878 q 783 850 783 863 q 781 833 783 844 q 778 810 780 823 q 771 783 775 797 q 763 758 768 769 q 751 739 758 746 q 736 732 744 732 l 515 732 l 471 505 z "},"U":{"ha":907,"x_min":80,"x_max":920,"o":"m 813 323 q 760 176 796 239 q 671 70 724 113 q 548 6 617 27 q 394 -16 478 -16 q 240 6 304 -16 q 139 72 176 28 q 91 181 102 115 q 98 332 80 246 l 202 853 q 209 865 203 860 q 225 874 214 871 q 253 880 236 878 q 297 882 271 882 q 340 880 323 882 q 366 874 357 878 q 379 865 376 871 q 380 853 382 860 l 276 332 q 270 242 265 280 q 293 179 275 204 q 341 143 311 155 q 414 131 372 131 q 495 144 458 131 q 560 183 532 157 q 609 245 589 208 q 638 328 629 281 l 743 853 q 750 865 745 860 q 765 874 755 871 q 793 880 776 878 q 837 882 811 882 q 879 880 863 882 q 905 874 895 878 q 917 865 914 871 q 919 853 920 860 l 813 323 z "},"Ù":{"ha":907,"x_min":80,"x_max":920,"o":"m 813 323 q 760 176 796 239 q 671 70 724 113 q 548 6 617 27 q 394 -16 478 -16 q 240 6 304 -16 q 139 72 176 28 q 91 181 102 115 q 98 332 80 246 l 202 853 q 209 865 203 860 q 225 874 214 871 q 253 880 236 878 q 297 882 271 882 q 340 880 323 882 q 366 874 357 878 q 379 865 376 871 q 380 853 382 860 l 276 332 q 270 242 265 280 q 293 179 275 204 q 341 143 311 155 q 414 131 372 131 q 495 144 458 131 q 560 183 532 157 q 609 245 589 208 q 638 328 629 281 l 743 853 q 750 865 745 860 q 765 874 755 871 q 793 880 776 878 q 837 882 811 882 q 879 880 863 882 q 905 874 895 878 q 917 865 914 871 q 919 853 920 860 l 813 323 m 625 976 q 634 960 633 966 q 630 948 636 953 q 609 942 623 944 q 573 940 595 940 q 538 941 552 940 q 514 946 524 943 q 497 953 504 949 q 483 964 490 958 l 338 1099 q 326 1116 328 1108 q 330 1131 323 1124 q 354 1141 336 1137 q 402 1145 372 1145 q 444 1144 427 1145 q 473 1140 460 1143 q 493 1131 485 1137 q 509 1114 501 1124 l 625 976 m 106 878 z "},"Ú":{"ha":907,"x_min":80,"x_max":920,"o":"m 813 323 q 760 176 796 239 q 671 70 724 113 q 548 6 617 27 q 394 -16 478 -16 q 240 6 304 -16 q 139 72 176 28 q 91 181 102 115 q 98 332 80 246 l 202 853 q 209 865 203 860 q 225 874 214 871 q 253 880 236 878 q 297 882 271 882 q 340 880 323 882 q 366 874 357 878 q 379 865 376 871 q 380 853 382 860 l 276 332 q 270 242 265 280 q 293 179 275 204 q 341 143 311 155 q 414 131 372 131 q 495 144 458 131 q 560 183 532 157 q 609 245 589 208 q 638 328 629 281 l 743 853 q 750 865 745 860 q 765 874 755 871 q 793 880 776 878 q 837 882 811 882 q 879 880 863 882 q 905 874 895 878 q 917 865 914 871 q 919 853 920 860 l 813 323 m 649 964 q 634 953 642 958 q 617 946 627 949 q 593 942 608 943 q 557 940 578 940 q 501 949 511 940 q 508 976 490 958 l 636 1114 q 654 1130 645 1124 q 675 1139 663 1136 q 704 1144 687 1143 q 745 1145 721 1145 q 794 1141 777 1145 q 817 1131 811 1137 q 820 1116 823 1124 q 806 1099 816 1108 l 649 964 m 286 878 z "},"Û":{"ha":907,"x_min":80,"x_max":920,"o":"m 813 323 q 760 176 796 239 q 671 70 724 113 q 548 6 617 27 q 394 -16 478 -16 q 240 6 304 -16 q 139 72 176 28 q 91 181 102 115 q 98 332 80 246 l 202 853 q 209 865 203 860 q 225 874 214 871 q 253 880 236 878 q 297 882 271 882 q 340 880 323 882 q 366 874 357 878 q 379 865 376 871 q 380 853 382 860 l 276 332 q 270 242 265 280 q 293 179 275 204 q 341 143 311 155 q 414 131 372 131 q 495 144 458 131 q 560 183 532 157 q 609 245 589 208 q 638 328 629 281 l 743 853 q 750 865 745 860 q 765 874 755 871 q 793 880 776 878 q 837 882 811 882 q 879 880 863 882 q 905 874 895 878 q 917 865 914 871 q 919 853 920 860 l 813 323 m 809 972 q 816 957 815 963 q 810 946 817 950 q 789 941 803 943 q 751 940 774 940 q 706 941 723 940 q 680 944 690 942 q 666 951 670 947 q 657 961 661 955 l 596 1054 l 495 963 q 480 951 488 956 q 462 944 473 947 q 432 941 450 942 q 387 940 414 940 q 350 942 363 940 q 331 947 336 943 q 329 957 326 951 q 342 972 332 963 l 504 1118 q 523 1132 513 1126 q 545 1140 532 1137 q 573 1144 557 1143 q 612 1145 589 1145 q 649 1145 634 1145 q 673 1141 663 1144 q 690 1133 683 1139 q 704 1118 697 1127 l 809 972 m 132 878 z "},"Ũ":{"ha":907,"x_min":80,"x_max":920,"o":"m 813 323 q 760 176 796 239 q 671 70 724 113 q 548 6 617 27 q 394 -16 478 -16 q 240 6 304 -16 q 139 72 176 28 q 91 181 102 115 q 98 332 80 246 l 202 853 q 209 865 203 860 q 225 874 214 871 q 253 880 236 878 q 297 882 271 882 q 340 880 323 882 q 366 874 357 878 q 379 865 376 871 q 380 853 382 860 l 276 332 q 270 242 265 280 q 293 179 275 204 q 341 143 311 155 q 414 131 372 131 q 495 144 458 131 q 560 183 532 157 q 609 245 589 208 q 638 328 629 281 l 743 853 q 750 865 745 860 q 765 874 755 871 q 793 880 776 878 q 837 882 811 882 q 879 880 863 882 q 905 874 895 878 q 917 865 914 871 q 919 853 920 860 l 813 323 m 736 1109 q 740 1118 737 1115 q 750 1124 743 1122 q 767 1126 756 1126 q 792 1127 777 1127 q 831 1123 822 1127 q 841 1109 841 1118 q 840 1093 841 1106 q 833 1060 838 1079 q 818 1021 828 1042 q 790 983 808 1000 q 746 954 772 965 q 680 942 719 942 q 617 952 644 942 q 570 976 591 963 q 531 999 549 988 q 493 1009 513 1009 q 458 996 470 1009 q 445 960 447 983 q 440 951 444 954 q 431 946 437 947 q 414 943 425 944 q 389 942 404 942 q 349 946 359 942 q 339 961 339 950 q 341 982 339 967 q 349 1015 342 997 q 366 1053 355 1034 q 394 1089 376 1073 q 438 1117 412 1106 q 502 1127 465 1127 q 564 1117 538 1127 q 611 1093 590 1106 q 650 1070 631 1080 q 688 1059 668 1059 q 721 1070 708 1059 q 736 1109 733 1082 m 136 878 z "},"Ü":{"ha":907,"x_min":80,"x_max":920,"o":"m 813 323 q 760 176 796 239 q 671 70 724 113 q 548 6 617 27 q 394 -16 478 -16 q 240 6 304 -16 q 139 72 176 28 q 91 181 102 115 q 98 332 80 246 l 202 853 q 209 865 203 860 q 225 874 214 871 q 253 880 236 878 q 297 882 271 882 q 340 880 323 882 q 366 874 357 878 q 379 865 376 871 q 380 853 382 860 l 276 332 q 270 242 265 280 q 293 179 275 204 q 341 143 311 155 q 414 131 372 131 q 495 144 458 131 q 560 183 532 157 q 609 245 589 208 q 638 328 629 281 l 743 853 q 750 865 745 860 q 765 874 755 871 q 793 880 776 878 q 837 882 811 882 q 879 880 863 882 q 905 874 895 878 q 917 865 914 871 q 919 853 920 860 l 813 323 m 827 1036 q 815 997 823 1013 q 795 972 808 981 q 765 959 783 962 q 723 955 747 955 q 681 959 697 955 q 656 972 665 962 q 646 997 648 981 q 649 1036 645 1013 q 661 1078 654 1061 q 680 1105 668 1095 q 710 1119 692 1115 q 753 1123 728 1123 q 794 1119 778 1123 q 819 1105 810 1115 q 830 1078 828 1095 q 827 1036 831 1061 m 531 1036 q 519 997 527 1013 q 499 972 512 981 q 469 959 487 962 q 427 955 451 955 q 385 959 401 955 q 360 972 369 962 q 350 997 351 981 q 353 1036 349 1013 q 365 1078 357 1061 q 384 1105 372 1095 q 414 1119 396 1115 q 458 1123 432 1123 q 498 1119 482 1123 q 523 1105 514 1115 q 534 1078 532 1095 q 531 1036 536 1061 m 139 878 z "},"Ū":{"ha":907,"x_min":80,"x_max":920,"o":"m 813 323 q 760 176 796 239 q 671 70 724 113 q 548 6 617 27 q 394 -16 478 -16 q 240 6 304 -16 q 139 72 176 28 q 91 181 102 115 q 98 332 80 246 l 202 853 q 209 865 203 860 q 225 874 214 871 q 253 880 236 878 q 297 882 271 882 q 340 880 323 882 q 366 874 357 878 q 379 865 376 871 q 380 853 382 860 l 276 332 q 270 242 265 280 q 293 179 275 204 q 341 143 311 155 q 414 131 372 131 q 495 144 458 131 q 560 183 532 157 q 609 245 589 208 q 638 328 629 281 l 743 853 q 750 865 745 860 q 765 874 755 871 q 793 880 776 878 q 837 882 811 882 q 879 880 863 882 q 905 874 895 878 q 917 865 914 871 q 919 853 920 860 l 813 323 m 822 1070 q 821 1055 822 1065 q 818 1035 820 1046 q 812 1013 815 1024 q 803 991 808 1001 q 792 976 798 982 q 777 970 785 970 l 377 970 q 360 977 365 970 q 355 997 355 983 q 356 1010 355 1001 q 359 1031 357 1020 q 365 1053 361 1042 q 374 1074 368 1065 q 386 1090 379 1084 q 403 1096 393 1096 l 803 1096 q 818 1089 813 1096 q 822 1070 822 1082 m 147 878 z "},"Ŭ":{"ha":907,"x_min":80,"x_max":920,"o":"m 813 323 q 760 176 796 239 q 671 70 724 113 q 548 6 617 27 q 394 -16 478 -16 q 240 6 304 -16 q 139 72 176 28 q 91 181 102 115 q 98 332 80 246 l 202 853 q 209 865 203 860 q 225 874 214 871 q 253 880 236 878 q 297 882 271 882 q 340 880 323 882 q 366 874 357 878 q 379 865 376 871 q 380 853 382 860 l 276 332 q 270 242 265 280 q 293 179 275 204 q 341 143 311 155 q 414 131 372 131 q 495 144 458 131 q 560 183 532 157 q 609 245 589 208 q 638 328 629 281 l 743 853 q 750 865 745 860 q 765 874 755 871 q 793 880 776 878 q 837 882 811 882 q 879 880 863 882 q 905 874 895 878 q 917 865 914 871 q 919 853 920 860 l 813 323 m 811 1133 q 808 1108 811 1125 q 795 1070 804 1091 q 769 1025 785 1048 q 727 983 753 1002 q 664 952 701 964 q 577 940 627 940 q 491 951 525 940 q 435 980 456 962 q 406 1023 414 999 q 397 1074 397 1048 q 398 1092 397 1082 q 400 1112 399 1102 q 404 1129 401 1121 q 410 1139 407 1137 q 429 1148 416 1145 q 464 1151 441 1151 q 492 1149 481 1151 q 509 1145 503 1148 q 517 1139 515 1143 q 519 1130 519 1135 q 518 1117 519 1124 q 517 1103 517 1110 q 521 1080 517 1090 q 533 1063 525 1069 q 554 1052 541 1056 q 587 1048 568 1048 q 622 1053 606 1048 q 652 1066 639 1057 q 676 1090 666 1076 q 692 1125 686 1104 q 699 1137 694 1132 q 710 1145 703 1141 q 728 1149 717 1148 q 757 1151 740 1151 q 785 1149 774 1151 q 801 1146 795 1148 q 809 1140 807 1144 q 811 1133 811 1137 m 172 878 z "},"Ů":{"ha":907,"x_min":80,"x_max":920,"o":"m 813 323 q 760 176 796 239 q 671 70 724 113 q 548 6 617 27 q 394 -16 478 -16 q 240 6 304 -16 q 139 72 176 28 q 91 181 102 115 q 98 332 80 246 l 202 853 q 209 865 203 860 q 225 874 214 871 q 253 880 236 878 q 297 882 271 882 q 340 880 323 882 q 366 874 357 878 q 379 865 376 871 q 380 853 382 860 l 276 332 q 270 242 265 280 q 293 179 275 204 q 341 143 311 155 q 414 131 372 131 q 495 144 458 131 q 560 183 532 157 q 609 245 589 208 q 638 328 629 281 l 743 853 q 750 865 745 860 q 765 874 755 871 q 793 880 776 878 q 837 882 811 882 q 879 880 863 882 q 905 874 895 878 q 917 865 914 871 q 919 853 920 860 l 813 323 m 755 1076 q 745 1018 755 1046 q 713 967 735 989 q 656 932 691 945 q 573 919 622 919 q 507 927 534 919 q 462 951 479 936 q 437 986 445 966 q 429 1030 429 1006 q 433 1068 429 1048 q 447 1104 437 1087 q 470 1137 456 1122 q 504 1164 484 1153 q 551 1182 524 1176 q 611 1189 577 1189 q 678 1180 650 1189 q 722 1156 705 1171 q 747 1119 739 1140 q 755 1076 755 1099 m 650 1063 q 648 1082 650 1073 q 639 1097 645 1090 q 623 1108 633 1104 q 597 1112 612 1112 q 569 1106 581 1112 q 549 1091 557 1101 q 538 1068 542 1081 q 534 1042 534 1055 q 537 1024 534 1033 q 546 1009 540 1016 q 561 999 551 1003 q 586 995 571 995 q 614 1000 602 995 q 634 1015 627 1006 q 646 1037 642 1024 q 650 1063 650 1049 m 214 878 z "},"Ű":{"ha":907,"x_min":80,"x_max":974,"o":"m 813 323 q 760 176 796 239 q 671 70 724 113 q 548 6 617 27 q 394 -16 478 -16 q 240 6 304 -16 q 139 72 176 28 q 91 181 102 115 q 98 332 80 246 l 202 853 q 209 865 203 860 q 225 874 214 871 q 253 880 236 878 q 297 882 271 882 q 340 880 323 882 q 366 874 357 878 q 379 865 376 871 q 380 853 382 860 l 276 332 q 270 242 265 280 q 293 179 275 204 q 341 143 311 155 q 414 131 372 131 q 495 144 458 131 q 560 183 532 157 q 609 245 589 208 q 638 328 629 281 l 743 853 q 750 865 745 860 q 765 874 755 871 q 793 880 776 878 q 837 882 811 882 q 879 880 863 882 q 905 874 895 878 q 917 865 914 871 q 919 853 920 860 l 813 323 m 790 957 q 777 947 783 951 q 760 942 770 944 q 738 940 751 941 q 704 940 724 940 q 669 942 683 940 q 649 947 656 943 q 642 955 642 950 q 647 966 642 960 l 778 1126 q 789 1137 783 1133 q 808 1145 796 1141 q 839 1149 821 1148 q 886 1151 857 1151 q 939 1148 919 1151 q 966 1141 958 1146 q 972 1130 974 1137 q 960 1115 970 1123 l 790 957 m 496 956 q 485 947 491 950 q 469 942 478 944 q 447 940 460 941 q 415 940 433 940 q 368 947 378 940 q 368 969 357 955 l 486 1126 q 499 1138 492 1133 q 518 1145 507 1142 q 546 1149 530 1148 q 585 1151 563 1151 q 642 1149 622 1151 q 671 1142 663 1147 q 676 1131 679 1137 q 664 1116 673 1124 l 496 956 m 151 878 z "},"Ų":{"ha":907,"x_min":79,"x_max":920,"o":"m 814 327 q 789 237 804 279 q 750 158 773 195 q 696 92 727 122 q 625 39 665 62 q 594 19 608 28 q 567 0 580 9 q 544 -18 555 -9 q 522 -37 533 -27 l 485 -67 q 465 -90 471 -81 q 458 -109 458 -99 q 467 -126 458 -119 q 494 -132 475 -132 l 559 -132 q 575 -136 572 -132 q 578 -149 578 -140 q 577 -166 578 -156 q 572 -188 575 -177 q 565 -208 569 -199 q 557 -220 562 -216 q 537 -231 551 -227 q 504 -240 522 -236 q 466 -245 486 -243 q 431 -248 446 -248 q 366 -241 394 -248 q 319 -222 338 -235 q 290 -192 300 -210 q 281 -150 281 -174 q 297 -92 281 -119 q 348 -37 314 -65 l 379 -11 q 369 -12 374 -12 q 360 -12 365 -12 q 233 8 290 -12 q 141 71 177 29 q 92 177 104 113 q 96 327 79 240 l 202 854 q 209 866 203 861 q 225 875 214 871 q 253 880 236 878 q 297 882 271 882 q 340 880 323 882 q 366 875 357 878 q 379 866 376 871 q 380 854 382 861 l 276 332 q 291 181 256 232 q 416 131 326 131 q 495 144 458 131 q 559 182 531 157 q 608 243 588 208 q 637 325 628 279 l 743 854 q 750 866 745 861 q 765 875 755 871 q 793 880 776 878 q 837 882 811 882 q 879 880 863 882 q 905 875 895 878 q 917 866 914 871 q 919 854 920 861 l 814 327 z "},"V":{"ha":821,"x_min":122,"x_max":914,"o":"m 476 31 q 463 13 470 20 q 444 2 456 5 q 409 -3 431 -2 q 353 -4 388 -4 q 290 -3 313 -4 q 254 2 266 -2 q 237 13 241 5 q 231 33 233 20 l 124 826 q 123 856 122 844 q 132 872 123 867 q 160 880 141 878 q 212 882 178 882 q 263 880 245 882 q 292 875 282 879 q 304 865 302 871 q 309 847 307 858 l 383 172 l 385 172 l 726 850 q 736 866 730 859 q 754 876 743 872 q 784 880 765 879 q 833 882 802 882 q 884 880 865 882 q 908 870 902 878 q 909 848 914 863 q 892 809 905 833 l 476 31 z "},"W":{"ha":1259,"x_min":134,"x_max":1338,"o":"m 964 44 q 949 18 958 28 q 925 3 940 8 q 887 -3 910 -1 q 830 -4 865 -4 q 771 -3 793 -4 q 735 3 748 -1 q 718 16 723 7 q 713 39 713 25 l 681 602 l 680 602 l 436 44 q 421 18 429 28 q 401 3 414 8 q 366 -3 388 -1 q 308 -4 343 -4 q 243 -3 267 -4 q 205 3 218 -1 q 188 18 192 8 q 182 46 183 28 l 135 818 q 136 852 134 840 q 147 872 138 865 q 175 880 157 878 q 228 882 194 882 q 275 880 256 882 q 303 874 294 878 q 314 862 312 869 q 317 842 317 854 l 334 173 l 336 173 l 632 842 q 644 862 637 854 q 662 874 650 870 q 692 880 673 879 q 742 882 711 882 q 791 880 773 882 q 819 874 810 879 q 831 862 829 870 q 835 840 834 854 l 869 173 l 870 173 l 1158 850 q 1167 866 1162 859 q 1184 876 1173 872 q 1215 880 1196 879 q 1263 882 1234 882 q 1309 879 1293 882 q 1332 869 1326 877 q 1334 847 1338 862 q 1320 809 1330 833 l 964 44 z "},"Ẁ":{"ha":1259,"x_min":134,"x_max":1338,"o":"m 964 44 q 949 18 958 28 q 925 3 940 8 q 887 -3 910 -1 q 830 -4 865 -4 q 771 -3 793 -4 q 735 3 748 -1 q 718 16 723 7 q 713 39 713 25 l 681 602 l 680 602 l 436 44 q 421 18 429 28 q 401 3 414 8 q 366 -3 388 -1 q 308 -4 343 -4 q 243 -3 267 -4 q 205 3 218 -1 q 188 18 192 8 q 182 46 183 28 l 135 818 q 136 852 134 840 q 147 872 138 865 q 175 880 157 878 q 228 882 194 882 q 275 880 256 882 q 303 874 294 878 q 314 862 312 869 q 317 842 317 854 l 334 173 l 336 173 l 632 842 q 644 862 637 854 q 662 874 650 870 q 692 880 673 879 q 742 882 711 882 q 791 880 773 882 q 819 874 810 879 q 831 862 829 870 q 835 840 834 854 l 869 173 l 870 173 l 1158 850 q 1167 866 1162 859 q 1184 876 1173 872 q 1215 880 1196 879 q 1263 882 1234 882 q 1309 879 1293 882 q 1332 869 1326 877 q 1334 847 1338 862 q 1320 809 1330 833 l 964 44 m 816 976 q 825 960 823 966 q 820 948 827 953 q 800 942 814 944 q 764 940 786 940 q 728 941 743 940 q 704 946 714 943 q 687 953 694 949 q 673 964 680 958 l 528 1099 q 516 1116 519 1108 q 520 1131 513 1124 q 545 1141 527 1137 q 593 1145 562 1145 q 634 1144 618 1145 q 663 1140 651 1143 q 684 1131 675 1137 q 700 1114 692 1124 l 816 976 m 297 878 z "},"Ẃ":{"ha":1259,"x_min":134,"x_max":1338,"o":"m 964 44 q 949 18 958 28 q 925 3 940 8 q 887 -3 910 -1 q 830 -4 865 -4 q 771 -3 793 -4 q 735 3 748 -1 q 718 16 723 7 q 713 39 713 25 l 681 602 l 680 602 l 436 44 q 421 18 429 28 q 401 3 414 8 q 366 -3 388 -1 q 308 -4 343 -4 q 243 -3 267 -4 q 205 3 218 -1 q 188 18 192 8 q 182 46 183 28 l 135 818 q 136 852 134 840 q 147 872 138 865 q 175 880 157 878 q 228 882 194 882 q 275 880 256 882 q 303 874 294 878 q 314 862 312 869 q 317 842 317 854 l 334 173 l 336 173 l 632 842 q 644 862 637 854 q 662 874 650 870 q 692 880 673 879 q 742 882 711 882 q 791 880 773 882 q 819 874 810 879 q 831 862 829 870 q 835 840 834 854 l 869 173 l 870 173 l 1158 850 q 1167 866 1162 859 q 1184 876 1173 872 q 1215 880 1196 879 q 1263 882 1234 882 q 1309 879 1293 882 q 1332 869 1326 877 q 1334 847 1338 862 q 1320 809 1330 833 l 964 44 m 835 964 q 820 953 827 958 q 803 946 813 949 q 779 942 793 943 q 743 940 764 940 q 687 949 697 940 q 694 976 676 958 l 822 1114 q 840 1130 831 1124 q 861 1139 848 1136 q 890 1144 873 1143 q 931 1145 907 1145 q 980 1141 963 1145 q 1003 1131 997 1137 q 1005 1116 1009 1124 q 991 1099 1002 1108 l 835 964 m 471 878 z "},"Ŵ":{"ha":1259,"x_min":134,"x_max":1338,"o":"m 964 44 q 949 18 958 28 q 925 3 940 8 q 887 -3 910 -1 q 830 -4 865 -4 q 771 -3 793 -4 q 735 3 748 -1 q 718 16 723 7 q 713 39 713 25 l 681 602 l 680 602 l 436 44 q 421 18 429 28 q 401 3 414 8 q 366 -3 388 -1 q 308 -4 343 -4 q 243 -3 267 -4 q 205 3 218 -1 q 188 18 192 8 q 182 46 183 28 l 135 818 q 136 852 134 840 q 147 872 138 865 q 175 880 157 878 q 228 882 194 882 q 275 880 256 882 q 303 874 294 878 q 314 862 312 869 q 317 842 317 854 l 334 173 l 336 173 l 632 842 q 644 862 637 854 q 662 874 650 870 q 692 880 673 879 q 742 882 711 882 q 791 880 773 882 q 819 874 810 879 q 831 862 829 870 q 835 840 834 854 l 869 173 l 870 173 l 1158 850 q 1167 866 1162 859 q 1184 876 1173 872 q 1215 880 1196 879 q 1263 882 1234 882 q 1309 879 1293 882 q 1332 869 1326 877 q 1334 847 1338 862 q 1320 809 1330 833 l 964 44 m 997 972 q 1004 957 1003 963 q 998 946 1004 950 q 977 941 991 943 q 939 940 962 940 q 894 941 911 940 q 868 944 878 942 q 853 951 858 947 q 845 961 849 955 l 784 1054 l 683 963 q 668 951 675 956 q 650 944 661 947 q 620 941 638 942 q 574 940 602 940 q 538 942 551 940 q 519 947 524 943 q 517 957 514 951 q 530 972 520 963 l 692 1118 q 710 1132 701 1126 q 732 1140 720 1137 q 761 1144 745 1143 q 800 1145 777 1145 q 837 1145 822 1145 q 861 1141 851 1144 q 878 1133 871 1139 q 892 1118 885 1127 l 997 972 m 319 878 z "},"Ẅ":{"ha":1259,"x_min":134,"x_max":1338,"o":"m 964 44 q 949 18 958 28 q 925 3 940 8 q 887 -3 910 -1 q 830 -4 865 -4 q 771 -3 793 -4 q 735 3 748 -1 q 718 16 723 7 q 713 39 713 25 l 681 602 l 680 602 l 436 44 q 421 18 429 28 q 401 3 414 8 q 366 -3 388 -1 q 308 -4 343 -4 q 243 -3 267 -4 q 205 3 218 -1 q 188 18 192 8 q 182 46 183 28 l 135 818 q 136 852 134 840 q 147 872 138 865 q 175 880 157 878 q 228 882 194 882 q 275 880 256 882 q 303 874 294 878 q 314 862 312 869 q 317 842 317 854 l 334 173 l 336 173 l 632 842 q 644 862 637 854 q 662 874 650 870 q 692 880 673 879 q 742 882 711 882 q 791 880 773 882 q 819 874 810 879 q 831 862 829 870 q 835 840 834 854 l 869 173 l 870 173 l 1158 850 q 1167 866 1162 859 q 1184 876 1173 872 q 1215 880 1196 879 q 1263 882 1234 882 q 1309 879 1293 882 q 1332 869 1326 877 q 1334 847 1338 862 q 1320 809 1330 833 l 964 44 m 1018 1036 q 1006 997 1014 1013 q 986 972 998 981 q 956 959 973 962 q 913 955 938 955 q 872 959 888 955 q 847 972 856 962 q 837 997 838 981 q 840 1036 836 1013 q 851 1078 844 1061 q 871 1105 859 1095 q 901 1119 883 1115 q 944 1123 918 1123 q 985 1119 968 1123 q 1010 1105 1001 1115 q 1020 1078 1019 1095 q 1018 1036 1022 1061 m 722 1036 q 710 997 718 1013 q 690 972 703 981 q 660 959 677 962 q 618 955 642 955 q 576 959 592 955 q 551 972 559 962 q 541 997 542 981 q 544 1036 539 1013 q 555 1078 548 1061 q 575 1105 563 1095 q 605 1119 587 1115 q 648 1123 623 1123 q 689 1119 673 1123 q 714 1105 705 1115 q 725 1078 723 1095 q 722 1036 726 1061 m 330 878 z "},"X":{"ha":765,"x_min":-39,"x_max":836,"o":"m 538 452 l 673 69 q 682 30 681 45 q 674 8 683 16 q 643 -2 665 0 q 583 -4 621 -4 q 538 -3 555 -4 q 513 2 522 -1 q 500 10 504 5 q 494 24 496 16 l 387 342 l 162 24 q 150 10 156 16 q 131 2 143 5 q 100 -3 119 -1 q 50 -4 81 -4 q -6 -2 14 -4 q -33 7 -26 0 q -32 29 -39 15 q -9 67 -26 43 l 281 454 l 158 810 q 150 848 151 834 q 158 870 149 863 q 189 880 167 878 q 248 882 210 882 q 294 880 277 882 q 320 876 311 879 q 334 866 330 872 q 340 850 338 860 l 433 564 l 638 854 q 650 867 644 862 q 667 876 656 873 q 696 880 678 879 q 744 882 714 882 q 802 880 781 882 q 829 870 823 878 q 829 848 836 863 q 806 810 823 834 l 538 452 z "},"Y":{"ha":722,"x_min":119,"x_max":819,"o":"m 453 333 l 392 24 q 385 12 390 17 q 368 3 379 6 q 339 -2 357 -1 q 296 -4 321 -4 q 253 -2 270 -4 q 227 3 236 -1 q 215 12 218 6 q 213 24 212 17 l 274 333 l 130 811 q 121 849 123 835 q 127 870 119 863 q 156 880 136 878 q 214 882 176 882 q 259 881 242 882 q 285 876 275 880 q 298 866 294 873 q 304 850 302 860 l 363 639 q 381 567 374 601 q 395 495 389 532 l 397 495 q 436 567 416 532 q 479 637 456 602 l 620 852 q 631 866 625 861 q 648 876 637 872 q 677 880 659 879 q 726 882 695 882 q 786 879 765 882 q 813 869 806 877 q 812 847 819 861 q 789 811 805 833 l 453 333 z "},"Ỳ":{"ha":722,"x_min":38,"x_max":819,"o":"m 453 333 l 392 24 q 385 12 390 17 q 368 3 379 6 q 339 -2 357 -1 q 296 -4 321 -4 q 253 -2 270 -4 q 227 3 236 -1 q 215 12 218 6 q 213 24 212 17 l 274 333 l 130 811 q 121 849 123 835 q 127 870 119 863 q 156 880 136 878 q 214 882 176 882 q 259 881 242 882 q 285 876 275 880 q 298 866 294 873 q 304 850 302 860 l 363 639 q 381 567 374 601 q 395 495 389 532 l 397 495 q 436 567 416 532 q 479 637 456 602 l 620 852 q 631 866 625 861 q 648 876 637 872 q 677 880 659 879 q 726 882 695 882 q 786 879 765 882 q 813 869 806 877 q 812 847 819 861 q 789 811 805 833 l 453 333 m 557 976 q 566 960 564 966 q 561 948 568 953 q 541 942 555 944 q 505 940 527 940 q 469 941 484 940 q 445 946 455 943 q 428 953 435 949 q 414 964 421 958 l 269 1099 q 257 1116 260 1108 q 261 1131 254 1124 q 286 1141 268 1137 q 334 1145 303 1145 q 375 1144 359 1145 q 404 1140 392 1143 q 425 1131 416 1137 q 441 1114 433 1124 l 557 976 m 38 878 z "},"Ý":{"ha":722,"x_min":119,"x_max":819,"o":"m 453 333 l 392 24 q 385 12 390 17 q 368 3 379 6 q 339 -2 357 -1 q 296 -4 321 -4 q 253 -2 270 -4 q 227 3 236 -1 q 215 12 218 6 q 213 24 212 17 l 274 333 l 130 811 q 121 849 123 835 q 127 870 119 863 q 156 880 136 878 q 214 882 176 882 q 259 881 242 882 q 285 876 275 880 q 298 866 294 873 q 304 850 302 860 l 363 639 q 381 567 374 601 q 395 495 389 532 l 397 495 q 436 567 416 532 q 479 637 456 602 l 620 852 q 631 866 625 861 q 648 876 637 872 q 677 880 659 879 q 726 882 695 882 q 786 879 765 882 q 813 869 806 877 q 812 847 819 861 q 789 811 805 833 l 453 333 m 588 964 q 573 953 581 958 q 556 946 566 949 q 532 942 547 943 q 496 940 517 940 q 440 949 450 940 q 447 976 429 958 l 575 1114 q 593 1130 584 1124 q 614 1139 602 1136 q 643 1144 626 1143 q 684 1145 660 1145 q 733 1141 716 1145 q 756 1131 750 1137 q 759 1116 762 1124 q 745 1099 755 1108 l 588 964 m 224 878 z "},"Ŷ":{"ha":722,"x_min":58,"x_max":819,"o":"m 453 333 l 392 24 q 385 12 390 17 q 368 3 379 6 q 339 -2 357 -1 q 296 -4 321 -4 q 253 -2 270 -4 q 227 3 236 -1 q 215 12 218 6 q 213 24 212 17 l 274 333 l 130 811 q 121 849 123 835 q 127 870 119 863 q 156 880 136 878 q 214 882 176 882 q 259 881 242 882 q 285 876 275 880 q 298 866 294 873 q 304 850 302 860 l 363 639 q 381 567 374 601 q 395 495 389 532 l 397 495 q 436 567 416 532 q 479 637 456 602 l 620 852 q 631 866 625 861 q 648 876 637 872 q 677 880 659 879 q 726 882 695 882 q 786 879 765 882 q 813 869 806 877 q 812 847 819 861 q 789 811 805 833 l 453 333 m 735 972 q 742 957 741 963 q 736 946 743 950 q 715 941 729 943 q 677 940 701 940 q 632 941 649 940 q 606 944 616 942 q 592 951 596 947 q 583 961 587 955 l 522 1054 l 421 963 q 407 951 414 956 q 388 944 399 947 q 358 941 376 942 q 313 940 340 940 q 276 942 290 940 q 257 947 262 943 q 255 957 252 951 q 269 972 258 963 l 430 1118 q 449 1132 439 1126 q 471 1140 458 1137 q 499 1144 483 1143 q 538 1145 515 1145 q 575 1145 560 1145 q 599 1141 589 1144 q 616 1133 609 1139 q 630 1118 623 1127 l 735 972 m 58 878 z "},"Ÿ":{"ha":722,"x_min":68,"x_max":819,"o":"m 453 333 l 392 24 q 385 12 390 17 q 368 3 379 6 q 339 -2 357 -1 q 296 -4 321 -4 q 253 -2 270 -4 q 227 3 236 -1 q 215 12 218 6 q 213 24 212 17 l 274 333 l 130 811 q 121 849 123 835 q 127 870 119 863 q 156 880 136 878 q 214 882 176 882 q 259 881 242 882 q 285 876 275 880 q 298 866 294 873 q 304 850 302 860 l 363 639 q 381 567 374 601 q 395 495 389 532 l 397 495 q 436 567 416 532 q 479 637 456 602 l 620 852 q 631 866 625 861 q 648 876 637 872 q 677 880 659 879 q 726 882 695 882 q 786 879 765 882 q 813 869 806 877 q 812 847 819 861 q 789 811 805 833 l 453 333 m 757 1036 q 745 997 753 1013 q 725 972 737 981 q 694 959 712 962 q 652 955 677 955 q 611 959 627 955 q 586 972 595 962 q 576 997 577 981 q 578 1036 574 1013 q 590 1078 583 1061 q 610 1105 597 1095 q 640 1119 622 1115 q 683 1123 657 1123 q 724 1119 707 1123 q 749 1105 740 1115 q 759 1078 758 1095 q 757 1036 761 1061 m 460 1036 q 449 997 456 1013 q 429 972 441 981 q 398 959 416 962 q 357 955 380 955 q 315 959 331 955 q 290 972 298 962 q 279 997 281 981 q 283 1036 278 1013 q 294 1078 287 1061 q 314 1105 302 1095 q 343 1119 326 1115 q 387 1123 361 1123 q 428 1119 412 1123 q 453 1105 444 1115 q 464 1078 462 1095 q 460 1036 465 1061 m 68 878 z "},"Z":{"ha":664,"x_min":-18,"x_max":718,"o":"m 675 878 q 706 868 694 878 q 718 840 718 859 q 714 806 718 829 q 704 764 710 783 q 699 747 702 755 q 689 729 695 739 q 673 707 683 720 q 649 675 664 694 l 213 143 l 574 143 q 587 136 583 143 q 591 116 591 130 q 590 100 591 111 q 587 76 589 90 q 581 50 585 63 q 573 25 578 37 q 561 7 568 14 q 546 0 554 0 l 28 0 q -7 12 4 0 q -18 43 -18 24 q -17 58 -18 48 q -14 78 -16 68 q -9 99 -12 89 q -5 117 -7 110 q 1 132 -2 124 q 11 149 5 139 q 27 171 18 158 q 52 202 37 184 l 490 736 l 160 736 q 138 765 138 736 q 139 780 138 769 q 142 803 140 790 q 148 828 144 815 q 157 852 152 842 q 171 870 163 863 q 189 878 178 878 l 675 878 z "},"Ź":{"ha":664,"x_min":-18,"x_max":718,"o":"m 675 878 q 706 868 694 878 q 718 840 718 859 q 714 806 718 829 q 704 764 710 783 q 699 747 702 755 q 689 729 695 739 q 673 707 683 720 q 649 675 664 694 l 213 143 l 574 143 q 587 136 583 143 q 591 116 591 130 q 590 100 591 111 q 587 76 589 90 q 581 50 585 63 q 573 25 578 37 q 561 7 568 14 q 546 0 554 0 l 28 0 q -7 12 4 0 q -18 43 -18 24 q -17 58 -18 48 q -14 78 -16 68 q -9 99 -12 89 q -5 117 -7 110 q 1 132 -2 124 q 11 149 5 139 q 27 171 18 158 q 52 202 37 184 l 490 736 l 160 736 q 138 765 138 736 q 139 780 138 769 q 142 803 140 790 q 148 828 144 815 q 157 852 152 842 q 171 870 163 863 q 189 878 178 878 l 675 878 m 524 964 q 510 953 517 958 q 493 946 503 949 q 468 942 483 943 q 433 940 454 940 q 376 949 387 940 q 383 976 366 958 l 511 1114 q 529 1130 520 1124 q 550 1139 538 1136 q 579 1144 562 1143 q 621 1145 596 1145 q 669 1141 652 1145 q 692 1131 686 1137 q 695 1116 699 1124 q 681 1099 691 1108 l 524 964 m 161 878 z "},"Ž":{"ha":664,"x_min":-18,"x_max":734,"o":"m 675 878 q 706 868 694 878 q 718 840 718 859 q 714 806 718 829 q 704 764 710 783 q 699 747 702 755 q 689 729 695 739 q 673 707 683 720 q 649 675 664 694 l 213 143 l 574 143 q 587 136 583 143 q 591 116 591 130 q 590 100 591 111 q 587 76 589 90 q 581 50 585 63 q 573 25 578 37 q 561 7 568 14 q 546 0 554 0 l 28 0 q -7 12 4 0 q -18 43 -18 24 q -17 58 -18 48 q -14 78 -16 68 q -9 99 -12 89 q -5 117 -7 110 q 1 132 -2 124 q 11 149 5 139 q 27 171 18 158 q 52 202 37 184 l 490 736 l 160 736 q 138 765 138 736 q 139 780 138 769 q 142 803 140 790 q 148 828 144 815 q 157 852 152 842 q 171 870 163 863 q 189 878 178 878 l 675 878 m 558 968 q 539 954 549 959 q 516 945 529 948 q 488 941 504 943 q 448 940 471 940 q 412 941 427 940 q 388 944 398 941 q 371 953 378 947 q 357 968 364 959 l 252 1113 q 244 1129 245 1123 q 250 1139 243 1136 q 272 1144 257 1143 q 309 1145 286 1145 q 354 1144 338 1145 q 380 1141 371 1143 q 394 1135 389 1139 q 402 1124 398 1131 l 464 1031 l 565 1123 q 579 1134 572 1129 q 598 1141 587 1138 q 628 1144 610 1143 q 675 1145 646 1145 q 711 1144 698 1145 q 729 1138 724 1142 q 731 1128 734 1135 q 719 1113 728 1122 l 558 968 m 12 878 z "},"Ż":{"ha":664,"x_min":-18,"x_max":718,"o":"m 675 878 q 706 868 694 878 q 718 840 718 859 q 714 806 718 829 q 704 764 710 783 q 699 747 702 755 q 689 729 695 739 q 673 707 683 720 q 649 675 664 694 l 213 143 l 574 143 q 587 136 583 143 q 591 116 591 130 q 590 100 591 111 q 587 76 589 90 q 581 50 585 63 q 573 25 578 37 q 561 7 568 14 q 546 0 554 0 l 28 0 q -7 12 4 0 q -18 43 -18 24 q -17 58 -18 48 q -14 78 -16 68 q -9 99 -12 89 q -5 117 -7 110 q 1 132 -2 124 q 11 149 5 139 q 27 171 18 158 q 52 202 37 184 l 490 736 l 160 736 q 138 765 138 736 q 139 780 138 769 q 142 803 140 790 q 148 828 144 815 q 157 852 152 842 q 171 870 163 863 q 189 878 178 878 l 675 878 m 378 1038 q 391 1078 383 1062 q 412 1105 399 1095 q 444 1119 425 1115 q 490 1124 463 1124 q 534 1119 517 1124 q 559 1105 551 1115 q 569 1078 568 1095 q 566 1038 570 1062 q 554 999 562 1015 q 533 972 546 983 q 501 958 520 962 q 455 954 482 954 q 411 958 428 954 q 385 972 394 962 q 375 999 376 983 q 378 1038 374 1015 m 165 878 z "},"a":{"ha":733,"x_min":42,"x_max":711,"o":"m 589 22 q 567 2 586 8 q 507 -4 549 -4 q 473 -3 486 -4 q 452 2 460 -1 q 441 10 444 5 q 440 22 439 15 l 459 119 q 427 74 449 98 q 374 30 404 50 q 306 -3 343 10 q 230 -16 269 -16 q 140 3 176 -16 q 82 55 104 22 q 51 128 60 87 q 42 215 42 170 q 50 308 42 258 q 75 409 58 359 q 119 506 92 459 q 182 588 145 552 q 267 645 219 624 q 375 667 315 667 q 475 643 431 667 q 551 575 518 620 l 562 629 q 583 649 564 643 q 643 655 602 655 q 677 653 663 655 q 698 649 690 652 q 709 641 706 646 q 710 629 711 635 l 589 22 m 505 447 q 452 503 481 484 q 385 522 423 522 q 333 508 357 522 q 291 472 309 494 q 259 419 273 449 q 236 357 245 389 q 222 292 227 325 q 218 231 218 259 q 221 193 218 211 q 232 160 224 174 q 254 137 240 146 q 288 129 267 129 q 349 147 318 129 q 408 196 380 165 q 455 268 435 227 q 486 355 476 309 l 505 447 z "},"à":{"ha":733,"x_min":42,"x_max":711,"o":"m 589 22 q 567 2 586 8 q 507 -4 549 -4 q 473 -3 486 -4 q 452 2 460 -1 q 441 10 444 5 q 440 22 439 15 l 459 119 q 427 74 449 98 q 374 30 404 50 q 306 -3 343 10 q 230 -16 269 -16 q 140 3 176 -16 q 82 55 104 22 q 51 128 60 87 q 42 215 42 170 q 50 308 42 258 q 75 409 58 359 q 119 506 92 459 q 182 588 145 552 q 267 645 219 624 q 375 667 315 667 q 475 643 431 667 q 551 575 518 620 l 562 629 q 583 649 564 643 q 643 655 602 655 q 677 653 663 655 q 698 649 690 652 q 709 641 706 646 q 710 629 711 635 l 589 22 m 505 447 q 452 503 481 484 q 385 522 423 522 q 333 508 357 522 q 291 472 309 494 q 259 419 273 449 q 236 357 245 389 q 222 292 227 325 q 218 231 218 259 q 221 193 218 211 q 232 160 224 174 q 254 137 240 146 q 288 129 267 129 q 349 147 318 129 q 408 196 380 165 q 455 268 435 227 q 486 355 476 309 l 505 447 m 528 770 q 535 754 534 761 q 530 743 536 747 q 511 736 524 739 q 473 734 497 734 q 441 735 454 734 q 419 740 428 736 q 405 747 411 743 q 394 758 399 751 l 270 916 q 263 930 264 923 q 271 942 263 937 q 298 949 279 947 q 347 952 316 952 q 385 951 370 952 q 410 947 400 950 q 427 938 420 943 q 437 925 433 933 l 528 770 m 85 651 z "},"á":{"ha":733,"x_min":42,"x_max":711,"o":"m 589 22 q 567 2 586 8 q 507 -4 549 -4 q 473 -3 486 -4 q 452 2 460 -1 q 441 10 444 5 q 440 22 439 15 l 459 119 q 427 74 449 98 q 374 30 404 50 q 306 -3 343 10 q 230 -16 269 -16 q 140 3 176 -16 q 82 55 104 22 q 51 128 60 87 q 42 215 42 170 q 50 308 42 258 q 75 409 58 359 q 119 506 92 459 q 182 588 145 552 q 267 645 219 624 q 375 667 315 667 q 475 643 431 667 q 551 575 518 620 l 562 629 q 583 649 564 643 q 643 655 602 655 q 677 653 663 655 q 698 649 690 652 q 709 641 706 646 q 710 629 711 635 l 589 22 m 505 447 q 452 503 481 484 q 385 522 423 522 q 333 508 357 522 q 291 472 309 494 q 259 419 273 449 q 236 357 245 389 q 222 292 227 325 q 218 231 218 259 q 221 193 218 211 q 232 160 224 174 q 254 137 240 146 q 288 129 267 129 q 349 147 318 129 q 408 196 380 165 q 455 268 435 227 q 486 355 476 309 l 505 447 m 513 758 q 503 747 508 751 q 488 740 497 743 q 467 736 479 737 q 434 734 454 734 q 397 736 410 734 q 378 743 383 739 q 374 754 372 747 q 382 770 376 761 l 485 925 q 497 938 490 932 q 514 946 504 943 q 541 951 525 949 q 578 952 556 952 q 627 949 610 952 q 653 941 645 946 q 659 929 661 936 q 652 916 658 923 l 513 758 m 202 651 z "},"â":{"ha":733,"x_min":42,"x_max":711,"o":"m 589 22 q 567 2 586 8 q 507 -4 549 -4 q 473 -3 486 -4 q 452 2 460 -1 q 441 10 444 5 q 440 22 439 15 l 459 119 q 427 74 449 98 q 374 30 404 50 q 306 -3 343 10 q 230 -16 269 -16 q 140 3 176 -16 q 82 55 104 22 q 51 128 60 87 q 42 215 42 170 q 50 308 42 258 q 75 409 58 359 q 119 506 92 459 q 182 588 145 552 q 267 645 219 624 q 375 667 315 667 q 475 643 431 667 q 551 575 518 620 l 562 629 q 583 649 564 643 q 643 655 602 655 q 677 653 663 655 q 698 649 690 652 q 709 641 706 646 q 710 629 711 635 l 589 22 m 505 447 q 452 503 481 484 q 385 522 423 522 q 333 508 357 522 q 291 472 309 494 q 259 419 273 449 q 236 357 245 389 q 222 292 227 325 q 218 231 218 259 q 221 193 218 211 q 232 160 224 174 q 254 137 240 146 q 288 129 267 129 q 349 147 318 129 q 408 196 380 165 q 455 268 435 227 q 486 355 476 309 l 505 447 m 668 779 q 677 758 675 766 q 673 744 679 749 q 653 737 667 739 q 612 734 639 734 q 578 735 591 734 q 559 739 566 736 q 550 746 553 742 q 543 758 547 751 l 493 860 l 402 758 q 390 746 396 751 q 375 739 384 741 q 353 735 366 736 q 319 734 339 734 q 278 737 292 734 q 260 744 264 739 q 261 758 256 749 q 278 779 266 767 l 415 930 q 428 941 420 937 q 446 947 435 945 q 472 951 457 950 q 509 952 488 952 q 545 951 530 952 q 568 947 559 949 q 583 940 578 944 q 592 930 589 936 l 668 779 m 102 651 z "},"ã":{"ha":733,"x_min":42,"x_max":720,"o":"m 589 22 q 567 2 586 8 q 507 -4 549 -4 q 473 -3 486 -4 q 452 2 460 -1 q 441 10 444 5 q 440 22 439 15 l 459 119 q 427 74 449 98 q 374 30 404 50 q 306 -3 343 10 q 230 -16 269 -16 q 140 3 176 -16 q 82 55 104 22 q 51 128 60 87 q 42 215 42 170 q 50 308 42 258 q 75 409 58 359 q 119 506 92 459 q 182 588 145 552 q 267 645 219 624 q 375 667 315 667 q 475 643 431 667 q 551 575 518 620 l 562 629 q 583 649 564 643 q 643 655 602 655 q 677 653 663 655 q 698 649 690 652 q 709 641 706 646 q 710 629 711 635 l 589 22 m 505 447 q 452 503 481 484 q 385 522 423 522 q 333 508 357 522 q 291 472 309 494 q 259 419 273 449 q 236 357 245 389 q 222 292 227 325 q 218 231 218 259 q 221 193 218 211 q 232 160 224 174 q 254 137 240 146 q 288 129 267 129 q 349 147 318 129 q 408 196 380 165 q 455 268 435 227 q 486 355 476 309 l 505 447 m 720 913 q 719 895 720 909 q 712 861 718 880 q 697 819 707 841 q 669 779 686 797 q 625 748 651 760 q 562 736 599 736 q 515 742 535 736 q 479 756 495 747 q 449 775 463 765 q 424 793 436 785 q 400 807 412 802 q 375 813 389 813 q 341 797 353 813 q 327 755 330 781 q 323 746 326 749 q 315 740 321 742 q 298 737 309 738 q 271 736 288 736 q 247 738 256 736 q 232 741 237 739 q 225 747 227 743 q 224 756 224 751 q 225 775 224 760 q 232 809 227 789 q 247 850 237 829 q 275 890 257 872 q 319 921 292 909 q 382 933 345 933 q 428 928 408 933 q 465 913 448 922 q 494 895 481 905 q 519 876 507 885 q 544 862 532 867 q 568 857 555 857 q 601 871 589 857 q 617 914 614 886 q 629 929 618 926 q 671 933 640 933 q 711 929 702 933 q 720 913 720 924 m 60 651 z "},"ä":{"ha":733,"x_min":42,"x_max":711,"o":"m 589 22 q 567 2 586 8 q 507 -4 549 -4 q 473 -3 486 -4 q 452 2 460 -1 q 441 10 444 5 q 440 22 439 15 l 459 119 q 427 74 449 98 q 374 30 404 50 q 306 -3 343 10 q 230 -16 269 -16 q 140 3 176 -16 q 82 55 104 22 q 51 128 60 87 q 42 215 42 170 q 50 308 42 258 q 75 409 58 359 q 119 506 92 459 q 182 588 145 552 q 267 645 219 624 q 375 667 315 667 q 475 643 431 667 q 551 575 518 620 l 562 629 q 583 649 564 643 q 643 655 602 655 q 677 653 663 655 q 698 649 690 652 q 709 641 706 646 q 710 629 711 635 l 589 22 m 505 447 q 452 503 481 484 q 385 522 423 522 q 333 508 357 522 q 291 472 309 494 q 259 419 273 449 q 236 357 245 389 q 222 292 227 325 q 218 231 218 259 q 221 193 218 211 q 232 160 224 174 q 254 137 240 146 q 288 129 267 129 q 349 147 318 129 q 408 196 380 165 q 455 268 435 227 q 486 355 476 309 l 505 447 m 689 831 q 676 789 684 806 q 657 764 669 773 q 628 751 645 754 q 587 747 610 747 q 548 751 564 747 q 524 764 532 754 q 514 789 515 773 q 517 831 512 806 q 529 872 521 856 q 549 898 536 888 q 578 911 561 907 q 618 914 595 914 q 657 911 642 914 q 682 898 673 907 q 692 872 690 888 q 689 831 694 856 m 424 831 q 412 789 419 806 q 392 764 404 773 q 362 751 380 754 q 322 747 345 747 q 283 751 298 747 q 259 764 267 754 q 249 789 250 773 q 252 831 247 806 q 263 872 256 856 q 283 898 271 888 q 313 911 296 907 q 353 914 330 914 q 392 911 376 914 q 416 898 408 907 q 427 872 425 888 q 424 831 429 856 m 79 651 z "},"ā":{"ha":733,"x_min":42,"x_max":711,"o":"m 589 22 q 567 2 586 8 q 507 -4 549 -4 q 473 -3 486 -4 q 452 2 460 -1 q 441 10 444 5 q 440 22 439 15 l 459 119 q 427 74 449 98 q 374 30 404 50 q 306 -3 343 10 q 230 -16 269 -16 q 140 3 176 -16 q 82 55 104 22 q 51 128 60 87 q 42 215 42 170 q 50 308 42 258 q 75 409 58 359 q 119 506 92 459 q 182 588 145 552 q 267 645 219 624 q 375 667 315 667 q 475 643 431 667 q 551 575 518 620 l 562 629 q 583 649 564 643 q 643 655 602 655 q 677 653 663 655 q 698 649 690 652 q 709 641 706 646 q 710 629 711 635 l 589 22 m 505 447 q 452 503 481 484 q 385 522 423 522 q 333 508 357 522 q 291 472 309 494 q 259 419 273 449 q 236 357 245 389 q 222 292 227 325 q 218 231 218 259 q 221 193 218 211 q 232 160 224 174 q 254 137 240 146 q 288 129 267 129 q 349 147 318 129 q 408 196 380 165 q 455 268 435 227 q 486 355 476 309 l 505 447 m 678 871 q 677 857 678 866 q 674 838 676 848 q 669 816 672 827 q 661 795 666 804 q 649 779 656 785 q 634 773 643 773 l 288 773 q 271 779 276 773 q 265 800 265 785 q 267 822 265 806 q 274 855 269 838 q 289 885 279 872 q 313 897 298 897 l 659 897 q 674 890 670 897 q 678 871 678 883 m 97 651 z "},"ă":{"ha":733,"x_min":42,"x_max":711,"o":"m 589 22 q 567 2 586 8 q 507 -4 549 -4 q 473 -3 486 -4 q 452 2 460 -1 q 441 10 444 5 q 440 22 439 15 l 459 119 q 427 74 449 98 q 374 30 404 50 q 306 -3 343 10 q 230 -16 269 -16 q 140 3 176 -16 q 82 55 104 22 q 51 128 60 87 q 42 215 42 170 q 50 308 42 258 q 75 409 58 359 q 119 506 92 459 q 182 588 145 552 q 267 645 219 624 q 375 667 315 667 q 475 643 431 667 q 551 575 518 620 l 562 629 q 583 649 564 643 q 643 655 602 655 q 677 653 663 655 q 698 649 690 652 q 709 641 706 646 q 710 629 711 635 l 589 22 m 505 447 q 452 503 481 484 q 385 522 423 522 q 333 508 357 522 q 291 472 309 494 q 259 419 273 449 q 236 357 245 389 q 222 292 227 325 q 218 231 218 259 q 221 193 218 211 q 232 160 224 174 q 254 137 240 146 q 288 129 267 129 q 349 147 318 129 q 408 196 380 165 q 455 268 435 227 q 486 355 476 309 l 505 447 m 682 931 q 679 907 682 924 q 668 868 676 890 q 643 823 659 846 q 602 780 627 800 q 541 749 577 761 q 454 736 504 736 q 369 747 402 736 q 315 777 335 758 q 288 821 296 796 q 280 872 280 846 q 281 890 280 880 q 283 910 281 900 q 287 927 284 920 q 292 939 289 935 q 311 947 298 944 q 346 949 323 949 q 373 948 362 949 q 389 944 383 947 q 397 938 395 941 q 399 929 399 934 q 398 915 399 923 q 397 900 397 907 q 401 877 397 887 q 412 859 404 867 q 432 848 419 852 q 463 844 444 844 q 498 848 482 844 q 528 863 515 853 q 551 887 541 873 q 566 923 560 902 q 572 935 568 930 q 583 943 576 940 q 600 948 589 946 q 628 949 611 949 q 656 948 646 949 q 672 945 667 947 q 680 939 678 943 q 682 931 682 935 m 94 651 z "},"å":{"ha":733,"x_min":42,"x_max":711,"o":"m 589 22 q 567 2 586 8 q 507 -4 549 -4 q 473 -3 486 -4 q 452 2 460 -1 q 441 10 444 5 q 440 22 439 15 l 459 119 q 427 74 449 98 q 374 30 404 50 q 306 -3 343 10 q 230 -16 269 -16 q 140 3 176 -16 q 82 55 104 22 q 51 128 60 87 q 42 215 42 170 q 50 308 42 258 q 75 409 58 359 q 119 506 92 459 q 182 588 145 552 q 267 645 219 624 q 375 667 315 667 q 475 643 431 667 q 551 575 518 620 l 562 629 q 583 649 564 643 q 643 655 602 655 q 677 653 663 655 q 698 649 690 652 q 709 641 706 646 q 710 629 711 635 l 589 22 m 505 447 q 452 503 481 484 q 385 522 423 522 q 333 508 357 522 q 291 472 309 494 q 259 419 273 449 q 236 357 245 389 q 222 292 227 325 q 218 231 218 259 q 221 193 218 211 q 232 160 224 174 q 254 137 240 146 q 288 129 267 129 q 349 147 318 129 q 408 196 380 165 q 455 268 435 227 q 486 355 476 309 l 505 447 m 634 879 q 624 818 634 846 q 591 769 613 790 q 536 736 570 748 q 454 724 502 724 q 389 732 416 724 q 345 754 361 740 q 321 789 328 769 q 313 833 313 809 q 323 892 313 864 q 355 942 333 920 q 410 976 376 963 q 492 988 444 988 q 558 980 531 988 q 602 957 585 971 q 627 922 619 942 q 634 879 634 902 m 530 867 q 528 885 530 876 q 519 900 525 893 q 503 910 513 906 q 479 913 493 913 q 433 896 449 913 q 416 844 416 878 q 419 827 416 835 q 427 812 421 819 q 443 802 433 806 q 468 798 453 798 q 513 815 496 798 q 530 867 530 833 m 138 651 z "},"ǻ":{"ha":733,"x_min":42,"x_max":711,"o":"m 589 22 q 567 2 586 8 q 507 -4 549 -4 q 473 -3 486 -4 q 452 2 460 -1 q 441 10 444 5 q 440 22 439 15 l 459 119 q 427 74 449 98 q 374 30 404 50 q 306 -3 343 10 q 230 -16 269 -16 q 140 3 176 -16 q 82 55 104 22 q 51 128 60 87 q 42 215 42 170 q 50 308 42 258 q 75 409 58 359 q 119 506 92 459 q 182 588 145 552 q 267 645 219 624 q 375 667 315 667 q 475 643 431 667 q 551 575 518 620 l 562 629 q 583 649 564 643 q 643 655 602 655 q 677 653 663 655 q 698 649 690 652 q 709 641 706 646 q 710 629 711 635 l 589 22 m 505 447 q 452 503 481 484 q 385 522 423 522 q 333 508 357 522 q 291 472 309 494 q 259 419 273 449 q 236 357 245 389 q 222 292 227 325 q 218 231 218 259 q 221 193 218 211 q 232 160 224 174 q 254 137 240 146 q 288 129 267 129 q 349 147 318 129 q 408 196 380 165 q 455 268 435 227 q 486 355 476 309 l 505 447 m 567 997 q 554 987 560 991 q 539 981 548 983 q 519 977 531 979 q 491 976 508 976 q 456 978 469 976 q 439 983 444 979 q 436 992 434 987 q 447 1006 439 998 l 547 1104 q 561 1115 554 1111 q 577 1123 568 1120 q 600 1127 587 1126 q 633 1128 612 1128 q 677 1125 661 1128 q 700 1118 693 1122 q 704 1108 706 1114 q 696 1097 703 1102 l 567 997 m 618 840 q 606 785 618 809 q 572 744 594 760 q 520 720 551 728 q 454 712 490 712 q 391 719 417 712 q 347 739 364 726 q 322 770 330 752 q 315 811 315 789 q 327 867 315 843 q 360 907 338 891 q 412 931 382 923 q 480 940 443 940 q 543 933 516 940 q 586 912 569 926 q 610 881 602 899 q 618 840 618 863 m 520 831 q 518 848 520 840 q 509 862 515 856 q 493 872 503 868 q 469 876 484 876 q 428 862 443 876 q 412 821 412 848 q 415 803 412 811 q 424 790 418 795 q 439 781 429 784 q 465 777 450 777 q 506 791 491 777 q 520 831 520 805 m 149 651 z "},"ą":{"ha":733,"x_min":42,"x_max":711,"o":"m 505 447 q 452 503 481 484 q 385 522 423 522 q 333 508 357 522 q 291 472 309 494 q 259 419 273 449 q 236 357 245 389 q 222 292 227 325 q 218 231 218 259 q 221 193 218 211 q 232 160 224 174 q 254 137 240 146 q 288 129 267 129 q 349 147 318 129 q 408 196 380 165 q 455 268 435 227 q 486 355 476 309 l 505 447 m 459 119 q 427 74 449 98 q 374 30 404 50 q 306 -3 343 10 q 230 -16 269 -16 q 140 3 176 -16 q 82 55 104 22 q 51 128 60 87 q 42 215 42 170 q 50 308 42 258 q 75 409 58 359 q 119 506 92 459 q 182 588 145 552 q 267 645 219 624 q 375 667 315 667 q 475 643 431 667 q 551 575 518 620 l 562 629 q 583 649 564 643 q 643 655 602 655 q 677 653 663 655 q 698 649 690 652 q 709 641 706 646 q 710 629 711 635 l 589 21 q 576 -10 585 3 q 552 -36 568 -23 l 522 -61 q 495 -89 503 -77 q 488 -113 488 -100 q 496 -128 488 -123 q 520 -133 504 -133 l 572 -133 q 587 -138 583 -133 q 591 -152 591 -144 q 590 -167 591 -157 q 585 -188 588 -177 q 579 -207 583 -198 q 571 -220 575 -216 q 554 -230 566 -225 q 528 -239 543 -235 q 496 -245 513 -243 q 463 -248 479 -248 q 356 -223 392 -248 q 319 -154 319 -199 q 323 -124 319 -138 q 336 -95 327 -110 q 359 -63 345 -79 q 395 -29 374 -47 l 437 6 l 459 119 z "},"æ":{"ha":1061,"x_min":19,"x_max":1036,"o":"m 800 667 q 907 652 863 667 q 980 613 951 637 q 1022 558 1008 589 q 1036 494 1036 528 q 1014 407 1036 446 q 946 339 992 368 q 829 296 901 311 q 656 281 758 281 l 594 281 q 590 250 591 264 q 589 223 589 236 q 617 141 589 169 q 711 113 646 113 q 789 119 753 113 q 851 133 824 125 q 896 148 878 141 q 922 154 913 154 q 937 137 937 154 q 935 107 937 123 q 928 77 932 92 q 918 50 924 62 q 906 31 913 38 q 877 16 899 24 q 824 0 855 7 q 756 -11 793 -7 q 681 -16 719 -16 q 601 -8 637 -16 q 538 13 566 -1 q 490 46 511 26 q 457 91 470 66 q 398 42 428 62 q 338 9 369 22 q 276 -9 307 -3 q 212 -16 244 -16 q 125 -3 161 -16 q 65 32 89 10 q 30 83 41 54 q 19 146 19 113 q 32 225 19 190 q 67 288 44 260 q 122 334 90 315 q 193 366 154 353 q 276 384 232 378 q 368 390 321 390 l 448 390 l 456 425 q 460 475 462 454 q 448 510 459 496 q 416 531 437 524 q 359 538 394 538 q 282 528 317 538 q 220 506 247 518 q 174 485 193 494 q 146 475 155 475 q 130 485 135 475 q 124 515 124 496 q 125 536 124 524 q 130 560 127 548 q 138 583 133 572 q 149 600 142 593 q 186 624 160 612 q 246 645 212 635 q 317 661 279 654 q 390 667 355 667 q 463 661 431 667 q 518 643 495 654 q 558 615 542 631 q 583 579 574 599 q 628 615 604 599 q 681 643 653 632 q 739 661 709 654 q 800 667 769 667 m 420 189 q 419 199 419 193 q 418 212 418 205 q 420 247 418 229 q 425 281 422 265 l 358 281 q 277 272 310 281 q 224 247 244 262 q 196 211 205 231 q 188 168 188 191 q 207 122 188 138 q 260 106 227 106 q 299 110 280 106 q 338 124 318 115 q 378 150 357 134 q 420 189 398 166 m 868 482 q 863 507 868 496 q 848 527 859 518 q 822 541 838 536 q 785 545 806 545 q 723 533 751 545 q 675 500 696 521 q 639 451 654 479 q 616 391 625 422 l 676 391 q 768 398 731 391 q 827 417 805 405 q 859 447 850 430 q 868 482 868 464 z "},"ǽ":{"ha":1061,"x_min":19,"x_max":1036,"o":"m 800 667 q 907 652 863 667 q 980 613 951 637 q 1022 558 1008 589 q 1036 494 1036 528 q 1014 407 1036 446 q 946 339 992 368 q 829 296 901 311 q 656 281 758 281 l 594 281 q 590 250 591 264 q 589 223 589 236 q 617 141 589 169 q 711 113 646 113 q 789 119 753 113 q 851 133 824 125 q 896 148 878 141 q 922 154 913 154 q 937 137 937 154 q 935 107 937 123 q 928 77 932 92 q 918 50 924 62 q 906 31 913 38 q 877 16 899 24 q 824 0 855 7 q 756 -11 793 -7 q 681 -16 719 -16 q 601 -8 637 -16 q 538 13 566 -1 q 490 46 511 26 q 457 91 470 66 q 398 42 428 62 q 338 9 369 22 q 276 -9 307 -3 q 212 -16 244 -16 q 125 -3 161 -16 q 65 32 89 10 q 30 83 41 54 q 19 146 19 113 q 32 225 19 190 q 67 288 44 260 q 122 334 90 315 q 193 366 154 353 q 276 384 232 378 q 368 390 321 390 l 448 390 l 456 425 q 460 475 462 454 q 448 510 459 496 q 416 531 437 524 q 359 538 394 538 q 282 528 317 538 q 220 506 247 518 q 174 485 193 494 q 146 475 155 475 q 130 485 135 475 q 124 515 124 496 q 125 536 124 524 q 130 560 127 548 q 138 583 133 572 q 149 600 142 593 q 186 624 160 612 q 246 645 212 635 q 317 661 279 654 q 390 667 355 667 q 463 661 431 667 q 518 643 495 654 q 558 615 542 631 q 583 579 574 599 q 628 615 604 599 q 681 643 653 632 q 739 661 709 654 q 800 667 769 667 m 420 189 q 419 199 419 193 q 418 212 418 205 q 420 247 418 229 q 425 281 422 265 l 358 281 q 277 272 310 281 q 224 247 244 262 q 196 211 205 231 q 188 168 188 191 q 207 122 188 138 q 260 106 227 106 q 299 110 280 106 q 338 124 318 115 q 378 150 357 134 q 420 189 398 166 m 868 482 q 863 507 868 496 q 848 527 859 518 q 822 541 838 536 q 785 545 806 545 q 723 533 751 545 q 675 500 696 521 q 639 451 654 479 q 616 391 625 422 l 676 391 q 768 398 731 391 q 827 417 805 405 q 859 447 850 430 q 868 482 868 464 m 698 758 q 687 747 692 751 q 673 740 682 743 q 651 736 664 737 q 618 734 638 734 q 581 736 595 734 q 562 743 568 739 q 558 754 557 747 q 566 770 560 761 l 669 925 q 682 938 675 932 q 699 946 688 943 q 725 951 709 949 q 763 952 741 952 q 812 949 794 952 q 837 941 829 946 q 844 929 845 936 q 836 916 842 923 l 698 758 m 387 651 z "},"b":{"ha":733,"x_min":24,"x_max":694,"o":"m 694 436 q 686 340 694 391 q 661 239 678 290 q 618 143 644 189 q 554 62 591 97 q 469 5 517 26 q 362 -16 421 -16 q 261 7 305 -16 q 186 75 218 29 l 176 23 q 154 2 173 9 q 94 -4 136 -4 q 39 3 54 -4 q 27 23 24 9 l 205 915 q 212 927 207 922 q 227 936 216 932 q 255 942 238 940 q 296 944 271 944 q 337 942 321 944 q 362 936 353 940 q 374 927 371 932 q 375 915 376 922 l 327 672 q 319 639 323 656 q 310 605 315 622 q 300 572 305 588 q 290 544 295 556 q 325 588 302 566 q 377 627 348 610 q 440 656 406 645 q 507 667 473 667 q 574 657 546 667 q 624 630 603 647 q 659 590 645 613 q 680 542 672 567 q 691 489 688 516 q 694 436 694 462 m 519 419 q 516 454 519 436 q 506 488 514 473 q 485 512 498 503 q 449 522 471 522 q 388 504 418 522 q 330 454 357 486 q 281 382 302 423 q 252 294 260 340 l 233 202 q 285 147 256 165 q 352 129 314 129 q 402 142 379 129 q 444 177 425 155 q 476 228 463 199 q 500 289 490 257 q 514 355 509 321 q 519 419 519 388 z "},"c":{"ha":572,"x_min":40,"x_max":582,"o":"m 582 588 q 578 553 582 572 q 568 515 574 533 q 553 486 562 498 q 533 474 544 474 q 513 482 523 474 q 490 500 504 490 q 455 519 476 511 q 401 528 434 528 q 338 512 366 528 q 289 472 310 496 q 255 415 269 447 q 233 352 241 384 q 220 290 224 319 q 216 239 216 260 q 240 155 216 184 q 316 127 264 127 q 381 137 354 127 q 428 158 408 146 q 461 180 447 170 q 486 189 475 189 q 496 183 493 189 q 499 165 499 177 q 496 137 499 154 q 489 102 494 119 q 479 69 485 84 q 464 45 473 54 q 435 25 455 36 q 390 5 416 14 q 334 -9 364 -4 q 271 -15 304 -15 q 98 44 155 -15 q 40 217 40 102 q 48 308 40 258 q 73 407 56 357 q 119 504 91 457 q 188 587 147 551 q 282 644 229 623 q 406 666 336 666 q 458 662 433 666 q 506 651 484 658 q 544 634 528 644 q 569 617 561 625 q 579 603 577 609 q 582 588 582 597 z "},"ć":{"ha":572,"x_min":40,"x_max":620,"o":"m 582 588 q 578 553 582 572 q 568 515 574 533 q 553 486 562 498 q 533 474 544 474 q 513 482 523 474 q 490 500 504 490 q 455 519 476 511 q 401 528 434 528 q 338 512 366 528 q 289 472 310 496 q 255 415 269 447 q 233 352 241 384 q 220 290 224 319 q 216 239 216 260 q 240 155 216 184 q 316 127 264 127 q 381 137 354 127 q 428 158 408 146 q 461 180 447 170 q 486 189 475 189 q 496 183 493 189 q 499 165 499 177 q 496 137 499 154 q 489 102 494 119 q 479 69 485 84 q 464 45 473 54 q 435 25 455 36 q 390 5 416 14 q 334 -9 364 -4 q 271 -15 304 -15 q 98 44 155 -15 q 40 217 40 102 q 48 308 40 258 q 73 407 56 357 q 119 504 91 457 q 188 587 147 551 q 282 644 229 623 q 406 666 336 666 q 458 662 433 666 q 506 651 484 658 q 544 634 528 644 q 569 617 561 625 q 579 603 577 609 q 582 588 582 597 m 473 758 q 462 747 467 751 q 448 740 456 743 q 426 736 439 737 q 393 734 413 734 q 356 736 370 734 q 337 743 342 739 q 333 754 332 747 q 341 770 335 761 l 444 925 q 456 938 450 932 q 474 946 463 943 q 500 951 484 949 q 538 952 515 952 q 587 949 569 952 q 612 941 604 946 q 618 929 620 936 q 611 916 617 923 l 473 758 m 161 651 z "},"ĉ":{"ha":572,"x_min":34,"x_max":611,"o":"m 582 588 q 578 553 582 572 q 568 515 574 533 q 553 486 562 498 q 533 474 544 474 q 513 482 523 474 q 490 500 504 490 q 455 519 476 511 q 401 528 434 528 q 338 512 366 528 q 289 472 310 496 q 255 415 269 447 q 233 352 241 384 q 220 290 224 319 q 216 239 216 260 q 240 155 216 184 q 316 127 264 127 q 381 137 354 127 q 428 158 408 146 q 461 180 447 170 q 486 189 475 189 q 496 183 493 189 q 499 165 499 177 q 496 137 499 154 q 489 102 494 119 q 479 69 485 84 q 464 45 473 54 q 435 25 455 36 q 390 5 416 14 q 334 -9 364 -4 q 271 -15 304 -15 q 98 44 155 -15 q 40 217 40 102 q 48 308 40 258 q 73 407 56 357 q 119 504 91 457 q 188 587 147 551 q 282 644 229 623 q 406 666 336 666 q 458 662 433 666 q 506 651 484 658 q 544 634 528 644 q 569 617 561 625 q 579 603 577 609 q 582 588 582 597 m 600 779 q 609 758 607 766 q 605 744 611 749 q 585 737 600 739 q 545 734 571 734 q 511 735 523 734 q 492 739 498 736 q 482 746 485 742 q 475 758 479 751 l 425 860 l 334 758 q 322 746 328 751 q 307 739 316 741 q 285 735 298 736 q 252 734 271 734 q 210 737 224 734 q 192 744 196 739 q 193 758 189 749 q 210 779 198 767 l 347 930 q 360 941 353 937 q 378 947 368 945 q 405 951 389 950 q 441 952 420 952 q 477 951 463 952 q 500 947 491 949 q 515 940 510 944 q 524 930 521 936 l 600 779 m 34 651 z "},"č":{"ha":572,"x_min":40,"x_max":654,"o":"m 582 588 q 578 553 582 572 q 568 515 574 533 q 553 486 562 498 q 533 474 544 474 q 513 482 523 474 q 490 500 504 490 q 455 519 476 511 q 401 528 434 528 q 338 512 366 528 q 289 472 310 496 q 255 415 269 447 q 233 352 241 384 q 220 290 224 319 q 216 239 216 260 q 240 155 216 184 q 316 127 264 127 q 381 137 354 127 q 428 158 408 146 q 461 180 447 170 q 486 189 475 189 q 496 183 493 189 q 499 165 499 177 q 496 137 499 154 q 489 102 494 119 q 479 69 485 84 q 464 45 473 54 q 435 25 455 36 q 390 5 416 14 q 334 -9 364 -4 q 271 -15 304 -15 q 98 44 155 -15 q 40 217 40 102 q 48 308 40 258 q 73 407 56 357 q 119 504 91 457 q 188 587 147 551 q 282 644 229 623 q 406 666 336 666 q 458 662 433 666 q 506 651 484 658 q 544 634 528 644 q 569 617 561 625 q 579 603 577 609 q 582 588 582 597 m 496 756 q 483 746 490 750 q 465 739 475 741 q 438 735 454 736 q 401 734 422 734 q 366 736 380 734 q 342 740 351 737 q 328 747 332 743 q 319 756 323 751 l 243 907 q 234 929 236 920 q 237 943 232 937 q 257 950 243 948 q 298 952 272 952 q 331 951 319 952 q 349 947 342 950 q 360 940 356 945 q 366 929 363 936 l 417 827 l 507 929 q 520 941 513 936 q 535 948 526 945 q 558 951 545 950 q 591 952 571 952 q 632 950 618 952 q 650 943 646 948 q 649 929 654 937 q 633 907 644 920 l 496 756 m 40 651 z "},"ċ":{"ha":572,"x_min":40,"x_max":582,"o":"m 582 588 q 578 553 582 572 q 568 515 574 533 q 553 486 562 498 q 533 474 544 474 q 513 482 523 474 q 490 500 504 490 q 455 519 476 511 q 401 528 434 528 q 338 512 366 528 q 289 472 310 496 q 255 415 269 447 q 233 352 241 384 q 220 290 224 319 q 216 239 216 260 q 240 155 216 184 q 316 127 264 127 q 381 137 354 127 q 428 158 408 146 q 461 180 447 170 q 486 189 475 189 q 496 183 493 189 q 499 165 499 177 q 496 137 499 154 q 489 102 494 119 q 479 69 485 84 q 464 45 473 54 q 435 25 455 36 q 390 5 416 14 q 334 -9 364 -4 q 271 -15 304 -15 q 98 44 155 -15 q 40 217 40 102 q 48 308 40 258 q 73 407 56 357 q 119 504 91 457 q 188 587 147 551 q 282 644 229 623 q 406 666 336 666 q 458 662 433 666 q 506 651 484 658 q 544 634 528 644 q 569 617 561 625 q 579 603 577 609 q 582 588 582 597 m 515 836 q 503 796 511 812 q 482 770 495 780 q 450 755 469 760 q 404 751 431 751 q 360 755 377 751 q 334 770 343 760 q 324 796 326 780 q 327 836 323 812 q 339 876 331 859 q 359 902 347 892 q 391 917 372 912 q 437 921 410 921 q 481 917 464 921 q 507 902 498 912 q 518 876 516 892 q 515 836 519 859 m 154 651 z "},"ç":{"ha":572,"x_min":40,"x_max":582,"o":"m 186 -5 q 78 68 117 13 q 40 217 40 123 q 48 308 40 258 q 73 407 56 357 q 119 504 91 457 q 188 587 147 551 q 282 644 229 623 q 406 666 336 666 q 458 662 433 666 q 506 651 484 658 q 544 634 528 644 q 569 617 561 625 q 579 603 577 609 q 582 588 582 597 q 578 553 582 572 q 568 515 574 533 q 553 486 562 498 q 533 474 544 474 q 513 482 523 474 q 490 500 504 490 q 455 519 476 511 q 401 528 434 528 q 338 512 366 528 q 289 472 310 496 q 255 415 269 447 q 233 352 241 384 q 220 290 224 319 q 216 239 216 260 q 240 155 216 184 q 316 127 264 127 q 381 137 354 127 q 428 158 408 146 q 461 180 447 170 q 486 189 475 189 q 496 183 493 189 q 499 165 499 177 q 496 137 499 154 q 489 102 494 119 q 479 69 485 84 q 464 45 473 54 q 434 24 455 36 q 384 2 413 12 q 323 -11 355 -7 l 331 -45 q 338 -77 336 -62 q 341 -106 341 -92 q 329 -170 341 -143 q 296 -214 317 -197 q 244 -239 274 -231 q 177 -248 214 -248 q 139 -246 157 -248 q 104 -242 120 -245 q 77 -235 89 -239 q 56 -228 64 -231 q 46 -219 49 -224 q 43 -206 43 -215 q 45 -187 43 -199 q 51 -163 47 -175 q 62 -141 55 -151 q 80 -132 69 -132 l 157 -132 q 176 -130 167 -132 q 191 -123 184 -127 q 201 -111 197 -119 q 205 -94 205 -104 q 204 -79 205 -87 q 201 -61 203 -70 l 186 -5 z "},"d":{"ha":733,"x_min":42,"x_max":768,"o":"m 589 22 q 568 2 587 8 q 508 -4 549 -4 q 474 -3 487 -4 q 452 2 460 -1 q 442 10 444 5 q 441 22 439 15 l 459 119 q 427 74 449 98 q 374 30 404 50 q 306 -3 343 9 q 230 -16 269 -16 q 162 -6 191 -16 q 113 21 134 4 q 79 61 92 38 q 57 110 65 84 q 45 163 49 136 q 42 217 42 191 q 50 312 42 261 q 76 412 58 362 q 119 508 93 462 q 183 589 146 554 q 268 646 220 625 q 375 667 315 667 q 426 661 401 667 q 470 645 450 655 q 506 622 490 635 q 534 593 522 608 l 598 913 q 604 925 600 920 q 620 934 609 930 q 647 940 630 938 q 688 942 663 942 q 729 940 713 942 q 754 934 745 938 q 766 925 763 930 q 767 913 768 920 l 589 22 m 505 446 q 452 503 481 484 q 385 522 423 522 q 334 508 357 522 q 292 473 311 495 q 259 421 273 451 q 236 359 245 392 q 222 294 227 327 q 218 233 218 262 q 235 155 218 181 q 288 129 252 129 q 349 147 318 129 q 408 195 380 165 q 455 266 435 225 q 486 354 476 307 l 505 446 z "},"ď":{"ha":817,"x_min":42,"x_max":1002,"o":"m 589 22 q 568 2 587 8 q 508 -4 549 -4 q 474 -3 487 -4 q 452 2 460 -1 q 442 10 444 5 q 441 22 439 15 l 459 119 q 427 74 449 98 q 374 30 404 50 q 306 -3 343 9 q 230 -16 269 -16 q 162 -6 191 -16 q 113 21 134 4 q 79 61 92 38 q 57 110 65 84 q 45 163 49 136 q 42 217 42 191 q 50 312 42 261 q 76 412 58 362 q 119 508 93 462 q 183 589 146 554 q 268 646 220 625 q 375 667 315 667 q 426 661 401 667 q 470 645 450 655 q 506 622 490 635 q 534 593 522 608 l 598 913 q 604 925 600 920 q 620 934 609 930 q 647 940 630 938 q 688 942 663 942 q 729 940 713 942 q 754 934 745 938 q 766 925 763 930 q 767 913 768 920 l 589 22 m 505 446 q 452 503 481 484 q 385 522 423 522 q 334 508 357 522 q 292 473 311 495 q 259 421 273 451 q 236 359 245 392 q 222 294 227 327 q 218 233 218 262 q 235 155 218 181 q 288 129 252 129 q 349 147 318 129 q 408 195 380 165 q 455 266 435 225 q 486 354 476 307 l 505 446 m 887 685 q 878 673 883 677 q 863 666 872 669 q 842 663 854 664 q 809 662 829 662 q 785 664 793 662 q 772 669 776 665 q 768 678 768 672 q 770 693 768 684 l 849 900 q 858 914 852 908 q 873 924 863 920 q 899 930 883 928 q 937 932 914 932 q 975 929 961 932 q 996 923 989 927 q 1001 912 1002 919 q 996 898 1001 906 l 887 685 m 616 651 z "},"đ":{"ha":787,"x_min":42,"x_max":852,"o":"m 832 852 q 848 847 843 852 q 852 827 852 841 q 851 813 852 822 q 849 793 850 804 q 844 770 847 782 q 836 749 840 759 q 825 734 831 740 q 810 728 819 728 l 730 728 l 589 22 q 568 2 587 8 q 508 -4 549 -4 q 474 -3 487 -4 q 452 2 460 -1 q 442 10 444 5 q 441 22 439 15 l 459 119 q 427 74 449 98 q 374 30 404 50 q 306 -3 343 9 q 230 -16 269 -16 q 162 -6 191 -16 q 113 21 134 4 q 79 61 92 38 q 57 110 65 84 q 45 163 49 136 q 42 217 42 191 q 50 312 42 261 q 76 412 58 362 q 119 508 93 462 q 183 589 146 554 q 268 646 220 625 q 375 667 315 667 q 426 661 401 667 q 470 645 450 655 q 506 622 490 635 q 534 593 522 608 l 561 728 l 426 728 q 412 734 416 728 q 408 753 408 740 q 409 767 408 758 q 412 787 410 776 q 417 809 414 798 q 425 830 420 821 q 436 846 430 840 q 451 852 443 852 l 585 852 l 598 913 q 604 925 600 920 q 620 934 609 930 q 647 940 630 938 q 688 942 663 942 q 729 940 713 942 q 754 934 745 938 q 766 925 763 930 q 767 913 768 920 l 755 852 l 832 852 m 505 446 q 452 503 481 484 q 385 522 423 522 q 334 508 357 522 q 292 473 311 495 q 259 421 273 451 q 236 359 245 392 q 222 294 227 327 q 218 233 218 262 q 235 155 218 181 q 288 129 252 129 q 349 147 318 129 q 408 195 380 165 q 455 266 435 225 q 486 354 476 307 l 505 446 z "},"ð":{"ha":745,"x_min":41,"x_max":775,"o":"m 277 715 q 257 715 262 711 q 252 732 252 720 q 254 754 252 741 q 260 783 256 768 q 273 808 265 797 q 294 822 281 819 l 403 847 l 359 910 q 352 924 353 918 q 359 935 351 930 q 386 943 367 940 q 438 945 404 945 q 481 944 463 945 q 511 939 498 943 q 532 931 524 936 q 545 920 540 926 l 568 884 l 745 925 q 769 923 762 929 q 775 904 775 916 q 773 884 775 897 q 767 858 772 871 q 755 833 762 844 q 735 820 747 823 l 627 795 q 658 728 645 762 q 680 663 671 695 q 692 598 688 630 q 696 535 696 566 q 692 448 696 494 q 679 355 688 401 q 654 263 670 309 q 616 176 639 218 q 563 100 594 135 q 492 39 532 64 q 401 -1 452 13 q 289 -16 351 -16 q 173 1 220 -16 q 96 48 125 18 q 54 122 67 79 q 41 217 41 165 q 50 312 41 261 q 75 412 58 362 q 118 508 92 462 q 181 589 144 554 q 267 646 218 625 q 375 667 315 667 q 420 663 399 667 q 461 649 442 659 q 497 625 481 640 q 528 588 513 610 q 517 626 522 606 q 504 667 511 646 q 487 711 497 688 q 462 758 477 734 l 277 715 m 500 384 q 493 441 500 416 q 472 485 486 467 q 438 512 458 503 q 391 522 418 522 q 336 509 361 522 q 293 474 312 496 q 260 425 274 453 q 236 366 245 397 q 222 304 227 335 q 218 247 218 273 q 241 158 218 186 q 310 129 264 129 q 372 141 344 129 q 420 174 399 154 q 456 221 441 195 q 481 276 471 248 q 496 333 492 304 q 500 384 500 361 z "},"e":{"ha":682,"x_min":40,"x_max":657,"o":"m 657 495 q 635 407 657 446 q 567 340 613 368 q 449 297 520 312 q 278 282 377 282 l 216 282 q 212 251 213 267 q 210 223 210 236 q 239 140 210 168 q 330 113 267 113 q 411 119 375 113 q 473 133 446 125 q 517 148 500 141 q 543 154 535 154 q 555 149 551 154 q 558 134 558 144 q 556 108 558 123 q 550 78 554 93 q 541 51 547 64 q 528 31 535 38 q 498 15 519 23 q 446 0 476 7 q 377 -11 415 -7 q 300 -16 339 -16 q 186 -2 235 -16 q 105 39 138 12 q 56 110 73 67 q 40 212 40 153 q 48 310 40 258 q 76 412 57 361 q 125 509 95 463 q 197 590 155 555 q 295 646 239 625 q 422 667 351 667 q 528 652 484 667 q 601 613 572 637 q 643 558 629 589 q 657 495 657 528 m 490 482 q 468 527 490 509 q 406 545 447 545 q 346 533 372 545 q 298 500 319 521 q 263 451 278 479 q 240 391 249 423 l 297 391 q 388 398 351 391 q 447 418 425 406 q 479 447 469 430 q 490 482 490 463 z "},"è":{"ha":682,"x_min":40,"x_max":657,"o":"m 657 495 q 635 407 657 446 q 567 340 613 368 q 449 297 520 312 q 278 282 377 282 l 216 282 q 212 251 213 267 q 210 223 210 236 q 239 140 210 168 q 330 113 267 113 q 411 119 375 113 q 473 133 446 125 q 517 148 500 141 q 543 154 535 154 q 555 149 551 154 q 558 134 558 144 q 556 108 558 123 q 550 78 554 93 q 541 51 547 64 q 528 31 535 38 q 498 15 519 23 q 446 0 476 7 q 377 -11 415 -7 q 300 -16 339 -16 q 186 -2 235 -16 q 105 39 138 12 q 56 110 73 67 q 40 212 40 153 q 48 310 40 258 q 76 412 57 361 q 125 509 95 463 q 197 590 155 555 q 295 646 239 625 q 422 667 351 667 q 528 652 484 667 q 601 613 572 637 q 643 558 629 589 q 657 495 657 528 m 490 482 q 468 527 490 509 q 406 545 447 545 q 346 533 372 545 q 298 500 319 521 q 263 451 278 479 q 240 391 249 423 l 297 391 q 388 398 351 391 q 447 418 425 406 q 479 447 469 430 q 490 482 490 463 m 514 770 q 520 754 519 761 q 516 743 522 747 q 496 736 510 739 q 459 734 483 734 q 427 735 439 734 q 405 740 414 736 q 391 747 397 743 q 380 758 385 751 l 256 916 q 249 930 250 923 q 257 942 249 937 q 283 949 265 947 q 333 952 302 952 q 371 951 356 952 q 396 947 386 950 q 412 938 406 943 q 423 925 418 933 l 514 770 m 71 651 z "},"é":{"ha":682,"x_min":40,"x_max":657,"o":"m 657 495 q 635 407 657 446 q 567 340 613 368 q 449 297 520 312 q 278 282 377 282 l 216 282 q 212 251 213 267 q 210 223 210 236 q 239 140 210 168 q 330 113 267 113 q 411 119 375 113 q 473 133 446 125 q 517 148 500 141 q 543 154 535 154 q 555 149 551 154 q 558 134 558 144 q 556 108 558 123 q 550 78 554 93 q 541 51 547 64 q 528 31 535 38 q 498 15 519 23 q 446 0 476 7 q 377 -11 415 -7 q 300 -16 339 -16 q 186 -2 235 -16 q 105 39 138 12 q 56 110 73 67 q 40 212 40 153 q 48 310 40 258 q 76 412 57 361 q 125 509 95 463 q 197 590 155 555 q 295 646 239 625 q 422 667 351 667 q 528 652 484 667 q 601 613 572 637 q 643 558 629 589 q 657 495 657 528 m 490 482 q 468 527 490 509 q 406 545 447 545 q 346 533 372 545 q 298 500 319 521 q 263 451 278 479 q 240 391 249 423 l 297 391 q 388 398 351 391 q 447 418 425 406 q 479 447 469 430 q 490 482 490 463 m 499 758 q 488 747 494 751 q 474 740 483 743 q 452 736 465 737 q 420 734 439 734 q 382 736 396 734 q 363 743 369 739 q 360 754 358 747 q 368 770 361 761 l 471 925 q 483 938 476 932 q 500 946 490 943 q 526 951 511 949 q 564 952 542 952 q 613 949 595 952 q 638 941 631 946 q 645 929 646 936 q 637 916 644 923 l 499 758 m 188 651 z "},"ê":{"ha":682,"x_min":40,"x_max":657,"o":"m 657 495 q 635 407 657 446 q 567 340 613 368 q 449 297 520 312 q 278 282 377 282 l 216 282 q 212 251 213 267 q 210 223 210 236 q 239 140 210 168 q 330 113 267 113 q 411 119 375 113 q 473 133 446 125 q 517 148 500 141 q 543 154 535 154 q 555 149 551 154 q 558 134 558 144 q 556 108 558 123 q 550 78 554 93 q 541 51 547 64 q 528 31 535 38 q 498 15 519 23 q 446 0 476 7 q 377 -11 415 -7 q 300 -16 339 -16 q 186 -2 235 -16 q 105 39 138 12 q 56 110 73 67 q 40 212 40 153 q 48 310 40 258 q 76 412 57 361 q 125 509 95 463 q 197 590 155 555 q 295 646 239 625 q 422 667 351 667 q 528 652 484 667 q 601 613 572 637 q 643 558 629 589 q 657 495 657 528 m 490 482 q 468 527 490 509 q 406 545 447 545 q 346 533 372 545 q 298 500 319 521 q 263 451 278 479 q 240 391 249 423 l 297 391 q 388 398 351 391 q 447 418 425 406 q 479 447 469 430 q 490 482 490 463 m 632 779 q 641 758 639 766 q 637 744 643 749 q 617 737 631 739 q 576 734 603 734 q 543 735 555 734 q 524 739 530 736 q 514 746 517 742 q 507 758 511 751 l 457 860 l 366 758 q 354 746 360 751 q 339 739 348 741 q 317 735 330 736 q 283 734 303 734 q 242 737 256 734 q 224 744 228 739 q 225 758 220 749 q 242 779 230 767 l 379 930 q 392 941 385 937 q 410 947 399 945 q 436 951 421 950 q 473 952 452 952 q 509 951 494 952 q 532 947 523 949 q 547 940 542 944 q 556 930 553 936 l 632 779 m 66 651 z "},"ě":{"ha":682,"x_min":40,"x_max":680,"o":"m 657 495 q 635 407 657 446 q 567 340 613 368 q 449 297 520 312 q 278 282 377 282 l 216 282 q 212 251 213 267 q 210 223 210 236 q 239 140 210 168 q 330 113 267 113 q 411 119 375 113 q 473 133 446 125 q 517 148 500 141 q 543 154 535 154 q 555 149 551 154 q 558 134 558 144 q 556 108 558 123 q 550 78 554 93 q 541 51 547 64 q 528 31 535 38 q 498 15 519 23 q 446 0 476 7 q 377 -11 415 -7 q 300 -16 339 -16 q 186 -2 235 -16 q 105 39 138 12 q 56 110 73 67 q 40 212 40 153 q 48 310 40 258 q 76 412 57 361 q 125 509 95 463 q 197 590 155 555 q 295 646 239 625 q 422 667 351 667 q 528 652 484 667 q 601 613 572 637 q 643 558 629 589 q 657 495 657 528 m 490 482 q 468 527 490 509 q 406 545 447 545 q 346 533 372 545 q 298 500 319 521 q 263 451 278 479 q 240 391 249 423 l 297 391 q 388 398 351 391 q 447 418 425 406 q 479 447 469 430 q 490 482 490 463 m 521 756 q 508 746 515 750 q 490 739 500 741 q 463 735 479 736 q 427 734 448 734 q 391 736 406 734 q 367 740 376 737 q 353 747 357 743 q 345 756 348 751 l 268 907 q 259 929 261 920 q 262 943 257 937 q 282 950 268 948 q 323 952 297 952 q 356 951 344 952 q 374 947 368 950 q 385 940 381 945 q 391 929 389 936 l 442 827 l 532 929 q 545 941 538 936 q 561 948 551 945 q 583 951 570 950 q 616 952 596 952 q 657 950 643 952 q 675 943 671 948 q 674 929 680 937 q 658 907 669 920 l 521 756 m 65 651 z "},"ë":{"ha":682,"x_min":40,"x_max":668,"o":"m 657 495 q 635 407 657 446 q 567 340 613 368 q 449 297 520 312 q 278 282 377 282 l 216 282 q 212 251 213 267 q 210 223 210 236 q 239 140 210 168 q 330 113 267 113 q 411 119 375 113 q 473 133 446 125 q 517 148 500 141 q 543 154 535 154 q 555 149 551 154 q 558 134 558 144 q 556 108 558 123 q 550 78 554 93 q 541 51 547 64 q 528 31 535 38 q 498 15 519 23 q 446 0 476 7 q 377 -11 415 -7 q 300 -16 339 -16 q 186 -2 235 -16 q 105 39 138 12 q 56 110 73 67 q 40 212 40 153 q 48 310 40 258 q 76 412 57 361 q 125 509 95 463 q 197 590 155 555 q 295 646 239 625 q 422 667 351 667 q 528 652 484 667 q 601 613 572 637 q 643 558 629 589 q 657 495 657 528 m 490 482 q 468 527 490 509 q 406 545 447 545 q 346 533 372 545 q 298 500 319 521 q 263 451 278 479 q 240 391 249 423 l 297 391 q 388 398 351 391 q 447 418 425 406 q 479 447 469 430 q 490 482 490 463 m 663 831 q 651 789 659 806 q 631 764 643 773 q 602 751 619 754 q 561 747 585 747 q 522 751 538 747 q 498 764 507 754 q 488 789 490 773 q 491 831 486 806 q 503 872 495 856 q 523 898 511 888 q 552 911 535 907 q 592 914 569 914 q 631 911 616 914 q 656 898 647 907 q 666 872 665 888 q 663 831 668 856 m 398 831 q 386 789 393 806 q 366 764 378 773 q 337 751 354 754 q 296 747 319 747 q 257 751 273 747 q 233 764 241 754 q 223 789 224 773 q 226 831 221 806 q 238 872 230 856 q 258 898 245 888 q 287 911 270 907 q 328 914 304 914 q 366 911 351 914 q 391 898 382 907 q 401 872 399 888 q 398 831 403 856 m 53 651 z "},"ē":{"ha":682,"x_min":40,"x_max":666,"o":"m 657 495 q 635 407 657 446 q 567 340 613 368 q 449 297 520 312 q 278 282 377 282 l 216 282 q 212 251 213 267 q 210 223 210 236 q 239 140 210 168 q 330 113 267 113 q 411 119 375 113 q 473 133 446 125 q 517 148 500 141 q 543 154 535 154 q 555 149 551 154 q 558 134 558 144 q 556 108 558 123 q 550 78 554 93 q 541 51 547 64 q 528 31 535 38 q 498 15 519 23 q 446 0 476 7 q 377 -11 415 -7 q 300 -16 339 -16 q 186 -2 235 -16 q 105 39 138 12 q 56 110 73 67 q 40 212 40 153 q 48 310 40 258 q 76 412 57 361 q 125 509 95 463 q 197 590 155 555 q 295 646 239 625 q 422 667 351 667 q 528 652 484 667 q 601 613 572 637 q 643 558 629 589 q 657 495 657 528 m 490 482 q 468 527 490 509 q 406 545 447 545 q 346 533 372 545 q 298 500 319 521 q 263 451 278 479 q 240 391 249 423 l 297 391 q 388 398 351 391 q 447 418 425 406 q 479 447 469 430 q 490 482 490 463 m 666 871 q 665 857 666 866 q 662 838 664 848 q 657 816 660 827 q 649 795 654 804 q 637 779 644 785 q 622 773 631 773 l 275 773 q 258 779 264 773 q 253 800 253 785 q 255 822 253 806 q 262 855 257 838 q 276 885 267 872 q 300 897 286 897 l 647 897 q 662 890 658 897 q 666 871 666 883 m 85 651 z "},"ĕ":{"ha":682,"x_min":40,"x_max":666,"o":"m 657 495 q 635 407 657 446 q 567 340 613 368 q 449 297 520 312 q 278 282 377 282 l 216 282 q 212 251 213 267 q 210 223 210 236 q 239 140 210 168 q 330 113 267 113 q 411 119 375 113 q 473 133 446 125 q 517 148 500 141 q 543 154 535 154 q 555 149 551 154 q 558 134 558 144 q 556 108 558 123 q 550 78 554 93 q 541 51 547 64 q 528 31 535 38 q 498 15 519 23 q 446 0 476 7 q 377 -11 415 -7 q 300 -16 339 -16 q 186 -2 235 -16 q 105 39 138 12 q 56 110 73 67 q 40 212 40 153 q 48 310 40 258 q 76 412 57 361 q 125 509 95 463 q 197 590 155 555 q 295 646 239 625 q 422 667 351 667 q 528 652 484 667 q 601 613 572 637 q 643 558 629 589 q 657 495 657 528 m 490 482 q 468 527 490 509 q 406 545 447 545 q 346 533 372 545 q 298 500 319 521 q 263 451 278 479 q 240 391 249 423 l 297 391 q 388 398 351 391 q 447 418 425 406 q 479 447 469 430 q 490 482 490 463 m 666 931 q 663 907 666 924 q 651 868 660 890 q 627 823 643 846 q 586 780 611 800 q 524 749 561 761 q 437 736 488 736 q 352 747 386 736 q 299 777 319 758 q 272 821 279 796 q 264 872 264 846 q 264 890 264 880 q 267 910 265 900 q 270 927 268 920 q 276 939 273 935 q 295 947 282 944 q 330 949 307 949 q 356 948 346 949 q 373 944 367 947 q 381 938 379 941 q 383 929 383 934 q 382 915 383 923 q 381 900 381 907 q 385 877 381 887 q 395 859 388 867 q 415 848 403 852 q 447 844 428 844 q 482 848 466 844 q 512 863 498 853 q 534 887 525 873 q 549 923 544 902 q 556 935 552 930 q 566 943 559 940 q 584 948 573 946 q 612 949 595 949 q 640 948 629 949 q 656 945 650 947 q 664 939 662 943 q 666 931 666 935 m 78 651 z "},"ė":{"ha":682,"x_min":40,"x_max":657,"o":"m 657 495 q 635 407 657 446 q 567 340 613 368 q 449 297 520 312 q 278 282 377 282 l 216 282 q 212 251 213 267 q 210 223 210 236 q 239 140 210 168 q 330 113 267 113 q 411 119 375 113 q 473 133 446 125 q 517 148 500 141 q 543 154 535 154 q 555 149 551 154 q 558 134 558 144 q 556 108 558 123 q 550 78 554 93 q 541 51 547 64 q 528 31 535 38 q 498 15 519 23 q 446 0 476 7 q 377 -11 415 -7 q 300 -16 339 -16 q 186 -2 235 -16 q 105 39 138 12 q 56 110 73 67 q 40 212 40 153 q 48 310 40 258 q 76 412 57 361 q 125 509 95 463 q 197 590 155 555 q 295 646 239 625 q 422 667 351 667 q 528 652 484 667 q 601 613 572 637 q 643 558 629 589 q 657 495 657 528 m 490 482 q 468 527 490 509 q 406 545 447 545 q 346 533 372 545 q 298 500 319 521 q 263 451 278 479 q 240 391 249 423 l 297 391 q 388 398 351 391 q 447 418 425 406 q 479 447 469 430 q 490 482 490 463 m 546 836 q 534 796 542 812 q 513 770 526 780 q 481 755 500 760 q 435 751 463 751 q 391 755 408 751 q 366 770 374 760 q 355 796 357 780 q 358 836 354 812 q 370 876 362 859 q 390 902 378 892 q 422 917 403 912 q 468 921 441 921 q 512 917 495 921 q 538 902 529 912 q 549 876 547 892 q 546 836 551 859 m 185 651 z "},"ę":{"ha":682,"x_min":40,"x_max":657,"o":"m 490 482 q 468 527 490 509 q 406 545 447 545 q 346 533 372 545 q 298 500 319 521 q 263 451 278 479 q 240 391 249 423 l 297 391 q 391 399 354 391 q 450 419 428 407 q 480 448 471 432 q 490 482 490 465 m 324 -12 q 309 -14 317 -13 q 290 -14 300 -14 q 183 -1 229 -14 q 104 40 136 12 q 56 111 73 68 q 40 212 40 153 q 48 310 40 258 q 76 412 57 361 q 125 509 95 463 q 197 590 155 555 q 295 646 239 625 q 422 667 351 667 q 528 652 484 667 q 601 613 572 637 q 643 558 629 589 q 657 495 657 528 q 636 409 657 448 q 569 342 615 370 q 452 298 524 313 q 278 282 380 282 l 216 282 q 212 251 213 266 q 210 223 210 236 q 239 140 210 168 q 330 113 267 113 q 410 119 374 113 q 473 133 446 125 q 518 148 500 141 q 543 154 536 154 q 555 149 551 154 q 558 134 558 144 q 556 103 558 121 q 547 67 553 86 q 529 31 541 49 q 500 -2 518 13 l 437 -56 q 405 -86 414 -74 q 396 -113 396 -99 q 404 -127 396 -121 q 431 -133 412 -133 l 490 -133 q 505 -137 501 -133 q 509 -150 509 -141 q 508 -165 509 -155 q 503 -187 506 -176 q 497 -208 500 -198 q 489 -221 494 -217 q 472 -231 484 -227 q 444 -239 460 -235 q 409 -245 428 -243 q 370 -248 390 -248 q 261 -223 298 -248 q 223 -155 223 -199 q 228 -124 223 -139 q 242 -94 233 -109 q 265 -64 251 -79 q 297 -34 279 -50 l 324 -12 z "},"f":{"ha":439,"x_min":-123,"x_max":564,"o":"m 564 903 q 563 890 564 899 q 561 869 562 881 q 556 846 559 858 q 550 823 553 833 q 541 806 546 812 q 531 800 536 800 q 520 802 527 800 q 506 806 514 804 q 487 810 498 808 q 465 812 477 812 q 427 806 443 812 q 399 787 411 800 q 380 753 388 774 q 366 703 372 732 l 356 651 l 466 651 q 480 645 476 651 q 484 624 484 638 q 483 606 484 617 q 479 583 482 595 q 473 558 477 570 q 464 536 469 546 q 453 519 459 526 q 439 513 446 513 l 328 513 l 221 -19 q 190 -118 210 -75 q 139 -190 170 -161 q 67 -233 109 -218 q -28 -248 25 -248 q -87 -242 -63 -248 q -117 -231 -111 -237 q -122 -222 -121 -227 q -123 -209 -123 -218 q -122 -195 -123 -205 q -119 -175 -121 -186 q -114 -151 -117 -163 q -107 -129 -111 -139 q -99 -112 -104 -119 q -88 -106 -94 -106 q -80 -106 -84 -106 q -71 -108 -76 -107 q -60 -110 -66 -109 q -43 -111 -54 -111 q -6 -104 -22 -111 q 22 -84 10 -98 q 41 -49 33 -71 q 56 3 50 -28 l 158 513 l 82 513 q 70 518 74 513 q 65 541 65 524 q 66 558 65 547 q 70 581 67 569 q 75 606 72 593 q 84 628 79 618 q 96 645 90 638 q 111 651 102 651 l 186 651 l 199 718 q 231 819 210 775 q 282 891 252 862 q 355 935 313 920 q 450 949 397 949 q 485 948 467 949 q 517 943 503 946 q 542 936 531 940 q 557 928 553 932 q 563 918 561 924 q 564 903 564 912 z "},"ﬀ":{"ha":834,"x_min":-136,"x_max":960,"o":"m 960 905 q 959 892 960 901 q 956 871 958 883 q 951 847 954 859 q 944 825 948 835 q 936 808 941 814 q 926 802 932 802 q 916 804 922 802 q 901 808 909 806 q 883 812 893 810 q 859 814 872 814 q 822 808 838 814 q 794 789 806 802 q 775 755 783 776 q 761 705 767 734 l 751 651 l 861 651 q 875 645 871 651 q 880 624 880 638 q 879 606 880 617 q 875 583 878 595 q 868 558 872 570 q 859 536 864 546 q 848 519 854 526 q 834 513 842 513 l 723 513 l 620 0 q 588 -103 608 -58 q 537 -177 568 -147 q 464 -223 506 -208 q 368 -239 422 -239 q 300 -233 328 -239 q 265 -220 273 -228 q 258 -199 258 -214 q 259 -184 258 -194 q 262 -162 260 -174 q 267 -137 264 -150 q 274 -115 270 -125 q 283 -98 278 -104 q 294 -92 288 -92 q 304 -93 299 -92 q 317 -96 310 -94 q 333 -100 324 -98 q 353 -101 342 -101 q 391 -95 375 -101 q 418 -76 407 -89 q 438 -41 430 -62 q 452 9 446 -20 l 553 513 l 328 513 l 223 -9 q 191 -114 211 -69 q 139 -188 170 -159 q 67 -233 109 -218 q -29 -248 25 -248 q -93 -242 -66 -248 q -129 -228 -120 -236 q -134 -219 -132 -224 q -136 -205 -136 -214 q -135 -191 -136 -201 q -132 -171 -134 -182 q -127 -147 -130 -159 q -120 -125 -124 -135 q -112 -108 -117 -115 q -101 -102 -107 -102 q -79 -106 -92 -102 q -43 -111 -66 -111 q -6 -104 -22 -111 q 22 -85 10 -98 q 41 -51 33 -72 q 55 -1 49 -30 l 158 513 l 82 513 q 70 518 74 513 q 65 541 65 524 q 66 558 65 547 q 70 581 67 569 q 75 606 72 593 q 84 628 79 618 q 96 645 90 638 q 111 651 102 651 l 186 651 l 197 709 q 230 810 209 767 q 281 883 250 854 q 354 927 313 912 q 449 942 395 942 q 484 940 467 942 q 516 936 501 939 q 541 928 530 932 q 555 920 551 924 q 561 911 559 917 q 563 896 563 905 q 562 883 563 892 q 559 862 561 873 q 555 838 557 850 q 548 815 552 825 q 540 799 545 805 q 530 792 535 792 q 519 794 526 792 q 505 799 513 796 q 486 803 496 801 q 463 805 475 805 q 426 799 441 805 q 398 780 410 793 q 378 745 387 766 q 365 695 370 724 l 356 651 l 581 651 l 594 717 q 626 818 606 774 q 677 891 646 862 q 750 936 708 921 q 846 951 791 951 q 881 949 863 951 q 912 944 898 947 q 938 938 927 941 q 952 930 948 934 q 958 920 956 926 q 960 905 960 914 z "},"ﬁ":{"ha":770,"x_min":-123,"x_max":805,"o":"m 699 651 q 735 640 724 651 q 741 604 745 628 l 625 23 q 619 11 624 16 q 603 3 614 6 q 576 -2 593 -1 q 534 -4 559 -4 q 493 -2 509 -4 q 469 3 477 -1 q 457 11 460 6 q 455 23 454 16 l 553 513 l 328 513 l 221 -19 q 190 -118 210 -75 q 139 -190 170 -161 q 67 -233 109 -218 q -28 -248 25 -248 q -87 -242 -63 -248 q -117 -231 -111 -237 q -122 -222 -121 -227 q -123 -209 -123 -218 q -122 -195 -123 -205 q -119 -175 -121 -186 q -114 -151 -117 -163 q -107 -129 -111 -139 q -99 -112 -104 -119 q -88 -106 -94 -106 q -80 -106 -84 -106 q -71 -108 -76 -107 q -60 -110 -66 -109 q -43 -111 -54 -111 q -6 -104 -22 -111 q 22 -84 10 -98 q 41 -49 33 -71 q 56 3 50 -28 l 158 513 l 82 513 q 70 518 74 513 q 65 541 65 524 q 66 558 65 547 q 70 581 67 569 q 75 606 72 593 q 84 628 79 618 q 96 645 90 638 q 111 651 102 651 l 186 651 l 199 717 q 230 818 210 774 q 281 891 251 862 q 353 936 312 921 q 448 951 395 951 q 482 949 466 951 q 511 944 498 947 q 533 938 524 941 q 546 930 543 935 q 551 921 549 927 q 553 907 553 916 q 552 894 553 903 q 549 873 551 884 q 544 849 547 861 q 537 827 541 837 q 529 810 534 817 q 519 804 524 804 q 509 805 514 804 q 497 809 504 807 q 481 812 490 810 q 460 814 472 814 q 424 808 439 814 q 398 789 409 802 q 379 755 387 776 q 366 705 372 734 l 356 651 l 699 651 m 800 831 q 787 789 795 806 q 766 761 779 772 q 733 746 753 751 q 685 742 713 742 q 638 746 656 742 q 612 761 621 751 q 603 789 604 772 q 606 831 602 806 q 619 873 611 856 q 640 901 627 890 q 673 916 653 911 q 721 921 692 921 q 767 916 750 921 q 794 901 785 911 q 804 873 803 890 q 800 831 805 856 z "},"ﬃ":{"ha":1165,"x_min":-123,"x_max":1200,"o":"m 328 513 l 221 -19 q 190 -118 210 -75 q 139 -190 170 -161 q 67 -233 109 -218 q -28 -248 25 -248 q -87 -242 -63 -248 q -117 -231 -111 -237 q -122 -222 -121 -227 q -123 -209 -123 -218 q -122 -195 -123 -205 q -119 -175 -121 -186 q -114 -151 -117 -163 q -107 -129 -111 -139 q -99 -112 -104 -119 q -88 -106 -94 -106 q -80 -106 -84 -106 q -71 -108 -76 -107 q -60 -110 -66 -109 q -43 -111 -54 -111 q -6 -104 -22 -111 q 22 -84 10 -98 q 41 -49 33 -71 q 56 3 50 -28 l 158 513 l 82 513 q 70 518 74 513 q 65 541 65 524 q 66 558 65 547 q 70 581 67 569 q 75 606 72 593 q 84 628 79 618 q 96 645 90 638 q 111 651 102 651 l 186 651 l 197 709 q 230 810 209 767 q 281 883 250 854 q 354 927 313 912 q 449 942 395 942 q 484 940 467 942 q 516 936 501 939 q 541 928 530 932 q 555 920 551 924 q 561 911 559 917 q 563 896 563 905 q 562 883 563 892 q 559 862 561 873 q 555 838 557 850 q 548 815 552 825 q 540 799 545 805 q 530 792 535 792 q 519 794 526 792 q 505 799 513 796 q 486 803 496 801 q 463 805 475 805 q 426 799 441 805 q 398 780 410 793 q 378 745 387 766 q 365 695 370 724 l 356 651 l 581 651 l 594 717 q 626 818 606 774 q 677 891 646 862 q 749 936 707 921 q 844 951 790 951 q 878 949 862 951 q 907 944 895 947 q 929 938 920 941 q 943 930 939 935 q 947 921 946 926 q 949 907 949 916 q 948 894 949 903 q 945 873 947 884 q 941 850 943 862 q 934 827 938 838 q 926 811 930 817 q 916 804 921 804 q 906 806 911 804 q 893 809 900 807 q 877 812 886 811 q 855 814 867 814 q 819 808 834 814 q 793 788 804 802 q 774 754 782 775 q 761 705 766 733 l 751 651 l 1094 651 q 1130 640 1120 651 q 1137 604 1141 629 l 1021 23 q 1014 11 1019 16 q 999 3 1009 6 q 971 -2 988 -1 q 929 -4 954 -4 q 888 -2 904 -4 q 863 3 872 -1 q 852 11 854 6 q 850 23 849 16 l 948 513 l 723 513 l 620 0 q 588 -103 608 -58 q 537 -177 568 -147 q 464 -223 506 -208 q 368 -239 422 -239 q 300 -233 328 -239 q 265 -220 273 -228 q 258 -199 258 -214 q 259 -184 258 -194 q 262 -162 260 -174 q 267 -137 264 -150 q 274 -115 270 -125 q 283 -98 278 -104 q 294 -92 288 -92 q 304 -93 299 -92 q 317 -96 310 -94 q 333 -100 324 -98 q 353 -101 342 -101 q 391 -95 375 -101 q 418 -76 407 -89 q 438 -41 430 -62 q 452 9 446 -20 l 553 513 l 328 513 m 1196 831 q 1182 789 1190 806 q 1161 761 1175 772 q 1128 746 1148 751 q 1080 742 1109 742 q 1034 746 1052 742 q 1007 761 1016 751 q 997 789 998 772 q 1001 831 996 806 q 1014 873 1006 856 q 1035 901 1022 890 q 1068 916 1048 911 q 1117 921 1088 921 q 1163 916 1145 921 q 1190 901 1181 911 q 1199 873 1198 890 q 1196 831 1200 856 z "},"ﬂ":{"ha":770,"x_min":-123,"x_max":805,"o":"m 625 24 q 603 3 623 10 q 540 -4 583 -4 q 496 -2 513 -4 q 470 3 479 0 q 457 12 460 7 q 455 24 454 18 l 612 808 q 606 802 610 805 q 595 800 602 800 q 583 802 591 800 q 562 806 574 804 q 533 810 550 808 q 493 812 516 812 q 439 806 461 812 q 404 787 418 800 q 380 753 389 774 q 366 703 372 732 l 356 651 l 456 651 q 470 645 465 651 q 474 624 474 638 q 473 606 474 617 q 469 583 472 595 q 463 558 467 570 q 454 536 459 546 q 443 519 449 526 q 429 513 436 513 l 328 513 l 221 -19 q 190 -118 210 -75 q 139 -190 170 -161 q 67 -233 109 -218 q -28 -248 25 -248 q -87 -242 -63 -248 q -117 -231 -111 -237 q -122 -222 -121 -227 q -123 -209 -123 -218 q -122 -195 -123 -205 q -119 -175 -121 -186 q -114 -151 -117 -163 q -107 -129 -111 -139 q -99 -112 -104 -119 q -88 -106 -94 -106 q -80 -106 -84 -106 q -71 -108 -76 -107 q -60 -110 -66 -109 q -43 -111 -54 -111 q -6 -104 -22 -111 q 22 -84 10 -98 q 41 -49 33 -71 q 56 3 50 -28 l 158 513 l 82 513 q 70 518 74 513 q 65 541 65 524 q 66 558 65 547 q 70 581 67 569 q 75 606 72 593 q 84 628 79 618 q 96 645 90 638 q 111 651 102 651 l 186 651 l 199 718 q 231 819 210 775 q 287 891 253 862 q 370 935 321 920 q 486 949 419 949 q 526 948 503 949 q 569 943 549 946 q 606 936 590 940 q 627 927 623 931 q 631 922 630 924 q 634 916 633 920 q 640 927 635 922 q 655 936 645 932 q 682 942 665 939 q 724 944 699 944 q 765 942 749 944 q 790 936 781 940 q 802 927 799 932 q 804 915 805 922 l 625 24 z "},"ﬄ":{"ha":1165,"x_min":-123,"x_max":1200,"o":"m 1021 23 q 997 2 1018 9 q 935 -4 977 -4 q 891 -2 907 -4 q 865 3 874 -1 q 852 11 855 6 q 850 23 849 16 l 1008 810 q 1002 804 1006 807 q 991 802 998 802 q 978 803 986 802 q 958 808 970 805 q 928 812 945 810 q 888 814 911 814 q 835 808 857 814 q 799 789 813 802 q 775 755 784 776 q 761 705 767 734 l 751 651 l 852 651 q 865 645 861 651 q 869 624 869 638 q 868 606 869 617 q 865 583 867 595 q 858 558 862 570 q 849 536 854 546 q 838 519 844 526 q 825 513 831 513 l 723 513 l 621 0 q 589 -103 609 -58 q 537 -177 568 -147 q 465 -223 507 -208 q 368 -239 422 -239 q 301 -233 328 -239 q 266 -220 273 -228 q 259 -199 259 -214 q 260 -184 259 -194 q 263 -162 261 -174 q 268 -137 264 -150 q 274 -115 271 -125 q 283 -98 278 -104 q 294 -92 288 -92 q 305 -93 300 -92 q 318 -96 311 -94 q 334 -100 325 -98 q 354 -101 342 -101 q 392 -95 376 -101 q 419 -76 408 -89 q 439 -41 431 -62 q 453 9 447 -20 l 553 513 l 328 513 l 221 -19 q 190 -118 210 -75 q 139 -190 170 -161 q 67 -233 109 -218 q -28 -248 25 -248 q -87 -242 -63 -248 q -117 -231 -111 -237 q -122 -222 -121 -227 q -123 -209 -123 -218 q -122 -195 -123 -205 q -119 -175 -121 -186 q -114 -151 -117 -163 q -107 -129 -111 -139 q -99 -112 -104 -119 q -88 -106 -94 -106 q -80 -106 -84 -106 q -71 -108 -76 -107 q -60 -110 -66 -109 q -43 -111 -54 -111 q -6 -104 -22 -111 q 22 -85 10 -98 q 41 -50 33 -71 q 56 3 50 -28 l 158 513 l 82 513 q 70 518 74 513 q 65 541 65 524 q 66 558 65 547 q 70 581 67 569 q 75 606 72 593 q 84 628 79 618 q 96 645 90 638 q 111 651 102 651 l 186 651 l 197 709 q 230 810 209 767 q 281 883 250 854 q 354 927 313 912 q 449 942 395 942 q 484 940 467 942 q 516 936 501 939 q 541 928 530 932 q 555 920 551 924 q 561 911 559 917 q 563 896 563 905 q 562 883 563 892 q 559 862 561 873 q 555 838 557 850 q 548 815 552 825 q 540 799 545 805 q 530 792 535 792 q 519 794 526 792 q 505 799 513 796 q 486 803 496 801 q 463 805 475 805 q 426 799 441 805 q 398 780 410 793 q 378 745 387 766 q 365 695 370 724 l 356 651 l 581 651 l 594 718 q 626 819 606 775 q 681 892 647 863 q 764 936 715 921 q 882 951 814 951 q 922 949 900 951 q 965 944 945 947 q 1002 937 986 941 q 1023 928 1018 933 q 1027 923 1025 926 q 1029 916 1028 920 q 1035 927 1030 922 q 1050 936 1040 932 q 1077 942 1061 939 q 1120 944 1094 944 q 1160 942 1145 944 q 1185 936 1176 940 q 1197 927 1194 932 q 1198 915 1200 922 l 1021 23 z "}}}
